<svg id="a3237a58-817f-4357-96a7-f0027335d796" data-name="b06fcdc9-946c-4e9c-bf57-00580ad344aa" xmlns="http://www.w3.org/2000/svg" xmlns:xlink="http://www.w3.org/1999/xlink" viewBox="0 0 722.76 622.13"><defs><style>.a51d122d-37ec-453a-804b-7f127c896edb{fill:url(#a5af828e-5320-474b-8336-b7c2c09ee6c6);}.b12dec4e-4881-4347-bfdc-8db64488f168{fill:#f2f2f2;}.b018a818-3b5b-42ed-b73b-1542d7987bce{fill:#e6e6e6;}.b9398390-08da-4c49-b297-e9a987f4a0e4{fill:url(#b0454803-7e68-478b-8320-3302154001e9);}.a44b8030-6a3c-4f59-98eb-a38a167d18c7{fill:#bf8c60;}.a9febb1b-82da-4a60-952f-ccb48bd2a861{fill:url(#b8b0c9bf-b68f-4729-b6de-23f3acdf7b6b);}.b721e052-4f76-4678-ba73-fa76246b827e{fill:url(#b63517dd-6fd7-4886-ab66-0d52c25faa30);}.e9b3224a-a2ae-45f9-85d4-2f9ecff69f64{fill:url(#ade41683-5f66-47a5-a1b9-1240effd53b6);}.bc4ab1fc-5d32-4752-9f29-66c181b68f4d{fill:url(#af7e9297-34ef-40e7-99b2-669a1019a7b2);}.f79335da-10f7-4067-a1fb-23b39c8db491{fill:url(#a26ea7d4-ef8b-4327-afcc-d25f400ed4fc);}.a72a905c-b2a7-4e10-b7c4-9daba01138cc{fill:url(#aeff057d-14fd-4c4c-974a-901ebd2068a4);}.e3716954-b505-406f-834c-2108720dd879{fill:url(#a6e9ee37-1281-492d-9d35-182de679703a);}.b2364199-fd6f-4afc-ba5f-cddfa2079304{fill:url(#e4001e40-78ca-44fb-8b2f-5399b46dd217);}.a0007d67-8832-4556-aa37-d7c27153908d{fill:url(#f788f3f9-0643-4bf1-98d3-5d32a3039629);}.a6136ee2-e282-4867-bbb0-1420eea1733d{fill:url(#bd26a4dd-f6b3-4761-bfb3-789fd61a83f2);}.b9d11b77-88e1-44cb-b86e-8908cc3c2a10{fill:url(#aeccae22-a3ee-4cd9-bc47-f1bc1e8988d3);}.b513a199-3190-4409-b151-8307cef2bc34{fill:url(#aeb85b96-ebcb-4dc5-985b-ecf35a0ead5d);}.be5fb50d-02b6-418c-af4c-94eadcb8ea58{fill:url(#a3953a5a-2af8-4b2d-9a23-f34ad72f6466);}.fdc5fb6a-4136-46f4-9aba-8196e3b566ec{fill:url(#b7d1af14-92aa-4a6f-8593-c46b90ea1fbe);}.a854f547-81dc-4d0f-8418-b28424795883{fill:url(#a53cfc61-fc69-4ffb-a425-64b712e05bdd);}.fc51e3f3-bd60-4ec3-a26f-fa48312c880b{fill:url(#a5335d28-338f-4e4d-9610-dbdec0d9f8cf);}.abd84b1a-6279-4b1d-8b30-ef8f5ee1b402{fill:url(#a14ab4a0-59a4-46b9-93ba-afebc3cb3c40);}.a5a5867c-d289-4f7b-bb94-32c80b9791d5{fill:url(#b250feb6-02ed-43c9-875a-6139299608b0);}.a2b44b6a-5d32-4ec6-8014-5f714b409d4e{fill:url(#ae7c7922-d650-4056-81b5-338bebe9b47a);}.e23f567a-49b6-4830-8306-f82476f86395{fill:url(#b2c72909-5c5f-42ca-820c-801597b8ce8a);}.bcebec9e-b47d-432c-ba1b-5b7616108740{fill:url(#b745ebcc-5bed-4d0a-a5e4-014663d9f33b);}.a58308dc-7e15-4935-b484-b87160bca3a2{fill:#e1e0df;}.aff1af8a-c39a-4f35-86f5-3a986238fa27{fill:url(#b69afac7-c969-4554-9356-7e47e0db7176);}</style><linearGradient id="a5af828e-5320-474b-8336-b7c2c09ee6c6" x1="718.94" y1="43.26" x2="100.05" y2="585.56" gradientTransform="translate(43.38 691.41) rotate(-96.22)" gradientUnits="userSpaceOnUse"><stop offset="0" stop-color="#ffdb94"/><stop offset="1" stop-color="#fff"/></linearGradient><linearGradient id="b0454803-7e68-478b-8320-3302154001e9" x1="1107.36" y1="-372.79" x2="1252.1" y2="-372.79" gradientTransform="matrix(1, 0, 0, -1, -611.24, -102.66)" gradientUnits="userSpaceOnUse"><stop offset="0" stop-color="#f2b680"/><stop offset="1" stop-color="#fbf49a"/></linearGradient><linearGradient id="b8b0c9bf-b68f-4729-b6de-23f3acdf7b6b" x1="1100.74" y1="-345.27" x2="1122.17" y2="-345.27" gradientTransform="matrix(1, 0, 0, -1, -611.24, -102.66)" gradientUnits="userSpaceOnUse"><stop offset="0"/><stop offset="1" stop-color="#1a1a1a"/></linearGradient><linearGradient id="b63517dd-6fd7-4886-ab66-0d52c25faa30" x1="-10999.86" y1="-344.92" x2="-10977.55" y2="-344.92" gradientTransform="translate(-10351.52 -102.66) rotate(180)" xlink:href="#b8b0c9bf-b68f-4729-b6de-23f3acdf7b6b"/><linearGradient id="ade41683-5f66-47a5-a1b9-1240effd53b6" x1="1098.18" y1="-303.69" x2="1260.15" y2="-303.69" gradientTransform="matrix(1, 0, 0, -1, -611.24, -102.66)" gradientUnits="userSpaceOnUse"><stop offset="0" stop-color="#e6e6e6"/><stop offset="1" stop-color="#f2f2f2"/></linearGradient><linearGradient id="af7e9297-34ef-40e7-99b2-669a1019a7b2" x1="1151.11" y1="-327.96" x2="1224.86" y2="-327.96" xlink:href="#b8b0c9bf-b68f-4729-b6de-23f3acdf7b6b"/><linearGradient id="a26ea7d4-ef8b-4327-afcc-d25f400ed4fc" x1="1131.86" y1="-517.94" x2="1234.23" y2="-517.94" gradientTransform="matrix(1, 0, 0, -1, -611.24, -102.66)" gradientUnits="userSpaceOnUse"><stop offset="0" stop-color="#999"/><stop offset="1" stop-color="#666"/></linearGradient><linearGradient id="aeff057d-14fd-4c4c-974a-901ebd2068a4" x1="1133.23" y1="-518.87" x2="1232.93" y2="-518.87" xlink:href="#a26ea7d4-ef8b-4327-afcc-d25f400ed4fc"/><linearGradient id="a6e9ee37-1281-492d-9d35-182de679703a" x1="1134.8" y1="-520.87" x2="1231.54" y2="-520.87" xlink:href="#a26ea7d4-ef8b-4327-afcc-d25f400ed4fc"/><linearGradient id="e4001e40-78ca-44fb-8b2f-5399b46dd217" x1="1183.17" y1="-565.82" x2="1183.17" y2="-475.91" gradientTransform="matrix(1, 0, 0, -1, -611.24, -102.66)" gradientUnits="userSpaceOnUse"><stop offset="0" stop-color="#945b00"/><stop offset="1" stop-color="#5f4b00"/></linearGradient><linearGradient id="f788f3f9-0643-4bf1-98d3-5d32a3039629" x1="1191.39" y1="-521.3" x2="1223.7" y2="-521.3" xlink:href="#a26ea7d4-ef8b-4327-afcc-d25f400ed4fc"/><linearGradient id="bd26a4dd-f6b3-4761-bfb3-789fd61a83f2" x1="1142.66" y1="-521.3" x2="1175" y2="-521.3" xlink:href="#a26ea7d4-ef8b-4327-afcc-d25f400ed4fc"/><linearGradient id="aeccae22-a3ee-4cd9-bc47-f1bc1e8988d3" x1="1180.75" y1="-523.87" x2="1183.64" y2="-523.87" xlink:href="#a26ea7d4-ef8b-4327-afcc-d25f400ed4fc"/><linearGradient id="aeb85b96-ebcb-4dc5-985b-ecf35a0ead5d" x1="1034.15" y1="-548.92" x2="1165.65" y2="-548.92" xlink:href="#b0454803-7e68-478b-8320-3302154001e9"/><linearGradient id="a3953a5a-2af8-4b2d-9a23-f34ad72f6466" x1="1199.92" y1="-550.71" x2="1331.47" y2="-550.71" xlink:href="#b0454803-7e68-478b-8320-3302154001e9"/><linearGradient id="b7d1af14-92aa-4a6f-8593-c46b90ea1fbe" x1="447.02" y1="-1585.08" x2="481.35" y2="-1615.25" gradientTransform="matrix(0.99, -0.14, -0.14, -0.99, -372.59, -1014.8)" xlink:href="#b0454803-7e68-478b-8320-3302154001e9"/><linearGradient id="a53cfc61-fc69-4ffb-a425-64b712e05bdd" x1="-126.02" y1="-2121.69" x2="-42.62" y2="-2121.69" gradientTransform="matrix(0.98, -0.21, -0.21, -0.98, -237.46, -1686.13)" xlink:href="#b0454803-7e68-478b-8320-3302154001e9"/><linearGradient id="a5335d28-338f-4e4d-9610-dbdec0d9f8cf" x1="717" y1="-585.43" x2="979.81" y2="-585.43" xlink:href="#ade41683-5f66-47a5-a1b9-1240effd53b6"/><linearGradient id="a14ab4a0-59a4-46b9-93ba-afebc3cb3c40" x1="86.43" y1="132.74" x2="389.55" y2="132.74" gradientTransform="matrix(1, 0, 0, -1, 0, 624)" gradientUnits="userSpaceOnUse"><stop offset="0" stop-color="#ccc"/><stop offset="1" stop-color="#e6e6e6"/></linearGradient><linearGradient id="b250feb6-02ed-43c9-875a-6139299608b0" x1="765.68" y1="-221.29" x2="932.18" y2="-221.29" xlink:href="#b0454803-7e68-478b-8320-3302154001e9"/><linearGradient id="ae7c7922-d650-4056-81b5-338bebe9b47a" x1="770.54" y1="-162.38" x2="931.52" y2="-162.38" gradientTransform="matrix(1, 0, 0, -1, -611.24, -102.66)" gradientUnits="userSpaceOnUse"><stop offset="0" stop-color="#aa8000"/><stop offset="1" stop-color="#f2b680"/></linearGradient><linearGradient id="b2c72909-5c5f-42ca-820c-801597b8ce8a" x1="759.29" y1="-247.71" x2="937.38" y2="-247.71" gradientTransform="matrix(1, 0, 0, -1, -611.24, -102.66)" gradientUnits="userSpaceOnUse"><stop offset="0" stop-color="#1a1a1a"/><stop offset="1"/></linearGradient><linearGradient id="b745ebcc-5bed-4d0a-a5e4-014663d9f33b" x1="766.91" y1="-148.74" x2="934.77" y2="-148.74" xlink:href="#ade41683-5f66-47a5-a1b9-1240effd53b6"/><linearGradient id="b69afac7-c969-4554-9356-7e47e0db7176" x1="86.43" y1="118.49" x2="389.55" y2="118.49" gradientTransform="matrix(1, 0, 0, -1, 0, 624)" xlink:href="#e4001e40-78ca-44fb-8b2f-5399b46dd217"/></defs><path class="a51d122d-37ec-453a-804b-7f127c896edb" d="M60.67,413.14c37.47,82,131.41,196.51,264.5,193.09,5.62-.14,134-5.15,181.21-90.62,43-77.77-25.89-141.36,16.41-231.39,40.25-85.68,128-82.12,129.36-128.12C654.17,86,453-24.84,272.47,23.32,177.7,48.6,56,126.38,33.78,251.19,20.59,325.45,48.11,385.66,60.67,413.14Z" transform="translate(0 0)"/><path class="b12dec4e-4881-4347-bfdc-8db64488f168" d="M674.16,359.71c-17.71-45.31-50.41-42.94-50.41-42.94s-64.46-16.79-111.2-1.26h0c-11.32,3.76-21.59,9.41-29.66,17.66-6.36,6.49-28.52,37.93-32.31,61-.66,4.07,5.08,23.85,16.32,26,.45.09,16.7,5.39,24.75,8v.1l.22.78c.51,5.95,1.08,12.25,1.65,18.36.62,6.69,1.25,13.16,1.79,18.74L482.65,541c94.14,53.88,176.91,4.54,176.91,4.54l-13.3-74.16-1.76-9.84c-.11-12.61.12-24.06.39-33.28a121.79,121.79,0,0,0,18.83-2.37c4.69-1,25-3.12,29.69-10.93C697.52,408.09,676.41,365.47,674.16,359.71Z" transform="translate(0 0)"/><path class="b018a818-3b5b-42ed-b73b-1542d7987bce" d="M623.76,316.77c-25.41,24.76-46.44,26.79-46.44,26.79L569,333.15l-8.34,10.41c-36.45-13-48.08-28-48.08-28h0C559.29,300,623.76,316.77,623.76,316.77Z" transform="translate(0 0)"/><path class="b9398390-08da-4c49-b297-e9a987f4a0e4" d="M626.06,304.34c-10.2,4.83-24.42,29-57.3,29h-.53c-32.88,0-47.1-24.16-57.3-29s-18.78-14-12.88-23.08c5.27-8.14,11.4-1.75,12.65-.28l.23.28c-1.22-6.92-4-43.61-5.2-60.94-.39-5.52-.64-9.08-.64-9.08s39.94-1.16,54.55-3.64c4.78-.81,14-.81,24.26-.45,13.6.48,28.89,1.6,37.53,2.29,4.27.34,6.92.57,6.92.57s-.1,8.93-.31,20.51c-.31,17.25-.86,40.39-1.71,48.71-.09.83-.18,1.52-.27,2,0,0,7-9.12,12.88,0S636.26,299.5,626.06,304.34Z" transform="translate(0 0)"/><path class="a44b8030-6a3c-4f59-98eb-a38a167d18c7" d="M626.54,276.66c-.31.34-.48.57-.48.57,1.36-7.72,2-53.33,2.24-67.23h0S627.81,259.58,626.54,276.66Z" transform="translate(0 0)"/><path class="a9febb1b-82da-4a60-952f-ccb48bd2a861" d="M510.93,204s-13.31,1.52-20.29,18.7,20.29,58.59,20.29,58.59S502.34,220.6,510.93,204Z" transform="translate(0 0)"/><path class="b721e052-4f76-4678-ba73-fa76246b827e" d="M626,203.63s14.22,2.86,21.2,20S626,280.89,626,280.89,628.07,225.34,626,203.63Z" transform="translate(0 0)"/><path class="e9b3224a-a2ae-45f9-85d4-2f9ecff69f64" d="M648.91,232.1c0,40-29,5.15-67.2-2.62A69.51,69.51,0,0,0,567.92,228a76,76,0,0,0-22.59,3.74c-33.73,10.5-58.39,37.21-58.39.33a81.26,81.26,0,0,1,1.63-16.24h0A81,81,0,0,1,648,219.72,82.83,82.83,0,0,1,648.91,232.1Z" transform="translate(0 0)"/><path class="bc4ab1fc-5d32-4752-9f29-66c181b68f4d" d="M539.87,233.63s49.56,19.94,73.75-6.94l-18.48,3.65s10.42-1,8.74-20.49c0,0-20.5,19.15-36,18.14S544.06,231.83,539.87,233.63Z" transform="translate(0 0)"/><polygon class="a44b8030-6a3c-4f59-98eb-a38a167d18c7" points="557.77 332.38 570.53 350.87 581.99 332.38 557.77 332.38"/><path class="a44b8030-6a3c-4f59-98eb-a38a167d18c7" d="M500.05,283.48s10.08-1.68,9.07,10.41C509.12,293.89,508.11,286.84,500.05,283.48Z" transform="translate(0 0)"/><path class="a44b8030-6a3c-4f59-98eb-a38a167d18c7" d="M636.21,283.14s-10.08-1.68-9.07,10.42C627.14,293.56,628.14,286.5,636.21,283.14Z" transform="translate(0 0)"/><path class="f79335da-10f7-4067-a1fb-23b39c8db491" d="M623,373.22l-.79,87.13c-.62-.55-3.25,2.35-3.9,1.87-16.56-12.34-40.35-8-45.87-6.14l-1.07.38a20.91,20.91,0,0,0-2-.88c-14.27-5.46-37.88,2.27-44.74,3.83-1.1.25-4-2-4-2l.21-84.14c17.28-9.6,41.55-2.06,48.56,1.9,1.25.69,1.93,1.13,1.93,1.13l.81-.65C591.47,360.65,623,373.22,623,373.22Z" transform="translate(0 0)"/><path class="a72a905c-b2a7-4e10-b7c4-9daba01138cc" d="M621.69,376.06l-.77,83.18c-.6-.52-3.16,2.25-3.8,1.79-16.14-11.78-39.33-7.65-44.71-5.86-.68.22-1,.36-1,.36-.63-.31-1.28-.58-1.95-.84-13.91-5.21-36.92,2.17-43.61,3.65-1.07.24-3.86-2-3.86-2L522.2,376c16.83-9.16,40.49-2,47.32,1.81,1.22.67,1.89,1.09,1.89,1.09l.78-.62C591,364.07,621.69,376.06,621.69,376.06Z" transform="translate(0 0)"/><path class="e3716954-b505-406f-834c-2108720dd879" d="M620.3,376.57l-1.06,86.59c-15.45-13.64-41.44-5.85-46.84-4-.66.22-1,.35-1,.35a19.62,19.62,0,0,0-1.89-.82c-15.58-6-45.83,1.67-45.83,1.67l-.12-83.77c16.26-9,39.42,2.65,46,6.37,1.17.66,1.82,1.07,1.82,1.07l.76-.61C590.32,369.34,620.3,376.57,620.3,376.57Z" transform="translate(0 0)"/><path class="b2364199-fd6f-4afc-ba5f-cddfa2079304" d="M620.3,376.57l-1.06,86.59c-15.45-13.64-41.44-5.85-46.84-4-.66.22-1,.35-1,.35a19.62,19.62,0,0,0-1.89-.82c-15.58-6-45.83,1.67-45.83,1.67l-.12-83.77c16.26-9,39.42,2.65,46,6.37,1.17.66,1.82,1.07,1.82,1.07l.76-.61C590.32,369.34,620.3,376.57,620.3,376.57Z" transform="translate(0 0)"/><path class="a0007d67-8832-4556-aa37-d7c27153908d" d="M612.46,418.66a16.15,16.15,0,0,0-4.89-11.59.42.42,0,0,0-.19-.26,36.05,36.05,0,0,1-10.9-13.92c-.77,4.35-5.93,9.47-9.15,12.3a16.56,16.56,0,0,0-2.57,2.15h0a16.18,16.18,0,0,0,0,22.61h0a16.71,16.71,0,0,0,2.59,2.15c3.22,2.83,8.38,8,9.15,12.3a36.05,36.05,0,0,1,10.9-13.92.38.38,0,0,0,.19-.26A16.13,16.13,0,0,0,612.46,418.66Z" transform="translate(0 0)"/><path class="a6136ee2-e282-4867-bbb0-1420eea1733d" d="M563.76,418.66a16.12,16.12,0,0,0-4.9-11.59c0-.08-.06-.16-.18-.26a35.91,35.91,0,0,1-10.91-13.92c-.77,4.35-5.92,9.47-9.15,12.3a17.19,17.19,0,0,0-2.59,2.15h0A16.18,16.18,0,0,0,536,430h0a17.19,17.19,0,0,0,2.59,2.15c3.23,2.83,8.38,8,9.15,12.3a35.91,35.91,0,0,1,10.91-13.92.37.37,0,0,0,.18-.26A16.09,16.09,0,0,0,563.76,418.66Z" transform="translate(0 0)"/><path class="b9d11b77-88e1-44cb-b86e-8908cc3c2a10" d="M572.4,384.69v74.45c-.66.22-1,.35-1,.35a19.62,19.62,0,0,0-1.89-.82V383.06l.07-.12c1.17.66,1.82,1.07,1.82,1.07l.76-.61Z" transform="translate(0 0)"/><path class="a44b8030-6a3c-4f59-98eb-a38a167d18c7" d="M546.63,412.06a28.86,28.86,0,0,1-21.17,16c-16,3,0,1.73,0,1.73s14.26-3.45,21.17-14.68l1.72-2.6a5.6,5.6,0,0,1,3.46,6c-.43,4.75-9.93,15.12-23.32,18.57,0,0,9.07-1.29,14.68-5.61a34.94,34.94,0,0,0,8.21-8.64s1.73-1.3,2.16,4.32-10.8,13.39-17.71,16.84,4.75,0,7.34-2.15,5.62-5.62,6.91-5.19,4.32,2.59-1.29,9.5-24.62,13-32.4,13S481,470,476.22,474.7l-7.34-25.48s11.56-3,17.55-7,7.29-17,12.9-23.88,10.58-7.4,14.15-11.48,2.43-5.77,4.94-3,2.39,5.79.07,9.69-10.9,10.29-10.9,10.29S529.83,419,537,412.38,546.63,412.06,546.63,412.06Z" transform="translate(0 0)"/><path class="b513a199-3190-4409-b151-8307cef2bc34" d="M551,438.84c-1.3-.43-4.32,3-6.91,5.18s-14.26,5.62-7.35,2.16S554.83,435,554.4,429.34s-2.16-4.32-2.16-4.32a34.9,34.9,0,0,1-8.2,8.64c-5.62,4.32-14.69,5.61-14.69,5.61,13.39-3.45,22.89-13.82,23.32-18.57a5.58,5.58,0,0,0-3.45-6l-1.73,2.6C540.58,428.53,526.33,432,526.33,432s-16,1.3,0-1.73a28.82,28.82,0,0,0,21.16-16s-2.37-6.26-9.58.33S508.45,426,508.45,426s8.59-6.39,10.91-10.29,2.43-6.9-.08-9.69-1.38-1.09-4.94,3-8.53,4.56-14.15,11.47a30.68,30.68,0,0,0-4.14,7.5c1-3.22,1.11-5.93-1.41-6-20.61-.94-42.1-18.22-42.1-18.22s-20.67,50.07-29.1,76.3c-7.11,22.15,59.22-3.79,89.07-18a23.88,23.88,0,0,1,4.75-.69c7.77,0,26.78-6,32.39-13S552.24,439.27,551,438.84Zm-56.51-6.79c-.87,2.3-1.73,4.56-2.71,6.55l-.83.2a72.23,72.23,0,0,0,3.54-6.75Z" transform="translate(0 0)"/><path class="a44b8030-6a3c-4f59-98eb-a38a167d18c7" d="M491.83,438.8s-19.67,2.81-45,19.67c0,0,28.79-23,47.65-27.91Z" transform="translate(0 0)"/><path class="a44b8030-6a3c-4f59-98eb-a38a167d18c7" d="M596.52,413.94a28.86,28.86,0,0,0,21.16,16c16,3,0,1.72,0,1.72s-14.25-3.45-21.16-14.68l-1.76-2.64a5.55,5.55,0,0,0-3.45,6c.43,4.76,9.93,15.12,23.32,18.58,0,0-9.07-1.3-14.69-5.62a34.9,34.9,0,0,1-8.2-8.64s-1.73-1.29-2.16,4.32,10.8,13.39,17.71,16.85-4.75,0-7.35-2.16-5.61-5.62-6.91-5.18-4.32,2.59,1.3,9.5,24.62,13,32.39,13,35.42,10.79,40.17,15.55l7.35-25.49s-11.57-3-17.55-7-7.29-17-12.9-23.89-10.59-7.39-14.15-11.47-2.44-5.78-4.94-3-2.39,5.79-.08,9.69,10.91,10.29,10.91,10.29-22.25-4.86-29.46-11.46S596.52,413.94,596.52,413.94Z" transform="translate(0 0)"/><path class="be5fb50d-02b6-418c-af4c-94eadcb8ea58" d="M719.7,481.89c-8.43-26.23-29.1-76.29-29.1-76.29s-21.49,17.27-42.1,18.21c-2.51.11-2.42,2.83-1.4,6a29.89,29.89,0,0,0-4.15-7.5c-5.61-6.91-10.58-7.39-14.14-11.47s-2.44-5.78-5-3-2.39,5.79-.07,9.69,10.91,10.29,10.91,10.29S612.4,423,605.19,416.36s-9.58-.32-9.58-.32a28.86,28.86,0,0,0,21.16,16c16,3,0,1.72,0,1.72s-14.25-3.45-21.16-14.68l-1.73-2.59a5.57,5.57,0,0,0-3.46,6c.43,4.76,9.94,15.12,23.33,18.58,0,0-9.07-1.3-14.69-5.62a35.3,35.3,0,0,1-8.21-8.64s-1.72-1.29-2.16,4.32,10.8,13.39,17.71,16.85-4.75,0-7.34-2.16-5.61-5.62-6.91-5.18-4.32,2.59,1.3,9.5,24.62,13,32.39,13a23.66,23.66,0,0,1,4.74.68C660.48,478.1,726.82,504,719.7,481.89Zm-67.45-41.22-.83-.2c-1-2-1.84-4.25-2.72-6.55a74.79,74.79,0,0,0,3.55,6.75Z" transform="translate(0 0)"/><path class="a44b8030-6a3c-4f59-98eb-a38a167d18c7" d="M651.31,440.67s19.68,2.81,45,19.67c0,0-28.78-23-47.65-27.91Z" transform="translate(0 0)"/><path class="b12dec4e-4881-4347-bfdc-8db64488f168" d="M711.62,511.66C675.91,488.08,593.2,533.54,574.5,548h-7.74c-18.7-14.44-104.44-59.9-140.15-36.32C386.9,537.88,458.12,621,564.39,618.58h9.37C680.09,621.06,751.33,537.88,711.62,511.66Z" transform="translate(0 0)"/><path class="b12dec4e-4881-4347-bfdc-8db64488f168" d="M249.86,527.91C163.2,525,70,465.33,82.19,321.08c3-35,9.89-62.83,18.85-84.93,31.07-76.56,86.65-84.5,86.65-84.5H299.76s48.22,24.69,74.45,92.69c8.18,21.19,14.22,46.58,16,76.75C396.61,428.87,336.52,530.83,249.86,527.91Z" transform="translate(0 0)"/><path class="b12dec4e-4881-4347-bfdc-8db64488f168" d="M328.76,216c1.48-9.82,15.07-27.24,37.68-12.57s62.17,130.91,43.32,186.45-57.46,15.72-57.46-23S323.09,253.74,328.76,216Z" transform="translate(0 0)"/><path class="b12dec4e-4881-4347-bfdc-8db64488f168" d="M457.09,457C402,420.65,271.75,516.72,242.88,539H231.41C202.54,516.75,72.31,420.68,17.2,457c-61.29,40.47,48.63,168.83,212.65,165h14.52C408.43,625.91,518.4,497.52,457.09,457Z" transform="translate(0 0)"/><path class="b12dec4e-4881-4347-bfdc-8db64488f168" d="M340.41,501.46s-24.57,2.38-32.35-21.32,26.07-109.66,68-123.18,47.53,34.2,27.23,53.24S340.41,501.46,340.41,501.46Z" transform="translate(0 0)"/><path class="fdc5fb6a-4136-46f4-9aba-8196e3b566ec" d="M307,471.56s-15.35,29.07-15,35.73-4.42,15.9.48,24.34,13.63,9.6,24.07,5.65,8.33-26.84,12.6-31.12,9.31,5.49,11.94-14.49S307,471.56,307,471.56Z" transform="translate(0 0)"/><path class="b12dec4e-4881-4347-bfdc-8db64488f168" d="M117.76,336a97.92,97.92,0,0,0-1.16,14c0,1.81,12.44,17,12.24,18.84-3.29,29.75-43,45.92-63.76,13.84a61.76,61.76,0,0,1-5.94-12C40.3,320.72,79.86,216.17,102.47,203s36.1,1.59,37.67,11.3c1.94,11.92-.38,27.89-4.21,45.1C130.14,285.28,121,314,117.76,336Z" transform="translate(0 0)"/><path class="b018a818-3b5b-42ed-b73b-1542d7987bce" d="M116.58,349.93c0,1.81,12.44,17,12.24,18.84-3.29,29.75-43,45.92-63.76,13.84,7.28-8.74,19.74-21.82,32.21-26.08,0,0-2.83-10.36-24-6.6s-7.07-3.76-7.07-3.76,17.43-8,42.39-.48c0,0,21.24-77.94,27.34-86.3C130.16,285.28,121,314,117.76,336A97.39,97.39,0,0,0,116.58,349.93Z" transform="translate(0 0)"/><path class="b018a818-3b5b-42ed-b73b-1542d7987bce" d="M130.23,362s-38.66-2.75-52.71,21.47,11.38,37.13,22.82,36.56S180.15,408.13,130.23,362Z" transform="translate(0 0)"/><path class="a854f547-81dc-4d0f-8418-b28424795883" d="M114.19,436.76s-37.25-24-29.42-42,32-30.28,44.49-24.68,36.22,42,42.88,51.88-.4,17.44-10.91,10.65S141.58,415,141.58,415,124.65,439.79,114.19,436.76Z" transform="translate(0 0)"/><path class="fc51e3f3-bd60-4ec3-a26f-fa48312c880b" d="M105.76,432.83s90.57-7.41,127.56,44c0,0,65.57-49.48,135.25-43.58L238.14,525.61S271.91,572.19,105.76,432.83Z" transform="translate(0 0)"/><polygon class="abd84b1a-6279-4b1d-8b30-ef8f5ee1b402" points="86.43 429.92 107.63 429.54 235.73 521.38 366.19 429.54 389.55 429.71 238.12 553 86.43 429.92"/><path class="a5a5867c-d289-4f7b-bb94-32c80b9791d5" d="M306.81,176.88c-26.57,59-156.91,53.9-152.25-35.95,1.45-27.76,4.26-42.28,4.74-56.76,0-1.46.07-2.92.07-4.39-.06-31.16,1.65-40.62,23.76-50,0,0,67.47-18.13,104.36-.84,17,8,27.58,28.71,31.39,54.52q.89,6,1.4,12.05C322.53,122,319.22,149.34,306.81,176.88Z" transform="translate(0 0)"/><path class="a2b44b6a-5d32-4ec6-8014-5f714b409d4e" d="M320.28,95.53c-16.7,1.9-44,3.57-82.66,1.49-40.51-2.19-65-8.2-78.32-12.85,0-1.46.07-2.92.07-4.39-.06-31.16,1.65-40.62,23.76-50,0,0,67.47-18.13,104.36-.84,17,8,27.58,28.71,31.39,54.52Q319.77,89.48,320.28,95.53Z" transform="translate(0 0)"/><path class="e23f567a-49b6-4830-8306-f82476f86395" d="M158.18,73.43s-11,33.79-10.08,54.91,2.6,86.1,79.94,93.25,89.72-53.61,95.52-74.08,0-58.16,0-58.16-9.13-11.36-14.15,0,1.16,55.88-5,69.85-39.31,30.22-57.83,29.24-64-7.8-71.81-27.29-9.1-75.38-6.18-87.73S158.18,73.43,158.18,73.43Z" transform="translate(0 0)"/><path class="bcebec9e-b47d-432c-ba1b-5b7616108740" d="M323.53,88.28c-8.8,2-40.52,4.87-81.67,3.56-49-1.56-71.36-6.22-86.19-10.84,1.42-42,6.09-62.16,29.49-73.4,0,0,70.91-20.24,108.39,5.32C310.84,24.71,320.76,53.34,323.53,88.28Z" transform="translate(0 0)"/><path class="b018a818-3b5b-42ed-b73b-1542d7987bce" d="M345.86,428.34c.46-3.09.88-6.22,1.27-9.36,5.74-46.39,4.25-103.43-15.34-169.69,4.76,26.35,8.8,55.45,11.35,87A897.64,897.64,0,0,1,345.86,428.34Z" transform="translate(0 0)"/><path class="a58308dc-7e15-4935-b484-b87160bca3a2" d="M482.68,528.5c3,.83,6.07,1.63,9.14,2.39,45.36,11.31,102.16,16.73,170.3,5.29-26.73,1.54-56.11,2-87.73.75A897.18,897.18,0,0,1,482.68,528.5Z" transform="translate(0 0)"/><path class="a58308dc-7e15-4935-b484-b87160bca3a2" d="M37.11,486.22q3.64,3,7.42,5.85c37.05,28.49,86.95,56.16,154,72.92-25.12-9.27-52.24-20.56-80.72-34.38A897.84,897.84,0,0,1,37.11,486.22Z" transform="translate(0 0)"/><path class="a58308dc-7e15-4935-b484-b87160bca3a2" d="M368.59,533.5c-28.48,13.82-55.6,25.11-80.72,34.39,67-16.76,116.93-44.43,154-72.93q3.76-2.9,7.42-5.84A899,899,0,0,1,368.59,533.5Z" transform="translate(0 0)"/><polygon class="aff1af8a-c39a-4f35-86f5-3a986238fa27" points="86.43 444.16 107.63 443.78 235.73 535.63 366.19 443.78 389.55 443.96 238.12 567.25 86.43 444.16"/></svg>