<svg xmlns="http://www.w3.org/2000/svg" viewBox="0 0 413.86 490.61"><defs><style>.fd1e298b-7ea5-4970-9036-cb797518baeb{fill:#ebd9cc;}.ed3eeb02-d777-4b59-9ef0-6dd4055c9743{fill:#2b3990;}.be47fb8e-dd9b-491c-827a-62d06bd530fd{fill:#f0d7cb;}.fb2fa1d4-660d-4b90-b02d-79348aceae3f{fill:#e0e1e2;}.aa812a46-9542-478e-bed1-dac63bc532df{fill:#fff;}.a3d49c3c-2b71-4c19-9144-b79209c7d3db{fill:#dcddde;}.f7ad5f25-e44b-411b-a80c-81b68d5f1a84{fill:#c37f71;}.f26e0a38-a586-4053-a91e-7da5b36e2e3a{fill:#a76661;}.e10276b7-6041-4f9a-a0ee-bef4131f6699{fill:#efeff0;}.af0d73d5-d375-42e6-9e21-1d38e4a0249e{fill:#4e3a4d;}</style></defs><g id="b45fc56f-115d-4a2d-bb77-9a1c0d0b549d" data-name="Objects"><path class="fd1e298b-7ea5-4970-9036-cb797518baeb" d="M471.06,354.8c-5.42-73.3,123.56-210.44,246.51-167.21,101.26,35.6,184.64,188.68,164,308.29C849.9,680,586.12,702.29,560.87,635.66,550,607,588,574,580.11,512.86,568.54,422.55,475.49,414.55,471.06,354.8Z" transform="translate(-470.9 -179.33)"/><path class="ed3eeb02-d777-4b59-9ef0-6dd4055c9743" d="M728.57,362.93c5.31-4.11,13.17-6.44,22.29-7.13s24.31,2.36,30.57-.77a15,15,0,0,1,11.3-1.22l78.65,71.94-21.11,6.12c-8.41-6-29-19-41.68-11.68-8.6,5-5.23,15.28-.17,23.81l-23.08,6.69-78-84C712,362.37,723.25,367,728.57,362.93Z" transform="translate(-470.9 -179.33)"/><path class="ed3eeb02-d777-4b59-9ef0-6dd4055c9743" d="M744,406.19l41.47-44a15.61,15.61,0,0,1,11.3-1.22c6.13,1.79,21.58-4.6,30.71-5.89s16.92-.65,22,2.32,16.69-4.16,21.15-.82l-32.07,39.34Z" transform="translate(-470.9 -179.33)"/><path class="ed3eeb02-d777-4b59-9ef0-6dd4055c9743" d="M744,406.19l15.14,16.3h0c-9.74,4.8-19.65,13.08-25,17.85l-20.9-1.56Z" transform="translate(-470.9 -179.33)"/><path class="be47fb8e-dd9b-491c-827a-62d06bd530fd" d="M791.91,356.91,714.07,370l32.08,33.9,39.33-41.72a15.79,15.79,0,0,1,10-1.53Z" transform="translate(-470.9 -179.33)"/><path class="fb2fa1d4-660d-4b90-b02d-79348aceae3f" d="M785.48,362.2a15.94,15.94,0,0,1,8.35-1.74l-2.49-2.21-74.5,12.45,30.4,32.07Z" transform="translate(-470.9 -179.33)"/><path class="aa812a46-9542-478e-bed1-dac63bc532df" d="M785.48,362.2a20.3,20.3,0,0,1,9.34-1.78l-2.48-2.2-74.5,12.45,29.91,31.56Z" transform="translate(-470.9 -179.33)"/><path class="a3d49c3c-2b71-4c19-9144-b79209c7d3db" d="M735.52,410.67a16.83,16.83,0,0,0-1.39-4.73c-2.72-5.58-10.16-8.27-16-9-21.87-2.68-57.06-4.21-57.06-4.21L659,416.55l6.84,20.76s26.65,1.73,35.21.17c6.26-1.14,12.54-2.17,18.73-3.6a64.69,64.69,0,0,0,10.27-2.9c3.67-1.56,5-6.2,5.41-9.9A39.34,39.34,0,0,0,735.52,410.67Z" transform="translate(-470.9 -179.33)"/><path class="f7ad5f25-e44b-411b-a80c-81b68d5f1a84" d="M629.52,495.84s-4.06,8.08-3.33,12.22,45.45-8.14,45.45-8.14l-10.49-12.38Z" transform="translate(-470.9 -179.33)"/><path class="f26e0a38-a586-4053-a91e-7da5b36e2e3a" d="M642.22,271.43s6.5-2.7,10.36-14.19l8.17,3.28L677.21,283s-4.55,10.83-5,21.31Z" transform="translate(-470.9 -179.33)"/><path class="e10276b7-6041-4f9a-a0ee-bef4131f6699" d="M679.32,410.58c-16.38-2.35-24.77-47.73-24.77-47.73l9.06-27.53,9.84-7,15.47-3.81,3.91.62s16.58,60.76,17.8,69.45l16.78,32.6L699.92,437Z" transform="translate(-470.9 -179.33)"/><path class="f7ad5f25-e44b-411b-a80c-81b68d5f1a84" d="M721.32,252s-2.25,12.53-4,13.57-4.82.55-5.27,3.38.5,13.49-.86,13.8-5.14-.81-5.14-.81-8.07,14.5-11.44,15.81-16.7-5-29-28.51a108.73,108.73,0,0,1,22.81-20.34c13.17-8.44,29.22-5.12,29.22-5.12l4.88.76Z" transform="translate(-470.9 -179.33)"/><path class="af0d73d5-d375-42e6-9e21-1d38e4a0249e" d="M704,285.48l2.07-3.57c-9.8-5.63-15.4-1-18.09,2.88s-6.42,0-8.09-2.62c-2.19-3.52-2.27-7-1.87-10.93.08-.71,1.35-9.62,2-9.67l-7.71,2.76-2,.92-7.73,1.41s10.88,23.5,22.32,29c9.57,4.61,11,1.14,11,1.14a16.74,16.74,0,0,0,3.39-4s-6.62-1.21-4.17-6.78S704,285.48,704,285.48Z" transform="translate(-470.9 -179.33)"/><path class="af0d73d5-d375-42e6-9e21-1d38e4a0249e" d="M722.18,233.16c-4.09-9.06-56.57-18.14-65.75,3.29-5,11.74-6.7,19.11-5.48,24.86l8.95,7.1s18.67-3.5,24.31-8.15l-.91,3.51c2.13-2.18.84.52.84.52s2.8.95,1.27,7.28l11,.13s-.42-9,9.33-12.47,14.46-1.66,14.46-1.66S726.28,242.23,722.18,233.16Z" transform="translate(-470.9 -179.33)"/><path class="aa812a46-9542-478e-bed1-dac63bc532df" d="M724.57,234.45c-1.68-4.7-6.4-15-16.91-21.38-21-12.74-51.15-1.86-55.19,25.67-.55,3.77-1.67,7.8-2,12.39a2.18,2.18,0,0,0,2.45,2.44c9-1.6,40.14-7.37,70.12-16A2.41,2.41,0,0,0,724.57,234.45Z" transform="translate(-470.9 -179.33)"/><path class="f7ad5f25-e44b-411b-a80c-81b68d5f1a84" d="M689.24,266.89s-1.16-9-7.36-6.69-4.17,18,1.67,16.05S689.24,266.89,689.24,266.89Z" transform="translate(-470.9 -179.33)"/><path class="aa812a46-9542-478e-bed1-dac63bc532df" d="M777.75,441.47c-.78-10-14.9-13.21-14.9-13.21l-60.42-7.21L579.57,453c-.9.24-.48,2.74.42,5.8,1.08,10,5,30.14,19,38.29,18.93,11,42.92,9.84,63.57-1.06,2.56,6,4.13,6.7,4.13,6.7,8.72-1.45,95.42-30.68,102.2-34.8S778.52,451.49,777.75,441.47Z" transform="translate(-470.9 -179.33)"/><path class="e10276b7-6041-4f9a-a0ee-bef4131f6699" d="M685.65,428.76l-34.8,5.69L579.57,453c-.9.24-.48,2.74.42,5.8.06.54.12,1.11.2,1.7,5.46,9.36,20,26,53.51,22.74C679.79,478.67,685.65,428.76,685.65,428.76Z" transform="translate(-470.9 -179.33)"/><path class="aa812a46-9542-478e-bed1-dac63bc532df" d="M632.57,272.05s9.14-4.15,12.84-2.89S675,294.68,676.3,299.84a50.86,50.86,0,0,1,1.18,11.5s12.55,9.06,15.35,13.75c0,0-35.66,6.4-31,54.9,0,0,14,21,17.69,29s12.34,18.18,22.86,12.08c0,0-8.79,62.32-67.94,58.28,0,0-42.11.07-54.92-26.37,0,0,2.2-18.4,7.71-33.1s4.05-16.7-3.17-49.33,5.6-71.29,13.52-85.6S610.65,267.83,632.57,272.05Z" transform="translate(-470.9 -179.33)"/><path class="e10276b7-6041-4f9a-a0ee-bef4131f6699" d="M662.52,496l94.05-36.68S687.91,479.55,662.52,496Z" transform="translate(-470.9 -179.33)"/><path class="e10276b7-6041-4f9a-a0ee-bef4131f6699" d="M627.8,409.09c-31.23-7.46-41.43-28.44-41.43-28.44,5.2,23.13,5.78,26.21.91,39.21-5.51,14.7-7.71,33.1-7.71,33.1s4.85-24.22,10.2-33.41S627.8,409.09,627.8,409.09Z" transform="translate(-470.9 -179.33)"/><path class="e10276b7-6041-4f9a-a0ee-bef4131f6699" d="M676.3,299.84c-1.31-5.16-27.2-29.42-30.89-30.68s-12.84,2.89-12.84,2.89,23.18,30,44.91,39.29A50.86,50.86,0,0,0,676.3,299.84Z" transform="translate(-470.9 -179.33)"/></g></svg>