<svg xmlns="http://www.w3.org/2000/svg" xmlns:xlink="http://www.w3.org/1999/xlink" viewBox="0 0 1039.73 861.53"><defs><style>.b7983e1b-826c-40dc-b6d3-6f200e367021{fill:#6b3d44;}.b84a5ada-8a6c-4c8c-af5c-43e8e84a9a43{fill:#9b616c;}.f6dfabd1-4eef-499a-ae6a-f1fa6921b383{fill:url(#f563e206-de79-4b08-bcca-3ec9c1c69ae5);}.a8a33c88-050e-4907-9f41-166af4718ffa{fill:#44272e;}.aade1fd3-de2c-4658-ba0d-dc87f6ef4be2{fill:#935460;}.b989e3f2-e6f6-4fe7-a304-604c3cfced59{fill:#8681bd;}.b926f445-e05f-472d-b91d-ee4996936449{fill:#c6a46d;}.a7205867-355f-49c4-8323-214ed968c744{fill:#a3a1e2;}.bdfb769d-ee88-4bfd-b8c3-4b7a216a1466{fill:#fce0ad;}.b627717c-5be6-41ea-b844-3d02a97e78af{fill:#ad8f64;}.f06a3064-d635-489b-9aa8-9f78af2a6353{fill:#ddbd8a;}.e9322b65-94af-4fb6-b43c-02144b8476ae{fill:#ffebca;}.b60c3eaf-360a-4cd4-88d5-8c9b4a60c035{fill:#b23f39;}.a08469be-7af3-4ca7-b4bc-da74b8b49271{fill:#ec5946;}</style><linearGradient id="f563e206-de79-4b08-bcca-3ec9c1c69ae5" x1="1239.14" y1="-24.55" x2="87.14" y2="1066.17" gradientUnits="userSpaceOnUse"><stop offset="0" stop-color="#d2ffbf"/><stop offset="1" stop-color="#aaffc0"/></linearGradient></defs><g id="e83e41ce-c32a-47ba-8654-18c399a126b8" data-name="object"><circle class="b7983e1b-826c-40dc-b6d3-6f200e367021" cx="1030.43" cy="533.59" r="18.34" transform="translate(-299.11 375.92) rotate(-22.5)"/><circle class="b84a5ada-8a6c-4c8c-af5c-43e8e84a9a43" cx="1035.05" cy="525.72" r="8.23" transform="translate(112.24 1353.26) rotate(-76.72)"/><circle class="b7983e1b-826c-40dc-b6d3-6f200e367021" cx="677.45" cy="120.4" r="18.34"/><circle class="b84a5ada-8a6c-4c8c-af5c-43e8e84a9a43" cx="855.42" cy="171.55" r="8.23" transform="translate(375.7 929.42) rotate(-80.78)"/><path class="f6dfabd1-4eef-499a-ae6a-f1fa6921b383" d="M217.87,731.1c-27.08-24-45.93-59-44.43-95.2,1.24-30,15.78-57.52,27.25-85.25a442.14,442.14,0,0,0,29.25-107.4c6.7-47.66,5.6-96.25,14-143.64s28.07-95.45,66.78-124c61.74-45.61,148.2-28.12,222.8-46.23,43.51-10.56,82.88-33.4,124.35-50.27S746.2,51.31,788.59,65.73c32.6,11.1,58.65,35.83,89.55,51,37.86,18.62,81.1,22.1,121.94,32.71s83.09,31.86,99.49,70.74c17.48,41.43.4,88.79,3.37,133.67,4.06,61.49,44.88,113.2,75.56,166.65s51.26,123.53,16.25,174.25c-18.8,27.23-50.43,43.06-82.45,51.39s-65.34,10.25-97.92,16c-83.17,14.71-159.68,54-240,80.11-75.44,24.5-155.44,37.34-234.41,29.86-63.2-6-126.36-25.36-179.91-59.93-19.42-12.54-35.26-27.36-56.48-36.73C273,762,243.67,754,217.87,731.1Z" transform="translate(-173.35 -59.03)"/><path class="b7983e1b-826c-40dc-b6d3-6f200e367021" d="M772.14,629.88,1153,811.46a10.64,10.64,0,0,0,14-3.22h0a10.64,10.64,0,0,0-2.26-14.48l-52.49-40.43a30.18,30.18,0,0,0-4-2.61L983.73,661.94s-2.9-1.79,0-4.67,83.32,34.63,83.32,34.63v-9.48l-79.47-83S835,517,835.59,512,772.14,629.88,772.14,629.88Z" transform="translate(-173.35 -59.03)"/><path class="a8a33c88-050e-4907-9f41-166af4718ffa" d="M1164.7,793.85S925.37,687.53,786,624.82c-8.42,3.11-13.88,5.16-13.88,5.16L1153,811.56a10.64,10.64,0,0,0,14.33-14.78Z" transform="translate(-173.35 -59.03)"/><path class="b7983e1b-826c-40dc-b6d3-6f200e367021" d="M1196.69,381.74l-228.14-122L552.46,510s-93.11,62.19-119.68,78.62-106.2,106.81-149.37,121.6v24.65l73.51,65.73S518,656.25,532.75,655.3s42.72,4.42,29.57,31.31c-11,22.48-114,112.28-147.47,141.15a30.17,30.17,0,0,0-10.48,22.87,27.89,27.89,0,0,0,9.22,20.72l54.64,49.21h28.65S655.5,784.17,665.6,774.31s225.59-138,225.59-138l42.22-30.47L1199.9,401Z" transform="translate(-173.35 -59.03)"/><path class="a8a33c88-050e-4907-9f41-166af4718ffa" d="M663.68,703.43c6,.29,11.86-2,17.47-4.18L935.88,598.82,641.22,456.62,552.46,510s-44.91,30-81.25,53.82C530,599.91,587.67,638.07,636.37,686.66,644.12,694.39,652.75,702.91,663.68,703.43Z" transform="translate(-173.35 -59.03)"/><path class="aade1fd3-de2c-4658-ba0d-dc87f6ef4be2" d="M580.07,664.25c.61-17-27.56-28-43.53-29S351.87,779,351.87,779l-68.46-68.82v24.65l73.51,65.73S518,656.25,532.75,655.3s42.72,4.42,29.57,31.31c-2.29,4.69-8.59,12.32-17.43,21.7h0S579.46,681.22,580.07,664.25Z" transform="translate(-173.35 -59.03)"/><path class="aade1fd3-de2c-4658-ba0d-dc87f6ef4be2" d="M668.35,746.43,471.29,920.56h25.59S655.5,784.17,665.6,774.31s225.59-138,225.59-138l42.22-30.47L1199.9,401l-3.21-19.24L887.75,617.9Z" transform="translate(-173.35 -59.03)"/><polygon class="b7983e1b-826c-40dc-b6d3-6f200e367021" points="131.13 322.71 131.13 360.88 425.01 531.13 672.97 583.14 695.79 569.77 131.13 322.71"/><path class="aade1fd3-de2c-4658-ba0d-dc87f6ef4be2" d="M272,699.18" transform="translate(-173.35 -59.03)"/><line class="a8a33c88-050e-4907-9f41-166af4718ffa" x1="1008.35" y1="753.9" x2="991.35" y2="734.82"/><path class="b989e3f2-e6f6-4fe7-a304-604c3cfced59" d="M315.36,355H283.41v13.7L607.49,569.51,840.28,630l47.47-12.08L1181.7,355V343.11L800.11,209.83S518.84,381.73,514,380.51,315.36,355,315.36,355Z" transform="translate(-173.35 -59.03)"/><path class="b926f445-e05f-472d-b91d-ee4996936449" d="M629.75,545.07c-1.43.75,209.18,60.74,209.18,60.74l-8.07-21.92L754.3,533.75S663.15,527.53,629.75,545.07Z" transform="translate(-173.35 -59.03)"/><polygon class="a7205867-355f-49c4-8323-214ed968c744" points="710.78 546.78 665.19 558.83 445.76 499.57 110.06 295.95 110.06 309.65 434.14 510.49 666.92 570.95 714.4 558.87 1008.35 295.95 1008.35 284.09 710.78 546.78"/><path class="bdfb769d-ee88-4bfd-b8c3-4b7a216a1466" d="M288.59,346.93,619.12,558.6s133.51-66.76,219.81,47.21l40.7-11.39s130.26-249.12,293.08-247.49V317.62l-337-135.14s-211.32,28.4-250.4,155.4C585.27,337.88,418.85,236.21,288.59,346.93Z" transform="translate(-173.35 -59.03)"/><path class="b627717c-5be6-41ea-b844-3d02a97e78af" d="M337.32,345.22c.39-.14,39.53-14,92.51-19.36,41.74-4.26,99.55-3.86,153.06,18.07-41.71-9.52-83-9-114.9-5.71-53.51,5.46-93.17,19.46-93.56,19.6a2.24,2.24,0,0,0,1.5,4.22c.4-.14,39.63-14,92.62-19.38,37.73-3.84,88.62-3.87,137.57,12.39,1.18.65,2.36,1.29,3.53,2a2.3,2.3,0,0,0,1.12.3,2.26,2.26,0,0,0,.92-.22c-7.8-5.76-14.18-10.41-18.71-13.68-56.65-25.86-119.15-26.55-163.6-22-53.52,5.46-93.17,19.45-93.56,19.59a2.24,2.24,0,1,0,1.5,4.22Z" transform="translate(-173.35 -59.03)"/><path class="b627717c-5be6-41ea-b844-3d02a97e78af" d="M499.42,355c-53.52,5.46-93.17,19.46-93.56,19.6a2.24,2.24,0,0,0,1.5,4.22c.39-.14,39.53-14,92.51-19.36,35.11-3.59,81.6-3.89,127.33,9.16-3.33-2.5-6.53-4.88-9.55-7.13C574.82,351.18,532.2,351.68,499.42,355Z" transform="translate(-173.35 -59.03)"/><path class="b627717c-5be6-41ea-b844-3d02a97e78af" d="M435.77,401.1c.39-.13,39.62-14,92.62-19.37,35.44-3.6,82.48-3.85,128.62,9.6q-4.74-3.66-9.29-7.14c-43.39-10.75-86.68-10.29-119.89-6.9-53.52,5.46-93.17,19.46-93.56,19.6a2.23,2.23,0,1,0,1.5,4.21Z" transform="translate(-173.35 -59.03)"/><path class="b627717c-5be6-41ea-b844-3d02a97e78af" d="M471.23,420.21c.39-.14,39.52-14,92.5-19.36,31.3-3.2,71.63-3.77,112.41,5.38q-4-3.17-8-6.24c-38.24-7.32-75.51-6.6-104.89-3.6-53.51,5.46-93.17,19.46-93.56,19.6a2.24,2.24,0,1,0,1.51,4.22Z" transform="translate(-173.35 -59.03)"/><path class="b627717c-5be6-41ea-b844-3d02a97e78af" d="M499.87,440.17c.39-.14,39.53-13.95,92.51-19.36,30-3.06,68.39-3.71,107.47,4.33q-3.72-3-7.42-6c-36.7-6.45-72.25-5.69-100.51-2.8-53.51,5.46-93.16,19.45-93.56,19.59a2.24,2.24,0,0,0,1.51,4.22Z" transform="translate(-173.35 -59.03)"/><path class="b627717c-5be6-41ea-b844-3d02a97e78af" d="M527,458.71c.38-.11,38.85-11.23,91.09-13.94,33.17-1.72,76.73-.19,120.32,12.32q-4-3.4-8-6.79c-41.06-10.39-81.42-11.63-112.65-10-52.75,2.75-91.62,14-92,14.11a2.24,2.24,0,0,0,1.26,4.3Z" transform="translate(-173.35 -59.03)"/><path class="b627717c-5be6-41ea-b844-3d02a97e78af" d="M668.54,472.14c-48.71.47-82.84,11.45-83.18,11.56a2.24,2.24,0,1,0,1.39,4.26c.33-.11,33.81-10.87,81.83-11.34,30.52-.29,71.39,3.66,114.46,20.24q-4.18-3.92-8.47-7.85A318,318,0,0,0,668.54,472.14Z" transform="translate(-173.35 -59.03)"/><path class="b627717c-5be6-41ea-b844-3d02a97e78af" d="M821.25,535.28q-4.82-5.28-10-10.69a274.53,274.53,0,0,0-125.76-32c-45.42-.3-76.23,11-76.54,11.13a2.24,2.24,0,0,0,1.57,4.2c.3-.11,30.37-11.16,74.94-10.85C720,497.35,769.3,504.72,821.25,535.28Z" transform="translate(-173.35 -59.03)"/><path class="f06a3064-d635-489b-9aa8-9f78af2a6353" d="M835.67,182.48s-211.32,28.4-250.4,155.4c0,0,263.1,186.7,276,259.52.13.69.24,1.37.35,2.05l18-5s130.26-249.12,293.08-247.49V317.62Z" transform="translate(-173.35 -59.03)"/><path class="e9322b65-94af-4fb6-b43c-02144b8476ae" d="M879.63,576.18l-40.7,11.4c-86.3-114-219.81-47.22-219.81-47.22L301.34,336.86c-4.3,3.16-8.55,6.5-12.75,10.07L619.12,558.6s133.51-66.76,219.81,47.21l40.7-11.39s130.26-249.12,293.08-247.49V328.7C1009.89,327.07,879.63,576.18,879.63,576.18Z" transform="translate(-173.35 -59.03)"/><path class="b60c3eaf-360a-4cd4-88d5-8c9b4a60c035" d="M585.27,255.6" transform="translate(-173.35 -59.03)"/><path class="a08469be-7af3-4ca7-b4bc-da74b8b49271" d="M586.74,333.38c-2.88,2.73-9,.14-5.77,2.53a1966.09,1966.09,0,0,1,230.08,203c6.14,6.33,12.26,12.74,17.3,20,22.9,32.87,20.07,76.68,14.51,116.35,3.56-5.1,8.86-6.82,10.87-12.71A52.21,52.21,0,0,1,856,686.61c7.87-32.86,10.26-67.62,1.94-100.38.41.5-39.1-55.38-67.49-89C744,442.25,586.74,333.38,586.74,333.38Z" transform="translate(-173.35 -59.03)"/><path class="b627717c-5be6-41ea-b844-3d02a97e78af" d="M629.74,345.35a2.22,2.22,0,0,1-1-.22,2.25,2.25,0,0,1-1-3c.42-.86,10.59-21.56,43-48.63,29.79-24.84,84.87-59.9,178.08-85.84a2.24,2.24,0,1,1,1.2,4.32c-50.9,14.16-122.77,40.36-176.11,84.71-31.86,26.49-42.08,47.18-42.18,47.39A2.24,2.24,0,0,1,629.74,345.35Z" transform="translate(-173.35 -59.03)"/><path class="b627717c-5be6-41ea-b844-3d02a97e78af" d="M665.6,367.94a2.25,2.25,0,0,1-2-3.31c.48-.89,12.16-22.14,46.13-49.78,31.2-25.39,88-61.1,181.15-87a2.24,2.24,0,0,1,1.21,4.32c-92.26,25.67-148.41,60.92-179.27,86-33.4,27.12-45.16,48.45-45.28,48.66A2.23,2.23,0,0,1,665.6,367.94Z" transform="translate(-173.35 -59.03)"/><path class="b627717c-5be6-41ea-b844-3d02a97e78af" d="M709.22,401a2.13,2.13,0,0,1-.77-.14,2.23,2.23,0,0,1-1.33-2.87c.37-1,9.38-25,41.82-55.77,29.78-28.23,85.85-67.6,183.87-94.88a2.24,2.24,0,1,1,1.2,4.31c-53.61,14.92-128.7,43.31-182,93.82-31.68,30-40.61,53.82-40.69,54.06A2.25,2.25,0,0,1,709.22,401Z" transform="translate(-173.35 -59.03)"/><path class="b627717c-5be6-41ea-b844-3d02a97e78af" d="M747.56,429.24l-.26,0a2.23,2.23,0,0,1-2-2.49c.13-1.14,3.66-28.4,33-63.09,26.89-31.78,81.61-76,189.61-106a2.24,2.24,0,1,1,1.2,4.32c-59,16.42-139.41,47.9-187.39,104.61-28.48,33.67-31.94,60.46-32,60.73A2.24,2.24,0,0,1,747.56,429.24Z" transform="translate(-173.35 -59.03)"/><path class="b627717c-5be6-41ea-b844-3d02a97e78af" d="M781.66,457.16h-.2a2.23,2.23,0,0,1-2-2.42c.12-1.32,3.15-32.79,32-71.78,47.92-64.89,129.09-98.29,188.73-114.89a2.24,2.24,0,1,1,1.2,4.31c-58.86,16.38-138.93,49.28-186.13,113-28.18,38-31.26,69.46-31.29,69.78A2.24,2.24,0,0,1,781.66,457.16Z" transform="translate(-173.35 -59.03)"/><path class="b627717c-5be6-41ea-b844-3d02a97e78af" d="M817.92,485.82a2.39,2.39,0,0,1-1.31-.39c-.8-.52-2.93-1.89.59-18,5.56-25.51,42.61-154.12,226.23-181a2.24,2.24,0,0,1,.65,4.43c-109.17,16-165.16,68.85-192.91,110.38-26.26,39.29-31.9,74.86-31.46,80.82l.15.18a2.24,2.24,0,0,1-.48,3.13A2.42,2.42,0,0,1,817.92,485.82Z" transform="translate(-173.35 -59.03)"/><path class="b627717c-5be6-41ea-b844-3d02a97e78af" d="M849.32,518.33a2.32,2.32,0,0,1-1.28-.39c-1-.62-2.43-1.57.37-14.44,3.82-17.48,42.85-171.61,236.66-200a2.24,2.24,0,1,1,.65,4.43C980.65,323.33,922.55,377,892.31,419.33c-32.16,45-41.25,88.57-41.09,95.34l0,0a2.25,2.25,0,0,1-.47,3.13A2.49,2.49,0,0,1,849.32,518.33Z" transform="translate(-173.35 -59.03)"/><path class="b627717c-5be6-41ea-b844-3d02a97e78af" d="M871.59,540.13a2.27,2.27,0,0,1-1.27-.38c-1.43-.92-1.52-2.56-.42-7.61,4-18.29,21.24-64.43,58-108.21,49-58.39,114.68-94,195.12-105.75a2.24,2.24,0,0,1,.65,4.43C1018.35,338,956.16,393.76,922.54,437.79c-35.61,46.63-48.47,91.92-48.91,98.91a2.25,2.25,0,0,1-.59,2.95A2.47,2.47,0,0,1,871.59,540.13Z" transform="translate(-173.35 -59.03)"/><circle class="b7983e1b-826c-40dc-b6d3-6f200e367021" cx="796.9" cy="224.24" r="18.34" transform="translate(-98.51 570.14) rotate(-45)"/><circle class="b84a5ada-8a6c-4c8c-af5c-43e8e84a9a43" cx="801.51" cy="216.37" r="8.23" transform="translate(233.43 887.7) rotate(-76.72)"/><circle class="b7983e1b-826c-40dc-b6d3-6f200e367021" cx="646.5" cy="114.12" r="18.34"/><circle class="b84a5ada-8a6c-4c8c-af5c-43e8e84a9a43" cx="824.47" cy="165.28" r="8.23" transform="translate(300.84 870.69) rotate(-76.72)"/><circle class="b7983e1b-826c-40dc-b6d3-6f200e367021" cx="619.93" cy="132.46" r="18.34"/><circle class="b84a5ada-8a6c-4c8c-af5c-43e8e84a9a43" cx="797.9" cy="183.62" r="8.23" transform="translate(-69.49 558.95) rotate(-45)"/><circle class="b7983e1b-826c-40dc-b6d3-6f200e367021" cx="646.5" cy="192.12" r="18.34"/><circle class="b84a5ada-8a6c-4c8c-af5c-43e8e84a9a43" cx="824.47" cy="243.28" r="8.23" transform="matrix(0.23, -0.97, 0.97, 0.23, 224.92, 930.77)"/><circle class="b7983e1b-826c-40dc-b6d3-6f200e367021" cx="669.46" cy="218.77" r="18.34"/><circle class="b84a5ada-8a6c-4c8c-af5c-43e8e84a9a43" cx="847.43" cy="269.93" r="8.23" transform="matrix(0.23, -0.97, 0.97, 0.23, 216.67, 973.64)"/><circle class="b7983e1b-826c-40dc-b6d3-6f200e367021" cx="858.06" cy="308.66" r="18.34" transform="translate(-226.16 292.83) rotate(-22.5)"/><circle class="b84a5ada-8a6c-4c8c-af5c-43e8e84a9a43" cx="862.67" cy="300.78" r="8.23" transform="matrix(0.23, -0.97, 0.97, 0.23, 198.38, 1012.24)"/><circle class="b7983e1b-826c-40dc-b6d3-6f200e367021" cx="869.15" cy="341.42" r="18.34" transform="translate(163.82 1049.85) rotate(-76.72)"/><circle class="b84a5ada-8a6c-4c8c-af5c-43e8e84a9a43" cx="873.76" cy="333.55" r="8.23" transform="translate(175.03 1048.28) rotate(-76.72)"/><circle class="b7983e1b-826c-40dc-b6d3-6f200e367021" cx="700.41" cy="317.14" r="18.34"/><circle class="b84a5ada-8a6c-4c8c-af5c-43e8e84a9a43" cx="878.38" cy="368.3" r="8.23" transform="translate(-176.51 669.95) rotate(-45)"/><circle class="b7983e1b-826c-40dc-b6d3-6f200e367021" cx="703.04" cy="353.49" r="18.34"/><circle class="b84a5ada-8a6c-4c8c-af5c-43e8e84a9a43" cx="881.01" cy="404.65" r="8.23" transform="translate(-201.44 682.46) rotate(-45)"/><circle class="b7983e1b-826c-40dc-b6d3-6f200e367021" cx="705.63" cy="389.85" r="18.34"/><circle class="b84a5ada-8a6c-4c8c-af5c-43e8e84a9a43" cx="883.6" cy="441" r="8.23" transform="translate(78.03 1140.62) rotate(-76.72)"/><circle class="b7983e1b-826c-40dc-b6d3-6f200e367021" cx="708.23" cy="426.2" r="18.34"/><circle class="b84a5ada-8a6c-4c8c-af5c-43e8e84a9a43" cx="886.19" cy="477.36" r="8.23" transform="translate(44.65 1171.14) rotate(-76.72)"/><circle class="b7983e1b-826c-40dc-b6d3-6f200e367021" cx="887.49" cy="516.63" r="18.34" transform="translate(-303.5 319.93) rotate(-22.5)"/><circle class="b84a5ada-8a6c-4c8c-af5c-43e8e84a9a43" cx="892.1" cy="508.76" r="8.23" transform="translate(18.63 1201.08) rotate(-76.72)"/><circle class="b7983e1b-826c-40dc-b6d3-6f200e367021" cx="715.89" cy="492.9" r="18.34"/><circle class="b84a5ada-8a6c-4c8c-af5c-43e8e84a9a43" cx="893.86" cy="544.06" r="8.23" transform="translate(-14.37 1229.98) rotate(-76.72)"/><circle class="b7983e1b-826c-40dc-b6d3-6f200e367021" cx="894.74" cy="588.47" r="18.34" transform="translate(-327.4 746.01) rotate(-45)"/><circle class="b84a5ada-8a6c-4c8c-af5c-43e8e84a9a43" cx="899.35" cy="580.6" r="8.23" transform="translate(-320.48 746.96) rotate(-45)"/><circle class="b7983e1b-826c-40dc-b6d3-6f200e367021" cx="1024.94" cy="570.13" r="18.34" transform="translate(124.64 1431.48) rotate(-80.78)"/><circle class="b84a5ada-8a6c-4c8c-af5c-43e8e84a9a43" cx="1029.55" cy="562.26" r="8.23" transform="translate(-269.38 833.65) rotate(-45)"/><circle class="a8a33c88-050e-4907-9f41-166af4718ffa" cx="909.46" cy="623.13" r="18.34" transform="translate(-24.65 1362) rotate(-80.78)"/><circle class="b7983e1b-826c-40dc-b6d3-6f200e367021" cx="914.08" cy="615.25" r="8.23" transform="translate(-68.08 1304.49) rotate(-76.72)"/><circle class="a8a33c88-050e-4907-9f41-166af4718ffa" cx="927" cy="656.89" r="18.34" transform="translate(-43.25 1407.67) rotate(-80.78)"/><circle class="b7983e1b-826c-40dc-b6d3-6f200e367021" cx="931.62" cy="649.02" r="8.23" transform="translate(-87.44 1347.57) rotate(-76.72)"/><circle class="a8a33c88-050e-4907-9f41-166af4718ffa" cx="963.68" cy="656.89" r="18.34" transform="translate(-12.45 1443.88) rotate(-80.78)"/><circle class="b7983e1b-826c-40dc-b6d3-6f200e367021" cx="968.3" cy="649.02" r="8.23" transform="translate(-348.67 815.76) rotate(-45)"/><circle class="a8a33c88-050e-4907-9f41-166af4718ffa" cx="824.01" cy="579.53" r="18.34"/><circle class="b7983e1b-826c-40dc-b6d3-6f200e367021" cx="1001.98" cy="630.68" r="8.23" transform="translate(-15.39 1401.93) rotate(-76.72)"/><circle class="a8a33c88-050e-4907-9f41-166af4718ffa" cx="838.74" cy="545.76" r="18.34"/><circle class="b7983e1b-826c-40dc-b6d3-6f200e367021" cx="1016.71" cy="596.91" r="8.23" transform="translate(-297.65 834.72) rotate(-45)"/></g></svg>