<svg id="visual" viewBox="0 0 900 600" width="900" height="600" xmlns="http://www.w3.org/2000/svg" xmlns:xlink="http://www.w3.org/1999/xlink" version="1.1"><path d="M0 217L82 283L164 169L245 151L327 103L409 289L491 157L573 133L655 193L736 73L818 199L900 169L900 0L818 0L736 0L655 0L573 0L491 0L409 0L327 0L245 0L164 0L82 0L0 0Z" fill="#f2f0e6"></path><path d="M0 325L82 433L164 295L245 325L327 349L409 397L491 379L573 307L655 343L736 289L818 289L900 319L900 167L818 197L736 71L655 191L573 131L491 155L409 287L327 101L245 149L164 167L82 281L0 215Z" fill="#edebde"></path><path d="M0 457L82 493L164 439L245 433L327 481L409 463L491 427L573 451L655 505L736 451L818 421L900 451L900 317L818 287L736 287L655 341L573 305L491 377L409 395L327 347L245 323L164 293L82 431L0 323Z" fill="#e9e6d7"></path><path d="M0 499L82 553L164 541L245 517L327 547L409 499L491 559L573 523L655 565L736 505L818 505L900 559L900 449L818 419L736 449L655 503L573 449L491 425L409 461L327 479L245 431L164 437L82 491L0 455Z" fill="#e4e1d0"></path><path d="M0 601L82 601L164 601L245 601L327 601L409 601L491 601L573 601L655 601L736 601L818 601L900 601L900 557L818 503L736 503L655 563L573 521L491 557L409 497L327 545L245 515L164 539L82 551L0 497Z" fill="#e0dcc9"></path></svg>