<?xml version="1.0" encoding="utf-8"?>
<!-- Generator: Adobe Illustrator 25.2.0, SVG Export Plug-In . SVG Version: 6.00 Build 0)  -->
<svg version="1.1" id="Layer_1" xmlns="http://www.w3.org/2000/svg" xmlns:xlink="http://www.w3.org/1999/xlink" x="0px" y="0px"
	 viewBox="0 0 6046.6 2671.7" style="enable-background:new 0 0 6046.6 2671.7;" xml:space="preserve">
<style type="text/css">
	.st0{opacity:0.45;fill-rule:evenodd;clip-rule:evenodd;fill:#F1F0E9;enable-background:new    ;}
	.st1{fill:#DDE1D1;}
	.st2{fill:#D0D4C4;}
	.st3{fill:#B2A427;}
	.st4{fill:#DECC30;}
</style>
<g id="a54a46b8-e48a-457d-8d72-947307c280cf">
	<path class="st0" d="M6046.6,913.1c-140.5,129.8-386.6,334.6-739.3,513.3c-1262.9,640.1-2238.7,107.5-3548.5,583.3
		c-148.8,54.1-560.9,215.2-1148,295.6C408.3,2333,204.4,2348.6,0,2352V1060.9c168,64.8,325.3,112.7,471.8,147.1
		c216.9,50.9,325.7,83.9,407.9,66.3c243.5-52.1,266.5-315.8,523.6-578.3c297.7-303.9,730.2-423,1072.3-348.6
		c279,60.7,231.2,192,607.8,319c173.2,58.4,670.4,225.9,1003.8-57.5c116.3-98.8,102.3-160.3,263.5-297.8
		C4558.5,134,4760.3,77.4,4859.3,49.6C5375.5-95,5889.2,115.8,6037.9,182L6046.6,913.1z"/>
	<path class="st0" d="M6046.6,1232.8c-140.5,129.8-386.6,334.6-739.3,513.3c-1262.9,640.1-2238.7,107.5-3548.5,583.3
		c-148.8,54.1-560.9,215.2-1148,295.5c-202.5,27.7-406.4,43.3-610.8,46.7V1380.6c168,64.8,325.3,112.7,471.8,147.1
		c216.9,50.9,325.7,83.9,407.9,66.3c243.5-52.1,266.5-315.8,523.6-578.3c297.8-303.9,730.2-423,1072.3-348.6
		c279,60.7,231.2,192.1,607.8,319c173.2,58.4,670.4,225.9,1003.8-57.5c116.3-98.8,102.3-160.3,263.5-297.8
		c207.7-177.2,409.5-233.8,508.5-261.5c516.2-144.6,1029.9,66.1,1178.6,132.4L6046.6,1232.8z"/>
</g>
<g>
	<path class="st1" d="M5820.5,249.6c-0.8-0.6-0.8-1.9,0-2.5c1.1-0.8,2.4-2.2,3.5-4.4c3.7-7.4-7.9-23.2-24.9-23.2
		c-8.5,0-18.1,3.4-25.5,8.7c5.3-7.5,8.7-17.1,8.7-25.5c0-17-15.8-28.6-23.2-24.9c-2.2,1.1-3.6,2.4-4.4,3.5c-0.6,0.8-1.9,0.8-2.5,0
		c-0.8-1.1-2.2-2.4-4.4-3.5c-7.4-3.7-23.2,7.9-23.2,24.9c0,8.5,3.4,18.1,8.7,25.5c-7.5-5.3-17.1-8.7-25.5-8.7
		c-17,0-28.6,15.8-24.9,23.2c1.1,2.2,2.4,3.6,3.5,4.4c0.8,0.6,0.8,1.9,0,2.5c-1.1,0.8-2.4,2.2-3.5,4.4c-3.7,7.4,7.9,23.2,24.9,23.2
		c8.5,0,18.1-3.4,25.5-8.7c-5.3,7.5-8.7,17.1-8.7,25.5c0,17,15.8,28.6,23.2,24.9c2.2-1.1,3.6-2.4,4.4-3.5c0.6-0.8,1.9-0.8,2.5,0
		c0.8,1.1,2.2,2.4,4.4,3.5c7.4,3.7,23.2-7.9,23.2-24.9c0-8.5-3.4-18.1-8.7-25.5c7.5,5.3,17.1,8.7,25.5,8.7c17,0,28.6-15.8,24.9-23.2
		C5822.9,251.8,5821.6,250.5,5820.5,249.6z"/>
	<path class="st2" d="M5768.5,248.6c-0.2-0.1-0.2-0.4,0-0.6c0.2-0.2,0.5-0.5,0.8-1c0.8-1.7-1.8-5.2-5.6-5.2c-1.9,0-4.1,0.8-5.7,1.9
		c1.2-1.7,1.9-3.8,1.9-5.7c0-3.8-3.6-6.4-5.2-5.6c-0.5,0.2-0.8,0.5-1,0.8c-0.1,0.2-0.4,0.2-0.6,0c-0.2-0.2-0.5-0.5-1-0.8
		c-1.7-0.8-5.2,1.8-5.2,5.6c0,1.9,0.8,4.1,1.9,5.7c-1.7-1.2-3.8-1.9-5.7-1.9c-3.8,0-6.4,3.6-5.6,5.2c0.2,0.5,0.5,0.8,0.8,1
		c0.2,0.1,0.2,0.4,0,0.6c-0.2,0.2-0.5,0.5-0.8,1c-0.8,1.7,1.8,5.2,5.6,5.2c1.9,0,4.1-0.8,5.7-1.9c-1.2,1.7-1.9,3.8-1.9,5.7
		c0,3.8,3.6,6.4,5.2,5.6c0.5-0.2,0.8-0.5,1-0.8c0.1-0.2,0.4-0.2,0.6,0c0.2,0.2,0.5,0.5,1,0.8c1.7,0.8,5.2-1.8,5.2-5.6
		c0-1.9-0.8-4.1-1.9-5.7c1.7,1.2,3.8,1.9,5.7,1.9c3.8,0,6.4-3.6,5.6-5.2C5769,249.1,5768.7,248.8,5768.5,248.6z"/>
	<circle class="st3" cx="5753.4" cy="248.4" r="9.9"/>
	<path class="st4" d="M5752.5,241.5c0,1.2-1,2.2-2.2,2.2s-2.2-1-2.2-2.2s1-2.2,2.2-2.2S5752.5,240.3,5752.5,241.5z"/>
	<circle class="st4" cx="5755.1" cy="241" r="2.2"/>
	<circle class="st4" cx="5755.3" cy="245.6" r="2.2"/>
	<path class="st4" d="M5753.5,250.7c0,1.2-1,2.2-2.2,2.2s-2.2-1-2.2-2.2c0-1.2,1-2.2,2.2-2.2S5753.5,249.5,5753.5,250.7z"/>
	<path class="st4" d="M5758.1,250.3c0,1.2-1,2.2-2.2,2.2c-1.2,0-2.2-1-2.2-2.2c0-1.2,1-2.2,2.2-2.2
		C5757.1,248,5758.1,249,5758.1,250.3z"/>
	<circle class="st4" cx="5753.3" cy="254.8" r="2.2"/>
	<circle class="st4" cx="5757.8" cy="254.4" r="2.2"/>
	<circle class="st4" cx="5746.2" cy="246.1" r="2.2"/>
	<circle class="st4" cx="5746.7" cy="250.7" r="2.2"/>
	<path class="st4" d="M5751.1,254.6c0,1.2-1,2.2-2.2,2.2c-1.2,0-2.2-1-2.2-2.2c0-1.2,1-2.2,2.2-2.2
		C5750.1,252.4,5751.1,253.4,5751.1,254.6z"/>
	<path class="st4" d="M5762.8,249.1c0,1.2-1,2.2-2.2,2.2c-1.2,0-2.2-1-2.2-2.2s1-2.2,2.2-2.2
		C5761.8,246.8,5762.8,247.8,5762.8,249.1z"/>
	<circle class="st4" cx="5750.8" cy="246.1" r="2.2"/>
	<circle class="st4" cx="5759.5" cy="243.9" r="2.2"/>
</g>
<g>
	<path class="st1" d="M213.6,2489.3c-0.8-0.6-0.8-1.9,0-2.5c1.1-0.8,2.4-2.2,3.5-4.4c3.7-7.4-7.9-23.2-24.9-23.2
		c-8.5,0-18.1,3.4-25.5,8.7c5.3-7.5,8.7-17.1,8.7-25.5c0-17-15.8-28.6-23.2-24.9c-2.2,1.1-3.6,2.4-4.4,3.5c-0.6,0.8-1.9,0.8-2.5,0
		c-0.8-1.1-2.2-2.4-4.4-3.5c-7.4-3.7-23.2,7.9-23.2,24.9c0,8.5,3.4,18.1,8.7,25.5c-7.5-5.3-17.1-8.7-25.5-8.7
		c-17,0-28.6,15.8-24.9,23.2c1.1,2.2,2.4,3.6,3.5,4.4c0.8,0.6,0.8,1.9,0,2.5c-1.1,0.8-2.4,2.2-3.5,4.4c-3.7,7.4,7.9,23.2,24.9,23.2
		c8.5,0,18.1-3.4,25.5-8.7c-5.3,7.5-8.7,17.1-8.7,25.5c0,17,15.8,28.6,23.2,24.9c2.2-1.1,3.6-2.4,4.4-3.5c0.6-0.8,1.9-0.8,2.5,0
		c0.8,1.1,2.2,2.4,4.4,3.5c7.4,3.7,23.2-7.9,23.2-24.9c0-8.5-3.4-18.1-8.7-25.5c7.5,5.3,17.1,8.7,25.5,8.7c17,0,28.6-15.8,24.9-23.2
		C216,2491.5,214.7,2490.1,213.6,2489.3z"/>
	<path class="st2" d="M161.6,2488.3c-0.2-0.1-0.2-0.4,0-0.6c0.2-0.2,0.5-0.5,0.8-1c0.8-1.7-1.8-5.2-5.6-5.2c-1.9,0-4.1,0.8-5.7,1.9
		c1.2-1.7,1.9-3.8,1.9-5.7c0-3.8-3.6-6.4-5.2-5.6c-0.5,0.2-0.8,0.5-1,0.8c-0.1,0.2-0.4,0.2-0.6,0c-0.2-0.2-0.5-0.5-1-0.8
		c-1.7-0.8-5.2,1.8-5.2,5.6c0,1.9,0.8,4.1,1.9,5.7c-1.7-1.2-3.8-1.9-5.7-1.9c-3.8,0-6.4,3.6-5.6,5.2c0.2,0.5,0.5,0.8,0.8,1
		c0.2,0.1,0.2,0.4,0,0.6c-0.2,0.2-0.5,0.5-0.8,1c-0.8,1.7,1.8,5.2,5.6,5.2c1.9,0,4.1-0.8,5.7-1.9c-1.2,1.7-1.9,3.8-1.9,5.7
		c0,3.8,3.6,6.4,5.2,5.6c0.5-0.2,0.8-0.5,1-0.8c0.1-0.2,0.4-0.2,0.6,0c0.2,0.2,0.5,0.5,1,0.8c1.7,0.8,5.2-1.8,5.2-5.6
		c0-1.9-0.8-4.1-1.9-5.7c1.7,1.2,3.8,1.9,5.7,1.9c3.8,0,6.4-3.6,5.6-5.2C162.1,2488.8,161.8,2488.5,161.6,2488.3z"/>
	<circle class="st3" cx="146.5" cy="2488" r="9.9"/>
	<path class="st4" d="M145.6,2481.1c0,1.2-1,2.2-2.2,2.2c-1.2,0-2.2-1-2.2-2.2s1-2.2,2.2-2.2
		C144.6,2478.9,145.6,2479.9,145.6,2481.1z"/>
	<circle class="st4" cx="148.2" cy="2480.6" r="2.2"/>
	<circle class="st4" cx="148.4" cy="2485.2" r="2.2"/>
	<path class="st4" d="M146.6,2490.3c0,1.2-1,2.2-2.2,2.2c-1.2,0-2.2-1-2.2-2.2c0-1.2,1-2.2,2.2-2.2
		C145.6,2488.1,146.6,2489.1,146.6,2490.3z"/>
	<path class="st4" d="M151.2,2489.9c0,1.2-1,2.2-2.2,2.2c-1.2,0-2.2-1-2.2-2.2s1-2.2,2.2-2.2
		C150.2,2487.7,151.2,2488.7,151.2,2489.9z"/>
	<circle class="st4" cx="146.4" cy="2494.4" r="2.2"/>
	<circle class="st4" cx="150.9" cy="2494.1" r="2.2"/>
	<circle class="st4" cx="139.3" cy="2485.7" r="2.2"/>
	<circle class="st4" cx="139.8" cy="2490.3" r="2.2"/>
	<path class="st4" d="M144.3,2494.2c0,1.2-1,2.2-2.2,2.2c-1.2,0-2.2-1-2.2-2.2c0-1.2,1-2.2,2.2-2.2
		C143.2,2492,144.3,2493,144.3,2494.2z"/>
	<path class="st4" d="M155.9,2488.7c0,1.2-1,2.2-2.2,2.2c-1.2,0-2.2-1-2.2-2.2s1-2.2,2.2-2.2
		C154.9,2486.4,155.9,2487.4,155.9,2488.7z"/>
	<circle class="st4" cx="143.9" cy="2485.7" r="2.2"/>
	<circle class="st4" cx="152.6" cy="2483.5" r="2.2"/>
</g>
<g>
	<path class="st1" d="M3208.1,1432.7c-1.1-0.8-1.1-2.5,0-3.4c1.5-1.1,3.2-2.9,4.7-5.9c4.9-9.8-10.6-31-33.2-31
		c-11.3,0-24.1,4.5-34.1,11.6c7.1-10,11.6-22.8,11.6-34.1c0-22.7-21.1-38.1-31-33.2c-2.9,1.5-4.7,3.2-5.9,4.7
		c-0.8,1.1-2.5,1.1-3.4,0c-1.1-1.5-2.9-3.2-5.9-4.7c-9.8-4.9-31,10.6-31,33.2c0,11.3,4.5,24.1,11.6,34.1
		c-10-7.1-22.8-11.6-34.1-11.6c-22.7,0-38.1,21.1-33.2,31c1.5,2.9,3.2,4.7,4.7,5.9c1.1,0.8,1.1,2.5,0,3.4c-1.5,1.1-3.2,2.9-4.7,5.9
		c-4.9,9.8,10.6,31,33.2,31c11.3,0,24.1-4.5,34.1-11.6c-7.1,10-11.6,22.8-11.6,34.1c0,22.7,21.1,38.1,31,33.2
		c2.9-1.5,4.7-3.2,5.9-4.7c0.8-1.1,2.5-1.1,3.4,0c1.1,1.5,2.9,3.2,5.9,4.7c9.8,4.9,31-10.6,31-33.2c0-11.3-4.5-24.1-11.6-34.1
		c10,7.1,22.8,11.6,34.1,11.6c22.7,0,38.1-21.1,33.2-31C3211.3,1435.6,3209.5,1433.8,3208.1,1432.7z"/>
	<path class="st2" d="M3138.6,1431.4c-0.3-0.2-0.3-0.6,0-0.8c0.3-0.3,0.7-0.7,1-1.3c1.1-2.2-2.4-7-7.5-7c-2.5,0-5.4,1-7.6,2.6
		c1.6-2.2,2.6-5.1,2.6-7.6c0-5.1-4.7-8.6-7-7.5c-0.7,0.3-1.1,0.7-1.3,1c-0.2,0.3-0.6,0.3-0.8,0c-0.3-0.3-0.7-0.7-1.3-1
		c-2.2-1.1-7,2.4-7,7.5c0,2.5,1,5.4,2.6,7.6c-2.2-1.6-5.1-2.6-7.6-2.6c-5.1,0-8.6,4.7-7.5,7c0.3,0.7,0.7,1.1,1,1.3
		c0.3,0.2,0.3,0.6,0,0.8c-0.3,0.3-0.7,0.7-1,1.3c-1.1,2.2,2.4,7,7.5,7c2.5,0,5.4-1,7.6-2.6c-1.6,2.2-2.6,5.1-2.6,7.6
		c0,5.1,4.7,8.6,7,7.5c0.7-0.3,1.1-0.7,1.3-1c0.2-0.3,0.6-0.3,0.8,0c0.3,0.3,0.7,0.7,1.3,1c2.2,1.1,7-2.4,7-7.5c0-2.5-1-5.4-2.6-7.6
		c2.2,1.6,5.1,2.6,7.6,2.6c5.1,0,8.6-4.7,7.5-7C3139.3,1432.1,3138.9,1431.6,3138.6,1431.4z"/>
	<circle class="st3" cx="3118.5" cy="1431" r="13.2"/>
	<path class="st4" d="M3117.3,1421.9c0,1.7-1.3,3-3,3s-3-1.3-3-3c0-1.7,1.3-3,3-3S3117.3,1420.2,3117.3,1421.9z"/>
	<circle class="st4" cx="3120.7" cy="1421.2" r="3"/>
	<circle class="st4" cx="3121" cy="1427.3" r="3"/>
	<path class="st4" d="M3118.6,1434.2c0,1.7-1.3,3-3,3s-3-1.3-3-3c0-1.7,1.3-3,3-3S3118.6,1432.5,3118.6,1434.2z"/>
	<path class="st4" d="M3124.8,1433.6c0,1.7-1.3,3-3,3s-3-1.3-3-3c0-1.7,1.3-3,3-3S3124.8,1431.9,3124.8,1433.6z"/>
	<circle class="st4" cx="3118.3" cy="1439.6" r="3"/>
	<circle class="st4" cx="3124.4" cy="1439.1" r="3"/>
	<circle class="st4" cx="3108.9" cy="1428" r="3"/>
	<circle class="st4" cx="3109.5" cy="1434.1" r="3"/>
	<path class="st4" d="M3115.5,1439.4c0,1.7-1.3,3-3,3s-3-1.3-3-3s1.3-3,3-3S3115.5,1437.7,3115.5,1439.4z"/>
	<path class="st4" d="M3131.1,1431.9c0,1.7-1.3,3-3,3c-1.7,0-3-1.3-3-3c0-1.7,1.3-3,3-3C3129.7,1428.9,3131.1,1430.3,3131.1,1431.9z
		"/>
	<circle class="st4" cx="3115" cy="1428" r="3"/>
	<circle class="st4" cx="3126.6" cy="1425" r="3"/>
</g>
</svg>
