<svg id="bed80ab0-14ee-47a7-89bf-789a30b2bdf4" data-name="Layer 1" xmlns="http://www.w3.org/2000/svg" xmlns:xlink="http://www.w3.org/1999/xlink" viewBox="0 0 1290.1 1250.75"><defs><style>.a5462409-01cb-4d4e-befa-06c23dd5b7e6{fill:none;}.b84b9d91-1448-4848-8414-0420dcb5de6b{fill:#faf4ab;}.b8f42b1f-acee-47c3-a7c1-f66872ad16e4{fill:#dfefe5;}.f90e2774-4c0d-4de7-8cd2-41ba9163f3e0{fill:url(#b79fb21d-b5bb-4185-a27a-f55a7c13574c);}.e639e26f-802e-45bd-8bb9-aeb03614966a{fill:url(#a2459005-1f21-4cef-b8d7-aa49458f25b2);}.be62a5fc-2def-40ad-a53f-a89371cdb825{fill:url(#f4c816ff-8e5d-4bf2-a78a-f501ccf05da2);}.af2782f3-6e74-4d55-a64f-e9d065537801{fill:url(#a79606d3-388d-4122-9d40-9fd81aaaf528);}.f7dbda57-8c16-4162-8cdb-397fe205bf23{fill:#e6e6e6;}.ea869587-4967-4fa2-9007-dda97e51e20a{fill:url(#bbc077f6-b043-4763-866d-8f4ec470c13d);}.a6db871e-3bc8-461e-91d6-dd69be37d736{fill:url(#b09ba897-9694-4466-bba2-624fa962b009);}.ae2fa6d2-e482-4a82-8410-6ad8e70e0f5f{fill:url(#ba08d7a3-935f-4c9d-83bb-b20766bf3b37);}.aaebd3e6-cd35-4f8d-8176-0709a3e8204b{fill:#f2f2f2;}.ae990ff8-e7be-49b9-ae24-1d09b570cb7f{fill:url(#afa6e937-8037-42cb-aa0d-d3f38117087a);}.bd9617d0-8f0e-4a2d-94f4-6d0cb2411432{fill:url(#e7e26ad6-4c46-4b4a-a27d-e7bf3fd7c2e1);}.bd8cd024-f346-49b0-96a6-4e60ad8cca03{fill:#b3b3b3;}.b4adc82d-23b5-404c-a16b-861ae72d3dec{fill:url(#b8f277ee-5530-4d1a-bad3-729c780b7127);}.b25f0413-bf63-4fd3-881f-5a9b04ff6d8a{clip-path:url(#e74eabae-b7e7-40c8-858f-c0aa82646e1e);}.be5dd027-27ee-47cd-8ba0-2fa5bf0ecb8b{fill:url(#ff5a625a-53ea-489b-b2df-78f5fc27a86f);}</style><linearGradient id="b79fb21d-b5bb-4185-a27a-f55a7c13574c" x1="-7789.14" y1="4588.88" x2="-7566.42" y2="4371.91" gradientTransform="matrix(-0.72, 0.7, 0.7, 0.72, -7943.02, 3316.71)" gradientUnits="userSpaceOnUse"><stop offset="0" stop-color="#3e00bf"/><stop offset="1" stop-color="#94f4ff"/></linearGradient><linearGradient id="a2459005-1f21-4cef-b8d7-aa49458f25b2" x1="-11759.33" y1="1393.71" x2="-11430.65" y2="1393.71" gradientTransform="matrix(-1, 0, 0, 1, -10951.4, 0)" gradientUnits="userSpaceOnUse"><stop offset="0" stop-color="#00aa01"/><stop offset="1" stop-color="#99ff94"/></linearGradient><linearGradient id="f4c816ff-8e5d-4bf2-a78a-f501ccf05da2" x1="3028.9" y1="-5949.76" x2="3251.62" y2="-6166.73" gradientTransform="translate(-5159.81 3316.71) rotate(44.25)" xlink:href="#b79fb21d-b5bb-4185-a27a-f55a7c13574c"/><linearGradient id="a79606d3-388d-4122-9d40-9fd81aaaf528" x1="3343.49" y1="1393.71" x2="3672.17" y2="1393.71" gradientTransform="translate(-2151.43)" xlink:href="#a2459005-1f21-4cef-b8d7-aa49458f25b2"/><linearGradient id="bbc077f6-b043-4763-866d-8f4ec470c13d" x1="1277.4" y1="1201.94" x2="1610.8" y2="1221.38" gradientUnits="userSpaceOnUse"><stop offset="0" stop-color="#3e00bf"/><stop offset="1" stop-color="#af15ff"/></linearGradient><linearGradient id="b09ba897-9694-4466-bba2-624fa962b009" x1="1281.77" y1="1168.18" x2="1602.27" y2="1168.18" gradientUnits="userSpaceOnUse"><stop offset="0" stop-color="#ccc"/><stop offset="0.24" stop-color="#d8d8d8"/><stop offset="0.59" stop-color="#e3e3e3"/><stop offset="1" stop-color="#e6e6e6"/></linearGradient><linearGradient id="ba08d7a3-935f-4c9d-83bb-b20766bf3b37" x1="1341.19" y1="1205.51" x2="1602.27" y2="1205.51" gradientUnits="userSpaceOnUse"><stop offset="0" stop-color="#f2f2f2"/><stop offset="1" stop-color="#e6e6e6"/></linearGradient><linearGradient id="afa6e937-8037-42cb-aa0d-d3f38117087a" x1="1353.04" y1="846.35" x2="1559.89" y2="846.35" gradientTransform="matrix(1, 0.06, -0.06, 1, -3.88, 325.24)" gradientUnits="userSpaceOnUse"><stop offset="0" stop-color="#f2b680"/><stop offset="1" stop-color="#fbf49a"/></linearGradient><linearGradient id="e7e26ad6-4c46-4b4a-a27d-e7bf3fd7c2e1" x1="1242.44" y1="1112.62" x2="1383.22" y2="1112.62" gradientTransform="matrix(1, 0, 0, 1, 0, 0)" xlink:href="#afa6e937-8037-42cb-aa0d-d3f38117087a"/><linearGradient id="b8f277ee-5530-4d1a-bad3-729c780b7127" x1="1125.61" y1="880.2" x2="1274.3" y2="880.2" gradientTransform="matrix(1, 0, 0, 1, 0, 0)" xlink:href="#afa6e937-8037-42cb-aa0d-d3f38117087a"/><clipPath id="e74eabae-b7e7-40c8-858f-c0aa82646e1e" transform="translate(-354.95 -397)"><path class="a5462409-01cb-4d4e-befa-06c23dd5b7e6" d="M1194,1024c51.15,39.45-16.39,163.2,46.53,251.68,28.36,39.89,70.79,92.41,70.79,92.41s47.19,28.19,55,81.93-17.71,93.29,0,145.5c12.45,36.71-618.06,29.5-617.4,17,2.49-47.3,80-340.81,80-340.81S1099.7,951.31,1194,1024Z"/></clipPath><linearGradient id="ff5a625a-53ea-489b-b2df-78f5fc27a86f" x1="1239.15" y1="1628.17" x2="1261.15" y2="1628.17" xlink:href="#ba08d7a3-935f-4c9d-83bb-b20766bf3b37"/></defs><circle class="b84b9d91-1448-4848-8414-0420dcb5de6b" cx="694.05" cy="521" r="521"/><ellipse class="b8f42b1f-acee-47c3-a7c1-f66872ad16e4" cx="645.05" cy="1220" rx="645.05" ry="30.75"/><path class="f90e2774-4c0d-4de7-8cd2-41ba9163f3e0" d="M832.28,1315.72s18.71-48.42-9-125.72l-29.11,28.36s-1.89-67.7-60.17-148.18l-16.18,32.23s-108.9-108-190.29-122.06c0,0,60,159.29,85.52,194.85s-42.81,12.42-42.81,12.42,85.12,83.61,124.89,90.62l-44.63,10.54S794.29,1421.37,832.28,1315.72Z" transform="translate(-354.95 -397)"/><path class="e639e26f-802e-45bd-8bb9-aeb03614966a" d="M804.38,1468.59S751.93,1391,700.15,1353s0,32.77-10.48,45.88S578.25,1332,558.58,1256s-27.52,81.27-13.1,121.9-11.8-2.62-56.37,11.15,73.41,53.09,125.84,50.46-13.11,62.92-60.3,64.23,57.68,24.91,116.67-23.59c0,0-13.11,65.54,72.75,71.44S804.38,1468.59,804.38,1468.59Z" transform="translate(-354.95 -397)"/><path class="be62a5fc-2def-40ad-a53f-a89371cdb825" d="M1167.71,1315.72s-18.71-48.42,9-125.72l29.11,28.36s1.89-67.7,60.17-148.18l16.18,32.23s108.9-108,190.29-122.06c0,0-60,159.29-85.52,194.85s42.8,12.42,42.8,12.42-85.11,83.61-124.88,90.62l44.63,10.54S1205.71,1421.37,1167.71,1315.72Z" transform="translate(-354.95 -397)"/><path class="af2782f3-6e74-4d55-a64f-e9d065537801" d="M1195.62,1468.59S1248.07,1391,1299.84,1353s0,32.77,10.49,45.88S1421.75,1332,1441.41,1256s27.53,81.27,13.11,121.9,11.8-2.62,56.37,11.15-73.41,53.09-125.84,50.46,13.11,62.92,60.3,64.23-57.68,24.91-116.67-23.59c0,0,13.11,65.54-72.75,71.44S1195.62,1468.59,1195.62,1468.59Z" transform="translate(-354.95 -397)"/><path class="f7dbda57-8c16-4162-8cdb-397fe205bf23" d="M1273,1153.44c-6.38,5.25-19.56,9.89-37,13.41-69.48,14-206.75,10.53-252.71-41.1-57.51-64.6,129.88-37.53,129.88-37.53s65.95-6.94,112.85-8.29c22.33-.65,40.34,0,44.84,3.23C1284.79,1093.23,1304.73,1127.27,1273,1153.44Z" transform="translate(-354.95 -397)"/><path class="ea869587-4967-4fa2-9007-dda97e51e20a" d="M1542,1142.62s43.26-3.93,67.51,50.47l2.62,5.9-226.77,84.54L1337.48,1218l-5.24-3.93s-2-52.43-50.47-87.17Z" transform="translate(-354.95 -397)"/><path class="a6db871e-3bc8-461e-91d6-dd69be37d736" d="M1367.63,1269.77s7.87-38-26.22-53.74c0,0-.05-.71-.22-2-1.49-12-11.49-74.12-59.42-87.14l201.21-60.3s51.4,29.55,58.78,74.66c.07.45.15.91.21,1.37,0,0,53.75,10.49,60.3,44.57Z" transform="translate(-354.95 -397)"/><path class="ae2fa6d2-e482-4a82-8410-6ad8e70e0f5f" d="M1367.63,1269.77s7.87-38-26.22-53.74c0,0-.05-.71-.22-2l200.57-72.78c.07.45.15.91.21,1.37,0,0,53.75,10.49,60.3,44.57Z" transform="translate(-354.95 -397)"/><path class="aaebd3e6-cd35-4f8d-8176-0709a3e8204b" d="M1194,1024c51.15,39.45-16.39,163.2,46.53,251.68,28.36,39.89,70.79,92.41,70.79,92.41s47.19,28.19,55,81.93-17.71,93.29,0,145.5c12.45,36.71-618.06,29.5-617.4,17,2.49-47.3,80-340.81,80-340.81S1099.7,951.31,1194,1024Z" transform="translate(-354.95 -397)"/><path class="ae990ff8-e7be-49b9-ae24-1d09b570cb7f" d="M1329.17,1222.51s51.88,13.35,81.22-16.77,44-.08,24,24.75,46.6,14.38,60.36,12.41c11.55-1.65,17.09,29-10.92,54.47s-129.2,26.7-170.68,5.87C1266.56,1279.82,1329.17,1222.51,1329.17,1222.51Z" transform="translate(-354.95 -397)"/><path class="aaebd3e6-cd35-4f8d-8176-0709a3e8204b" d="M1353.26,1323.8c-9.66,8-29.63,15-56.07,20.32-105.27,21.26-313.26,16-382.9-62.28C827.17,1184,1111.08,1225,1111.08,1225s99.93-10.53,171-12.57c33.84-1,61.12,0,68,4.89C1371.15,1232.58,1401.37,1284.15,1353.26,1323.8Z" transform="translate(-354.95 -397)"/><path class="aaebd3e6-cd35-4f8d-8176-0709a3e8204b" d="M1250.69,902.7c-6,5-9.94,7.86-9.94,7.86a143.22,143.22,0,0,1-.6,23.62c-5.48,47.92-36.84,55.33-43.67,76.21a30,30,0,0,0-.57,15.57c7.87,39.32-6.55,111.42-6.55,138.94a49.14,49.14,0,0,0,2.74,15.6q.38,1.14.81,2.28l0,.1c7.6,20,24.59,35.77,24.59,35.77-44.55,54.24-87.43,100-128.34,138.71-42.47,40.13-82.83,72.55-120.75,98.66-214.69,147.82-351.27,93.61-351.27,93.61,32.05-25.56,210-308.09,180.89-387.35-35.39-96.34,52.4-227.31,32.56-279.19-8-20.8.27-32,15.74-41.07,23.13-13.52,62.43-22.15,88-50.49,42.73-47.31,77.83-169.4,214.41-155.66,115.79,11.64,149.86,90.19,159.41,144.52a233.06,233.06,0,0,1,3.11,26.39C1313.68,845.51,1270.68,886,1250.69,902.7Z" transform="translate(-354.95 -397)"/><path class="f7dbda57-8c16-4162-8cdb-397fe205bf23" d="M1250.69,902.7c-9.82-36.62-10.22-121.36-10.22-121.36s65.55,2.77,70.86,25.44C1320.18,844.56,1270.68,886,1250.69,902.7Z" transform="translate(-354.95 -397)"/><path class="f7dbda57-8c16-4162-8cdb-397fe205bf23" d="M1353.26,1323.8c-9.66,8-29.63,15-56.07,20.32,4.62-55.78-6.88-105-15.13-131.7,33.84-1,61.12,0,68,4.89C1371.15,1232.58,1401.37,1284.15,1353.26,1323.8Z" transform="translate(-354.95 -397)"/><path class="bd9617d0-8f0e-4a2d-94f4-6d0cb2411432" d="M1306.37,1119.52s36.36,16.55,50.77,10.65-22.87-19-22.87-19l49-14.67s-89-40.22-136.19.25c-18.35,15.73,24.26,49.81,24.26,49.81Z" transform="translate(-354.95 -397)"/><path class="bd8cd024-f346-49b0-96a6-4e60ad8cca03" d="M1273,1153.44c-6.38,5.25-19.56,9.89-37,13.41,3-36.81-4.54-69.28-10-86.92,22.33-.65,40.34,0,44.84,3.23C1284.79,1093.23,1304.73,1127.27,1273,1153.44Z" transform="translate(-354.95 -397)"/><path class="aaebd3e6-cd35-4f8d-8176-0709a3e8204b" d="M1258.18,1219.3s-160.62,84.15-169,138.06c-15.2,97.89-232.14,265-232.14,265-196.62,17.69-291,0-291,0,32.05-25.57,261.13-380.85,232-460.11-35.39-96.34,52.4-227.31,32.56-279.19-8-20.8.27-32,15.74-41.07,102.69-7,176.51,38.43,297.11,155.75,54.83,53.35,42.37,165.53,48.62,182.73.45,1.23.72,2,.81,2.28l0,.1Z" transform="translate(-354.95 -397)"/><path class="f7dbda57-8c16-4162-8cdb-397fe205bf23" d="M1240.15,934.18c-5.48,47.92-36.84,55.33-43.67,76.21-38.8,3.64-78.55-23.57-105.43-64.39-35.4-53.75-5.25-191.39-5.25-191.39-9.17,142.88,55.65,207.65,55.65,207.65Z" transform="translate(-354.95 -397)"/><path class="b4adc82d-23b5-404c-a16b-861ae72d3dec" d="M1273.25,807.7c-7.86-57-96-12.88-115.35,17.7-62.27,98.31-25.56,159.26,34.74,154.68C1243.6,976.2,1281.12,864.72,1273.25,807.7Z" transform="translate(-354.95 -397)"/><g class="b25f0413-bf63-4fd3-881f-5a9b04ff6d8a"><path class="be5dd027-27ee-47cd-8ba0-2fa5bf0ecb8b" d="M1259.78,1628l-1.38-.13c-.91-.08-1.83-.13-2.75-.18q-1.83-.09-3.66-.12a1.67,1.67,0,0,0-.08-.2q.84-.88,1.65-1.8c.46-.53.91-1.06,1.35-1.61l.66-.84c.21-.28.42-.57.62-.86-.3.2-.58.41-.87.62l-.83.65c-.55.44-1.09.9-1.62,1.36s-1.17,1.06-1.74,1.6a2.64,2.64,0,0,0-.38-.18c0-1.21-.06-2.42-.12-3.64-.05-.92-.1-1.83-.18-2.75,0-.46-.08-.92-.13-1.37s-.1-.92-.17-1.38c-.07.46-.12.92-.17,1.38s-.09.91-.13,1.37c-.08.92-.13,1.83-.18,2.75-.06,1.21-.1,2.42-.12,3.62l-.28.11c-.54-.51-1.1-1-1.66-1.51s-1.06-.92-1.61-1.36l-.84-.65-.86-.62c.2.29.41.58.62.86l.65.84c.44.55.9,1.08,1.36,1.61s1,1.1,1.49,1.63a1.63,1.63,0,0,0-.17.38c-1.2,0-2.4.05-3.6.11-.92,0-1.83.11-2.75.18l-1.38.13-1.37.17c.46.07.92.12,1.37.17l1.38.13c.92.08,1.83.14,2.75.18q1.8.09,3.6.12a2.17,2.17,0,0,0,.19.41c-.51.54-1,1.09-1.51,1.66s-.92,1.06-1.36,1.61c-.22.28-.44.55-.65.83s-.42.57-.62.87c.29-.2.58-.41.86-.63l.84-.65c.55-.44,1.08-.89,1.61-1.36s1.14-1,1.7-1.55l.24.09c0,1.21.06,2.42.12,3.62,0,.92.1,1.84.18,2.75,0,.46.08.92.13,1.38s.1.92.17,1.37c.07-.45.12-.91.17-1.37s.09-.92.13-1.38c.08-.91.14-1.83.18-2.75.06-1.21.1-2.43.12-3.64a2.07,2.07,0,0,0,.34-.15c.58.55,1.18,1.1,1.78,1.64s1.07.91,1.62,1.35l.83.66c.29.21.57.42.87.62-.2-.3-.41-.58-.62-.87l-.66-.83q-.66-.83-1.35-1.62c-.55-.61-1.1-1.22-1.67-1.81a1.86,1.86,0,0,0,.1-.25q1.83,0,3.66-.12c.92,0,1.84-.1,2.75-.18l1.38-.13c.46,0,.91-.1,1.37-.17Z" transform="translate(-354.95 -397)"/></g><path class="f7dbda57-8c16-4162-8cdb-397fe205bf23" d="M872.44,1570.05c4-4.06,8-8.21,12-12.38,59-61.72,125-143.09,188-249.05-27.36,40.19-58.51,83.81-93.69,129.92Q927.49,1505.67,872.44,1570.05Z" transform="translate(-354.95 -397)"/><path class="f7dbda57-8c16-4162-8cdb-397fe205bf23" d="M855.76,1293.25c4-4.06,8-8.21,12-12.38,59-61.72,125-143.09,187.94-249-27.36,40.19-58.51,83.81-93.68,129.92Q910.82,1228.87,855.76,1293.25Z" transform="translate(-354.95 -397)"/></svg>