<svg id="a304c2bb-02b0-4d52-83b1-187ede78d675" data-name="Layer 1" xmlns="http://www.w3.org/2000/svg" xmlns:xlink="http://www.w3.org/1999/xlink" viewBox="0 0 639.19 618.12"><defs><style>.e59a43b3-c5b4-481b-bb77-51629b6263fa{fill:url(#e3e0798d-6343-452f-88b2-ed497100f0c7);}.b504e482-1764-471e-96e1-1efeb029d73d{fill:url(#bc3692a1-5825-405c-bda4-8de0f49c5e7d);}.a13d4b99-0321-4e27-877d-61d6f1be9299{fill:#faf4ab;}.ac940395-7337-4454-9646-becff9ac37f2{fill:#ffd4c5;}.b23a275c-1e95-4a6d-b0f0-30214b992f5f{fill:#915e5a;}.a686eb94-6922-4b0b-b363-28da98dd73ab{fill:url(#afee21b0-0b82-428c-9a33-67b4d4f087aa);}.b4f5d1d1-b029-4a8f-8004-bca8d301e3f3{fill:url(#bf3f86d1-882c-47a8-8c58-fa5f9af36c3f);}.b33f0355-ceb4-4263-af70-12077d459cf5{fill:url(#b6fa88b9-d0e4-462e-a17f-55f1b2f8f9cf);}.aa3286af-9737-4b44-9d33-057280e1b14f{fill:#f2f2f2;}.a4c3c9b3-2907-4830-ab89-432d712d7750,.a61ab754-5cff-46fc-9772-222057caebf5{fill:#e6e6e6;}.a4c3c9b3-2907-4830-ab89-432d712d7750,.aa5e7952-98ca-4ec3-9820-686358e1b7ff{stroke:#000;stroke-miterlimit:10;}.aa5e7952-98ca-4ec3-9820-686358e1b7ff{fill:#6b3d44;}.b9d26f23-fef7-4bef-a368-41bc862d3122{fill:url(#befc2c87-eca7-4183-b90f-5b19a4178dcf);}</style><linearGradient id="e3e0798d-6343-452f-88b2-ed497100f0c7" x1="-12293.93" y1="631.74" x2="-12098.77" y2="631.74" gradientTransform="matrix(-1, 0, 0, 1, -11913.4, 0)" gradientUnits="userSpaceOnUse"><stop offset="0" stop-color="#00aa01"/><stop offset="1" stop-color="#99ff94"/></linearGradient><linearGradient id="bc3692a1-5825-405c-bda4-8de0f49c5e7d" x1="2780.83" y1="619.77" x2="2975.98" y2="619.77" gradientTransform="translate(-2151.43)" xlink:href="#e3e0798d-6343-452f-88b2-ed497100f0c7"/><linearGradient id="afee21b0-0b82-428c-9a33-67b4d4f087aa" x1="505.13" y1="348.39" x2="555.35" y2="512.1" gradientTransform="matrix(1.14, 0.13, -0.11, 0.99, -53.95, -86.1)" gradientUnits="userSpaceOnUse"><stop offset="0" stop-color="#fbb5ac"/><stop offset="0.07" stop-color="#fcbbb1"/><stop offset="0.36" stop-color="#fecdbf"/><stop offset="0.66" stop-color="#ffd8c8"/><stop offset="1" stop-color="#ffdbcb"/></linearGradient><linearGradient id="bf3f86d1-882c-47a8-8c58-fa5f9af36c3f" x1="489.7" y1="221.82" x2="515.24" y2="368.69" gradientUnits="userSpaceOnUse"><stop offset="0" stop-color="#fbb5ac"/><stop offset="0.32" stop-color="#fdc8bb"/><stop offset="0.69" stop-color="#fed6c7"/><stop offset="1" stop-color="#ffdbcb"/></linearGradient><linearGradient id="b6fa88b9-d0e4-462e-a17f-55f1b2f8f9cf" x1="416.66" y1="229.32" x2="564.69" y2="229.32" gradientUnits="userSpaceOnUse"><stop offset="0" stop-color="#563836"/><stop offset="1" stop-color="#361f1a"/></linearGradient><linearGradient id="befc2c87-eca7-4183-b90f-5b19a4178dcf" x1="153.51" y1="857.53" x2="241.41" y2="857.53" gradientTransform="matrix(0.49, 0.87, -0.87, 0.49, 1118.63, -59.54)" gradientUnits="userSpaceOnUse"><stop offset="0" stop-color="#f9beb8"/><stop offset="0.24" stop-color="#fbcac0"/><stop offset="0.63" stop-color="#fed7c8"/><stop offset="1" stop-color="#ffdbcb"/></linearGradient></defs><path class="e59a43b3-c5b4-481b-bb77-51629b6263fa" d="M378.42,676.2s-31.14-46.05-61.89-68.62,0,19.45-6.22,27.24-66.16-39.7-77.83-84.84-16.35,48.26-7.79,72.38-7-1.55-33.46,6.62,43.58,31.52,74.71,30-7.78,37.35-35.8,38.13,34.25,14.79,69.27-14c0,0-7.78,38.92,43.2,42.42S378.42,676.2,378.42,676.2Z" transform="translate(-185.37 -121.02)"/><path class="b504e482-1764-471e-96e1-1efeb029d73d" d="M631.51,664.23s31.14-46.06,61.88-68.63,0,19.46,6.23,27.24,66.16-39.69,77.83-84.83,16.35,48.25,7.79,72.38,7-1.56,33.46,6.62S775.12,648.53,744,647s7.78,37.36,35.8,38.14-34.25,14.79-69.27-14c0,0,7.78,38.91-43.2,42.42S631.51,664.23,631.51,664.23Z" transform="translate(-185.37 -121.02)"/><circle class="a13d4b99-0321-4e27-877d-61d6f1be9299" cx="319.59" cy="309.06" r="309.06"/><path class="ac940395-7337-4454-9646-becff9ac37f2" d="M443.76,312.48s4.09-49.37-16.46-42.9c-6.72,2.11-11.65,8.65-3,28C434.26,319.73,443.76,312.48,443.76,312.48Z" transform="translate(-185.37 -121.02)"/><path class="b23a275c-1e95-4a6d-b0f0-30214b992f5f" d="M434.37,306.74a.53.53,0,0,0,.23-.06.46.46,0,0,0,.18-.64c-8.08-14.3-7.69-20.44-5.94-23.07s5.43-2.29,5.47-2.29a.47.47,0,0,0,.11-.94c-.17,0-4.23-.48-6.36,2.7-2.77,4.14-.79,12.24,5.89,24.06A.47.47,0,0,0,434.37,306.74Z" transform="translate(-185.37 -121.02)"/><path class="b23a275c-1e95-4a6d-b0f0-30214b992f5f" d="M429.41,296.55a.46.46,0,0,0,.2-.05.46.46,0,0,0,.22-.63c-1.5-3.09-1.74-5.54-.72-7.28,1.49-2.54,5.24-2.79,5.28-2.79a.48.48,0,1,0-.05-.95c-.18,0-4.29.28-6,3.26-1.2,2-1,4.78.68,8.17A.47.47,0,0,0,429.41,296.55Z" transform="translate(-185.37 -121.02)"/><path class="b23a275c-1e95-4a6d-b0f0-30214b992f5f" d="M434.37,298a.48.48,0,0,0,.46-.38c1.34-6.57-3.45-11.38-3.65-11.59a.47.47,0,0,0-.67,0,.48.48,0,0,0,0,.67h0c.05,0,4.63,4.66,3.39,10.72a.47.47,0,0,0,.37.56Z" transform="translate(-185.37 -121.02)"/><path class="a686eb94-6922-4b0b-b363-28da98dd73ab" d="M463.31,330.15s7.65,25.27,6.33,37.23-11.7,49.13-11.7,49.13,83.56-4.49,89.21-5c0,0-10.78-24.8-11.51-51.46s1.79-29.95,1.79-29.95Z" transform="translate(-185.37 -121.02)"/><path class="b4f5d1d1-b029-4a8f-8004-bca8d301e3f3" d="M421.39,252.77s7.74,25.37,14.83,47.6c6.19,19.42,12.41,25.92,17,33s9.89,13.36,21.06,21,19.64,15.9,35.52,5.6,31.52-23.06,36.24-35.2a277.3,277.3,0,0,0,14-48.65c4.94-27.67,3.09-56,3.09-56H419.89Z" transform="translate(-185.37 -121.02)"/><path class="b33f0355-ceb4-4263-af70-12077d459cf5" d="M441.36,222.29c-9.74,19.57-15.64,41.84-6,75.26,0,0-19.77-40-18.65-51.42,3-30.33,9.46-46.29,24.66-61.3,2.72-2.69,19.49-24.17,58.05-23.72,25.79.29,53.9,20.2,59.75,36.88,4.9,13.93,7.69,61.58,3.44,85.43,0,0-13.67,16.28-13.67,2.46,0-30.14-3.12-50.58-11.12-65.82C517.84,182,457.94,189,441.36,222.29Z" transform="translate(-185.37 -121.02)"/><path class="ac940395-7337-4454-9646-becff9ac37f2" d="M553,296.41s-4.09-49.36,16.47-42.9c6.71,2.11,11.64,8.65,3,28C562.54,303.67,553,296.41,553,296.41Z" transform="translate(-185.37 -121.02)"/><path class="b23a275c-1e95-4a6d-b0f0-30214b992f5f" d="M562.44,290.68a.53.53,0,0,1-.24-.06A.49.49,0,0,1,562,290c8.09-14.29,7.69-20.43,5.94-23.06s-5.43-2.3-5.47-2.29a.47.47,0,0,1-.11-.94c.17,0,4.24-.48,6.36,2.69,2.77,4.15.79,12.25-5.89,24.07A.49.49,0,0,1,562.44,290.68Z" transform="translate(-185.37 -121.02)"/><path class="b23a275c-1e95-4a6d-b0f0-30214b992f5f" d="M567.39,280.48a.46.46,0,0,1-.42-.68c1.5-3.08,1.74-5.53.72-7.28-1.49-2.54-5.24-2.78-5.28-2.79a.47.47,0,0,1-.45-.49.48.48,0,0,1,.5-.45c.18,0,4.3.27,6,3.25,1.19,2,1,4.79-.69,8.18A.46.46,0,0,1,567.39,280.48Z" transform="translate(-185.37 -121.02)"/><path class="b23a275c-1e95-4a6d-b0f0-30214b992f5f" d="M562.44,281.91a.48.48,0,0,1-.47-.38c-1.34-6.57,3.45-11.38,3.65-11.58a.48.48,0,0,1,.67,0,.47.47,0,0,1,0,.67h0c0,.05-4.62,4.67-3.39,10.72a.47.47,0,0,1-.37.56Z" transform="translate(-185.37 -121.02)"/><path class="aa3286af-9737-4b44-9d33-057280e1b14f" d="M415.26,250.76s75.2-33.18,150.46-9c0,0,4.94-48.37-13.76-72.05-21.07-26.68-95.4-30.19-124.52,4.7C404.34,202.06,415.26,250.76,415.26,250.76Z" transform="translate(-185.37 -121.02)"/><path class="aa3286af-9737-4b44-9d33-057280e1b14f" d="M542.26,397.75c21.14-.71,69.53.75,101.15,33.76a66.41,66.41,0,0,1,5.42,6.36c25.34,34,27,72.47,28,96.14,1.45,32.32,5.4,75,15.26,134.06-7,5.16-14.64,10.43-23,15.63-5.64,3.5-11.16,6.7-16.5,9.61l-7.11,3.77q-14.09-66.76-28.16-133.51c-3.1,81.44-3.53,111.87-2.92,119.78a55.44,55.44,0,0,1-.23,11c-.63,7-1.18,12.41-4.82,16.61-1.84,2.12-4.14,3.19-8.68,5.24-5.86,2.64-10.87,3.91-20.67,6.34-10.23,2.54-15.37,3.82-16.67,4.09-4.36.89-6.86,1.26-20.11,3.11-23.56,3.3-26.79,3.7-32.32,4.06-6.49.42-11.74.49-15.29.54-8.23.11-15.42-.09-21.29-.38-8.27-.4-15.11-1-19.85-1.55-5.05-.54-9.33-1.12-12.57-1.59-5.88-.86-11-1.77-15.29-2.59-4.67-.9-2.94-.67-13.65-2.93-7.53-1.59-7.69-1.56-8.15-2-3.69-3.83,1.57-11.26,2.21-28.37a52.05,52.05,0,0,1,0-5.43c1.52-16.59,1.71-38.44-2.6-65.55-3,30.29-18.56,40.74-23.21,52.18-6,14.83-32.51,17.57-32.51,17.57s-24.36-3.56-27.9-19.7c-3.77-17.26,4.73-82.71,4.73-82.71S337.8,458.47,353.12,439.5c15.46-19.13,108.56-39.05,108.56-39.05C477.25,414.88,513.87,422.36,542.26,397.75Z" transform="translate(-185.37 -121.02)"/><path class="a61ab754-5cff-46fc-9772-222057caebf5" d="M506.65,411.55a13.9,13.9,0,0,1-5.17.84c-2.17-.13-4.34-.17-4.34-.17.7,46,3.81,162.41,3.81,162.41Z" transform="translate(-185.37 -121.02)"/><path class="aa3286af-9737-4b44-9d33-057280e1b14f" d="M392,500.54l-3.1,56.57s-1.17,49.66-12.47,90.24c-2.2,7.9,25.06-21.17,25.06-21.17Zm8,.27" transform="translate(-185.37 -121.02)"/><path class="aa3286af-9737-4b44-9d33-057280e1b14f" d="M617.35,499.38l9.5,67.31L636.36,677l-19-111.75Zm5.11-4.51" transform="translate(-185.37 -121.02)"/><polygon class="a4c3c9b3-2907-4830-ab89-432d712d7750" points="301.87 293.48 250.02 274.64 232.79 286.32 235.9 363.64 298.82 382.79 299 379.35 299.01 382.97 362.21 362.82 369.6 286.33 359.89 276.74 301.87 293.48"/><polygon class="aa5e7952-98ca-4ec3-9820-686358e1b7ff" points="301.21 300.82 230.97 282.37 235.9 363.64 298.13 382.61 298.32 379.33 298.33 382.78 362.21 362.82 370.43 282.55 301.21 300.82"/><path class="b9d26f23-fef7-4bef-a368-41bc862d3122" d="M464,483.59c-9.1,11.51-20.2,8.36-20.2,8.36l-2.2,35.67-25.17,43.74L439.35,595l21.45-44L472,533c9.55-4.43,29-18.8,29-18.8s6.54-35.93,3.17-43.69H487.57Zm42.12,18.69" transform="translate(-185.37 -121.02)"/><path class="a61ab754-5cff-46fc-9772-222057caebf5" d="M321,668.5c4.26-28.72,45.29-54.08,81.9-103.09s32.83-44,32.83-44l37,25.06s-34.26,57.88-48.22,81.25c-12.68,21.23-39.84,68-64.53,73.75C335.11,707.22,316.61,698.08,321,668.5Z" transform="translate(-185.37 -121.02)"/><path class="a61ab754-5cff-46fc-9772-222057caebf5" d="M619.91,410.7c.13,30.63,1.82,108,1.82,108" transform="translate(-185.37 -121.02)"/></svg>