<svg id="bf51da90-bf3b-4181-a0a5-d381ca569edd" data-name="a3237a58-817f-4357-96a7-f0027335d796" xmlns="http://www.w3.org/2000/svg" xmlns:xlink="http://www.w3.org/1999/xlink" viewBox="0 0 636.24 622.09"><defs><style>.ac192525-3fcb-4a89-b136-edba959a5740{fill:#dfefe5;}.f5c24048-183e-4d9f-ae61-0a80ce3805dd{fill:url(#fbcd8513-da51-4096-9fe9-5b384557440e);}.a6caf811-6a9e-4363-96c0-bfd241bb224e{fill:url(#ae9e3ea6-e956-407b-9271-84d59cf874d0);}.e689ffe5-dd1b-4477-bc51-9a8bbb2cc700{fill:#faf4ab;}.b5a0230a-7fe4-4da6-8c0a-baa8b46c7f63{fill:#f2f2f2;}.e7873804-c095-49c9-9df1-81dd1543eeeb{fill:url(#b584a401-e20a-4edc-ac1f-fc7335866d4d);}.b90cd45c-db94-4d2b-913a-9c7b0872675b{fill:#e6e6e6;}.a52facba-dc5b-4c13-9fd5-643e08bd8c6e{fill:url(#b33e80a7-0dc5-4cea-89d0-0d252afe9aee);}.a6e7da58-f1fc-4a7a-879e-ea7cef744b70{fill:url(#bcc5cb44-ed6c-4aaf-89ac-bfc51430e8c3);}.ae270076-d819-4754-818c-dc020c9fb79a{fill:url(#a10a8e9a-edbf-4b2c-9e43-9812b82b73ce);}.bfbe8508-d1a3-4086-8ce4-fd7de0eeb781{fill:url(#e6c2ea99-02b7-44fa-afa9-471a745eb831);}.b3f6b4ee-0f13-4544-9dff-ae86c7a84b78{fill:url(#a224c74c-d8bf-423d-a30f-b76fa8abae69);}.ba35d7ab-8051-42e8-a01d-947ca1696b2b{fill:url(#b5e69b40-64bb-457e-9c65-90777865db56);}.a9667ddb-2bd0-4ab3-abd0-bc74f39f61d4{fill:url(#ac9a76b2-bd91-4a89-9ba6-a0bac5dfca3b);}.e0021267-6812-4cc8-93b6-9db423cbc3d3{fill:#e1e0df;}.ead52bd4-6ebc-457e-87ff-8091845335e4{fill:url(#ba829afd-819c-4c2f-980d-58052e29eff3);}</style><linearGradient id="fbcd8513-da51-4096-9fe9-5b384557440e" x1="-12446.31" y1="391" x2="-12258.46" y2="391" gradientTransform="matrix(-1, 0, 0, 1, -12231.4, 0)" gradientUnits="userSpaceOnUse"><stop offset="0" stop-color="#00aa01"/><stop offset="1" stop-color="#99ff94"/></linearGradient><linearGradient id="ae9e3ea6-e956-407b-9271-84d59cf874d0" x1="2626.87" y1="391" x2="2814.72" y2="391" gradientTransform="translate(-2151.43)" xlink:href="#fbcd8513-da51-4096-9fe9-5b384557440e"/><linearGradient id="b584a401-e20a-4edc-ac1f-fc7335866d4d" x1="538.86" y1="2383.16" x2="573.19" y2="2413.33" gradientTransform="translate(-471.16 -1792.02) rotate(-8.05)" gradientUnits="userSpaceOnUse"><stop offset="0" stop-color="#f2b680"/><stop offset="1" stop-color="#fbf49a"/></linearGradient><linearGradient id="b33e80a7-0dc5-4cea-89d0-0d252afe9aee" x1="-40.71" y1="2917.24" x2="42.69" y2="2917.24" gradientTransform="matrix(0.98, -0.21, 0.21, 0.98, -385.04, -2452.42)" xlink:href="#b584a401-e20a-4edc-ac1f-fc7335866d4d"/><linearGradient id="bcc5cb44-ed6c-4aaf-89ac-bfc51430e8c3" x1="821.08" y1="1377.46" x2="1083.89" y2="1377.46" gradientTransform="translate(-611.24 -894.66)" gradientUnits="userSpaceOnUse"><stop offset="0" stop-color="#e6e6e6"/><stop offset="1" stop-color="#f2f2f2"/></linearGradient><linearGradient id="a10a8e9a-edbf-4b2c-9e43-9812b82b73ce" x1="190.51" y1="659.29" x2="493.63" y2="659.29" gradientTransform="translate(-27.06 -168.02)" gradientUnits="userSpaceOnUse"><stop offset="0" stop-color="#ccc"/><stop offset="1" stop-color="#e6e6e6"/></linearGradient><linearGradient id="e6c2ea99-02b7-44fa-afa9-471a745eb831" x1="869.76" y1="1013.31" x2="1036.25" y2="1013.31" gradientTransform="translate(-611.24 -894.66)" xlink:href="#b584a401-e20a-4edc-ac1f-fc7335866d4d"/><linearGradient id="a224c74c-d8bf-423d-a30f-b76fa8abae69" x1="874.62" y1="954.41" x2="1035.6" y2="954.41" gradientTransform="translate(-611.24 -894.66)" gradientUnits="userSpaceOnUse"><stop offset="0" stop-color="#aa8000"/><stop offset="1" stop-color="#f2b680"/></linearGradient><linearGradient id="b5e69b40-64bb-457e-9c65-90777865db56" x1="863.36" y1="1041.44" x2="1041.46" y2="1041.44" gradientTransform="translate(-611.24 -894.66)" gradientUnits="userSpaceOnUse"><stop offset="0" stop-color="#1a1a1a"/><stop offset="1"/></linearGradient><linearGradient id="ac9a76b2-bd91-4a89-9ba6-a0bac5dfca3b" x1="870.99" y1="940.77" x2="1038.85" y2="940.77" xlink:href="#bcc5cb44-ed6c-4aaf-89ac-bfc51430e8c3"/><linearGradient id="ba829afd-819c-4c2f-980d-58052e29eff3" x1="190.51" y1="673.54" x2="493.63" y2="673.54" gradientTransform="translate(-27.06 -168.02)" gradientUnits="userSpaceOnUse"><stop offset="0" stop-color="#945b00"/><stop offset="1" stop-color="#5f4b00"/></linearGradient></defs><ellipse class="ac192525-3fcb-4a89-b136-edba959a5740" cx="316.81" cy="597.74" rx="315.65" ry="15.05"/><path class="f5c24048-183e-4d9f-ae61-0a80ce3805dd" d="M212.87,433.8s-30-44.34-59.56-66.06,0,18.73-6,26.22S83.63,355.75,72.4,312.3,56.66,358.75,64.91,382s-6.75-1.5-32.22,6.37,42,30.34,71.92,28.84-7.49,36-34.46,36.71,33,14.24,66.68-13.48c0,0-7.5,37.46,41.57,40.83S212.87,433.8,212.87,433.8Z" transform="translate(-27.06 -0.02)"/><path class="a6caf811-6a9e-4363-96c0-bfd241bb224e" d="M477.48,433.8s30-44.34,59.56-66.06,0,18.73,6,26.22S606.71,355.75,618,312.3s15.73,46.45,7.49,69.67,6.75-1.5,32.22,6.37-42,30.34-71.92,28.84,7.49,36,34.46,36.71-33,14.24-66.68-13.48c0,0,7.49,37.46-41.58,40.83S477.48,433.8,477.48,433.8Z" transform="translate(-27.06 -0.02)"/><circle class="e689ffe5-dd1b-4477-bc51-9a8bbb2cc700" cx="315.01" cy="289.64" r="238.87"/><path class="b5a0230a-7fe4-4da6-8c0a-baa8b46c7f63" d="M353.94,527.93C267.28,525,174.08,465.35,186.27,321.1c3-35,9.89-62.83,18.85-84.93,31.07-76.56,86.65-84.5,86.65-84.5H403.84s48.22,24.69,74.45,92.69c8.18,21.19,14.22,46.58,16,76.75C500.69,428.89,440.6,530.85,353.94,527.93Z" transform="translate(-27.06 -0.02)"/><path class="b5a0230a-7fe4-4da6-8c0a-baa8b46c7f63" d="M432.84,216c1.48-9.82,15.07-27.24,37.68-12.57s62.17,130.91,43.32,186.45-57.46,15.72-57.46-23S427.17,253.76,432.84,216Z" transform="translate(-27.06 -0.02)"/><path class="b5a0230a-7fe4-4da6-8c0a-baa8b46c7f63" d="M561.17,457C506.08,420.67,375.83,516.74,347,539H335.49c-28.87-22.25-159.1-118.32-214.21-82C60,497.49,169.91,625.85,333.93,622h14.52C512.51,625.93,622.48,497.54,561.17,457Z" transform="translate(-27.06 -0.02)"/><path class="b5a0230a-7fe4-4da6-8c0a-baa8b46c7f63" d="M444.49,501.48s-24.57,2.38-32.35-21.32,26.07-109.66,68-123.18,47.53,34.2,27.23,53.24S444.49,501.48,444.49,501.48Z" transform="translate(-27.06 -0.02)"/><path class="e7873804-c095-49c9-9df1-81dd1543eeeb" d="M411.08,471.58s-15.35,29.07-15,35.73-4.42,15.9.48,24.34,13.63,9.6,24.07,5.65,8.33-26.84,12.6-31.12,9.31,5.49,11.94-14.49S411.08,471.58,411.08,471.58Z" transform="translate(-27.06 -0.02)"/><path class="b5a0230a-7fe4-4da6-8c0a-baa8b46c7f63" d="M221.84,336a98.16,98.16,0,0,0-1.16,14c0,1.81,12.44,17,12.24,18.84-3.29,29.75-43,45.92-63.76,13.84a61.48,61.48,0,0,1-5.94-12c-18.84-50,20.72-154.51,43.33-167.68s36.1,1.59,37.67,11.3c1.94,11.92-.38,27.89-4.21,45.1C234.22,285.3,225.08,314,221.84,336Z" transform="translate(-27.06 -0.02)"/><path class="b90cd45c-db94-4d2b-913a-9c7b0872675b" d="M220.66,350c0,1.81,12.44,17,12.24,18.84-3.29,29.75-43,45.92-63.76,13.84,7.28-8.74,19.74-21.82,32.21-26.08,0,0-2.83-10.36-24-6.6s-7.07-3.76-7.07-3.76,17.43-8,42.39-.48c0,0,21.24-77.94,27.34-86.3C234.24,285.3,225.08,314,221.84,336A97.09,97.09,0,0,0,220.66,350Z" transform="translate(-27.06 -0.02)"/><path class="b90cd45c-db94-4d2b-913a-9c7b0872675b" d="M234.31,362s-38.66-2.75-52.71,21.47,11.38,37.13,22.82,36.56S284.23,408.15,234.31,362Z" transform="translate(-27.06 -0.02)"/><path class="a52facba-dc5b-4c13-9fd5-643e08bd8c6e" d="M218.27,436.78s-37.25-24-29.42-42,32-30.28,44.49-24.68,36.22,42,42.88,51.88-.4,17.44-10.91,10.65S245.66,415,245.66,415,228.73,439.81,218.27,436.78Z" transform="translate(-27.06 -0.02)"/><path class="a6e7da58-f1fc-4a7a-879e-ea7cef744b70" d="M209.84,432.85s90.57-7.41,127.56,44c0,0,65.57-49.48,135.25-43.58L342.22,525.63S376,572.21,209.84,432.85Z" transform="translate(-27.06 -0.02)"/><polygon class="ae270076-d819-4754-818c-dc020c9fb79a" points="163.45 429.93 184.65 429.55 312.75 521.38 443.21 429.55 466.57 429.71 315.14 553 163.45 429.93"/><path class="bfbe8508-d1a3-4086-8ce4-fd7de0eeb781" d="M410.89,176.9c-26.57,59-156.91,53.9-152.25-36,1.45-27.76,4.26-42.28,4.74-56.76,0-1.46.07-2.92.07-4.39-.06-31.16,1.65-40.62,23.76-50,0,0,67.47-18.13,104.36-.84,17,8,27.58,28.71,31.39,54.52q.89,6,1.4,12C426.61,122,423.3,149.36,410.89,176.9Z" transform="translate(-27.06 -0.02)"/><path class="b3f6b4ee-0f13-4544-9dff-ae86c7a84b78" d="M424.36,95.55c-16.7,1.9-44,3.57-82.66,1.49-40.51-2.19-65-8.2-78.32-12.85,0-1.46.07-2.92.07-4.39-.06-31.16,1.65-40.62,23.76-50,0,0,67.47-18.13,104.36-.84,17,8,27.58,28.71,31.39,54.52Q423.85,89.51,424.36,95.55Z" transform="translate(-27.06 -0.02)"/><path class="ba35d7ab-8051-42e8-a01d-947ca1696b2b" d="M262.26,73.45s-11,33.79-10.08,54.91,2.6,86.1,79.94,93.25,89.72-53.61,95.52-74.08,0-58.16,0-58.16-4.91-6.11-9.51-4.88c-2.41.64-3.81,3.06-4.64,4.88-6.17,13.56-6.43,49.09-17.09,65-12.11,18.11-42.18,17.61-57.19,17.36-15.9-.26-41-.68-54.12-17.36-17-21.59-14.61-71.21-12.42-80.94C272.86,72.57,273.68,69.23,262.26,73.45Z" transform="translate(-27.06 -0.02)"/><path class="a9667ddb-2bd0-4ab3-abd0-bc74f39f61d4" d="M427.61,88.3c-8.8,2-40.52,4.87-81.67,3.56-49-1.56-71.36-6.22-86.19-10.84,1.42-42,6.09-62.16,29.49-73.4,0,0,70.91-20.24,108.39,5.32C414.92,24.73,424.84,53.36,427.61,88.3Z" transform="translate(-27.06 -0.02)"/><path class="b90cd45c-db94-4d2b-913a-9c7b0872675b" d="M449.94,428.36c.46-3.09.88-6.22,1.27-9.36,5.74-46.39,4.25-103.43-15.34-169.69,4.76,26.35,8.8,55.45,11.35,87A897.64,897.64,0,0,1,449.94,428.36Z" transform="translate(-27.06 -0.02)"/><path class="e0021267-6812-4cc8-93b6-9db423cbc3d3" d="M141.19,486.24q3.63,3,7.42,5.85c37,28.49,86.95,56.16,154,72.92-25.12-9.27-52.24-20.56-80.72-34.38A895.52,895.52,0,0,1,141.19,486.24Z" transform="translate(-27.06 -0.02)"/><path class="e0021267-6812-4cc8-93b6-9db423cbc3d3" d="M472.67,533.52c-28.48,13.82-55.6,25.11-80.72,34.39,67-16.76,116.93-44.43,154-72.93q3.75-2.89,7.42-5.84A896.8,896.8,0,0,1,472.67,533.52Z" transform="translate(-27.06 -0.02)"/><polygon class="ead52bd4-6ebc-457e-87ff-8091845335e4" points="163.45 444.17 184.65 443.79 312.75 535.63 443.21 443.79 466.57 443.96 315.14 567.25 163.45 444.17"/></svg>