<svg id="b178a9dc-f420-4d7f-999f-47d3cb1c7d71" data-name="Layer 1" xmlns="http://www.w3.org/2000/svg" xmlns:xlink="http://www.w3.org/1999/xlink" viewBox="0 0 2095.87 1699.97"><defs><style>.aa625038-2809-4d72-ab6f-8599491d42b7{fill:url(#bc92d545-4a0f-4592-8bc7-ef5a41cda0f5);}.bcd9dcc6-99be-4897-b2b3-5c06ce98c971{fill:url(#e47d6c21-4af3-4031-83c9-9dd8e9cf835a);}.ae0d6d99-960d-496c-827b-bffc35c4c9e4{fill:#faf4ab;}.fde302aa-2a0f-4508-bb0f-e20c89a8170f{fill:#6b3d44;}.bb3ebbfa-1a6e-440e-b278-9a126fb13572{fill:#44272e;}.a7f8c049-d6b3-45cc-8d4c-fb5b993bb384{fill:#935460;}.a4b37031-e222-43e0-8b9c-fdfc14b513a4{fill:none;}.fda93759-e84a-44f6-bce5-f585bd9d8ad0{fill:#8681bd;}.b6687fe0-119e-4883-a155-3b9c289ca97d{fill:#838bc5;}.bd521ce5-5f38-4197-8231-a70fcffaeb85{fill:#1b1464;}.b29ea3c2-cdfe-4454-b193-c70004f9583c{fill:#f2f2f2;}.ff4b0432-9c0b-436a-aa54-23e1535b659d{fill:#ad8f64;}.e27bfa73-8035-4a7e-ac5e-5f8f243542f7{fill:#ffebca;}.b5273ac9-cc5f-43c8-90cd-17ea6ae8f8e9{fill:#b23f39;}.b875d353-5a51-4b0b-bf3e-02dedb39e74c{fill:#ec5946;}</style><linearGradient id="bc92d545-4a0f-4592-8bc7-ef5a41cda0f5" x1="-11534.17" y1="1345.51" x2="-10915.36" y2="1345.51" gradientTransform="matrix(-1, 0, 0, 1, -10951.4, 0)" gradientUnits="userSpaceOnUse"><stop offset="0" stop-color="#00aa01"/><stop offset="1" stop-color="#99ff94"/></linearGradient><linearGradient id="e47d6c21-4af3-4031-83c9-9dd8e9cf835a" x1="3592.46" y1="1345.51" x2="4211.26" y2="1345.51" gradientTransform="translate(-2151.43)" xlink:href="#bc92d545-4a0f-4592-8bc7-ef5a41cda0f5"/></defs><path class="aa625038-2809-4d72-ab6f-8599491d42b7" d="M576.07,1486.49s-98.73-146-196.22-217.61,0,61.7-19.74,86.38-209.77-125.86-246.79-269-51.82,153-24.68,229.51-22.21-4.93-106.12,21,138.2,100,236.92,95-24.68,118.45-113.52,120.92,108.58,46.89,219.64-44.42c0,0-24.68,123.39,137,134.5S576.07,1486.49,576.07,1486.49Z" transform="translate(36.04 -208.03)"/><path class="bcd9dcc6-99be-4897-b2b3-5c06ce98c971" d="M1447.73,1486.49s98.73-146,196.21-217.61,0,61.7,19.75,86.38,209.77-125.86,246.79-269,51.82,153,24.67,229.51,22.22-4.93,106.12,21-138.2,100-236.91,95,24.68,118.45,113.52,120.92-108.59,46.89-219.64-44.42c0,0,24.68,123.39-137,134.5S1447.73,1486.49,1447.73,1486.49Z" transform="translate(36.04 -208.03)"/><circle class="ae0d6d99-960d-496c-827b-bffc35c4c9e4" cx="1046.93" cy="786.75" r="786.75"/><path class="fde302aa-2a0f-4508-bb0f-e20c89a8170f" d="M1091.33,1355.29l724.18,345.26a20.23,20.23,0,0,0,26.62-6.12h0a20.22,20.22,0,0,0-4.29-27.53L1738,1590a57.09,57.09,0,0,0-7.61-5l-236.76-168.81s-5.52-3.41,0-8.88,158.42,65.85,158.42,65.85v-18L1501,1297.37s-290.13-156.72-289-166.23S1091.33,1355.29,1091.33,1355.29Z" transform="translate(36.04 -208.03)"/><path class="bb3ebbfa-1a6e-440e-b278-9a126fb13572" d="M1837.76,1667.07s-455.07-202.16-720.08-321.4c-16,5.91-26.39,9.81-26.39,9.81l724.22,345.26a20.23,20.23,0,0,0,27.25-28.1Z" transform="translate(36.04 -208.03)"/><path class="fde302aa-2a0f-4508-bb0f-e20c89a8170f" d="M1898.59,883.46l-433.8-232L673.62,1127.34s-177,118.25-227.57,149.49-201.93,203.1-284,231.22v46.87l139.78,125s306.28-274.47,334.33-276.28,81.23,8.41,56.23,59.54C671.45,1505.9,475.6,1676.65,412,1731.55A57.37,57.37,0,0,0,392,1775a53,53,0,0,0,17.53,39.4L513.46,1908h54.48s301.6-259.34,320.81-278.09,429-262.4,429-262.4l80.27-57.93,506.72-389.5Z" transform="translate(36.04 -208.03)"/><path class="bb3ebbfa-1a6e-440e-b278-9a126fb13572" d="M885.1,1495.14c11.41.55,22.55-3.8,33.22-8l484.35-191L842.39,1025.84l-168.77,101.5s-85.4,57.05-154.49,102.34c111.78,68.62,221.44,141.18,314,233.57C847.91,1478,864.31,1494.15,885.1,1495.14Z" transform="translate(36.04 -208.03)"/><path class="a7f8c049-d6b3-45cc-8d4c-fb5b993bb384" d="M726.12,1420.64c1.16-32.32-52.41-53.24-82.77-55.14s-351.14,273.33-351.14,273.33L162,1508v46.87l139.78,125s306.28-274.4,334.33-276.21,81.23,8.41,56.23,59.54c-4.36,8.91-16.34,23.42-33.15,41.26h0S725,1452.91,726.12,1420.64Z" transform="translate(36.04 -208.03)"/><path class="a7f8c049-d6b3-45cc-8d4c-fb5b993bb384" d="M894,1576.9,519.28,1908h48.66s301.6-259.34,320.81-278.09,429-262.4,429-262.4l80.27-57.93,506.72-389.5-6.1-36.58-587.43,449Z" transform="translate(36.04 -208.03)"/><polygon class="fde302aa-2a0f-4508-bb0f-e20c89a8170f" points="238.14 675.44 238.14 748.01 796.93 1071.74 1268.42 1170.63 1311.81 1145.21 238.14 675.44"/><path class="a7f8c049-d6b3-45cc-8d4c-fb5b993bb384" d="M140.34,1487.06" transform="translate(36.04 -208.03)"/><line class="a4b37031-e222-43e0-8b9c-fdfc14b513a4" x1="1906.12" y1="1495.32" x2="1873.8" y2="1459.04"/><path class="fda93759-e84a-44f6-bce5-f585bd9d8ad0" d="M222.79,832.62H162v26L778.26,1240.5l442.63,115,90.27-23,558.93-499.93V810L1144.51,556.58s-534.82,326.86-544,324.54S222.79,832.62,222.79,832.62Z" transform="translate(36.04 -208.03)"/><path class="b6687fe0-119e-4883-a155-3b9c289ca97d" d="M820.58,1194c-2.72,1.42,397.75,115.49,397.75,115.49L1203,1267.84l-145.57-95.34S884.09,1160.67,820.58,1194Z" transform="translate(36.04 -208.03)"/><polygon class="bd521ce5-5f38-4197-8231-a70fcffaeb85" points="1340.31 1101.49 1253.62 1124.41 836.39 1011.73 198.07 624.55 198.07 650.6 814.29 1032.49 1256.91 1147.45 1347.19 1124.48 1906.12 624.55 1906.12 602 1340.31 1101.49"/><path class="b29ea3c2-cdfe-4454-b193-c70004f9583c" d="M171.88,817.27l628.49,402.48s253.86-126.94,418,89.77l77.39-21.66S1543.4,814.17,1853,817.27V761.54l-640.79-257s-401.81,54-476.12,295.48C736,800.06,419.57,606.74,171.88,817.27Z" transform="translate(36.04 -208.03)"/><path class="ff4b0432-9c0b-436a-aa54-23e1535b659d" d="M264.54,814c.74-.26,75.17-26.62,175.9-36.81,79.37-8.1,189.29-7.34,291,34.36-79.31-18.1-157.82-17.11-218.48-10.86-101.74,10.38-177.15,37-177.9,37.27a4.26,4.26,0,0,0,2.86,8c.76-.26,75.35-26.62,176.11-36.85,71.74-7.3,168.5-7.35,261.58,23.56,2.24,1.24,4.49,2.46,6.71,3.81a4.55,4.55,0,0,0,2.13.57,4.41,4.41,0,0,0,1.75-.42c-14.83-10.95-27-19.8-35.57-26C643,761.48,524.11,760.17,439.59,768.82c-101.77,10.39-177.16,37-177.9,37.25a4.26,4.26,0,1,0,2.66,8.1l.19-.07Z" transform="translate(36.04 -208.03)"/><path class="ff4b0432-9c0b-436a-aa54-23e1535b659d" d="M572.77,832.62C471,843,395.61,869.62,394.87,869.89a4.26,4.26,0,0,0,2.85,8c.74-.27,75.16-26.62,175.9-36.81,66.76-6.83,155.16-7.4,242.11,17.42-6.33-4.76-12.41-9.28-18.16-13.56C716.14,825.35,635.1,826.3,572.77,832.62Z" transform="translate(36.04 -208.03)"/><path class="ff4b0432-9c0b-436a-aa54-23e1535b659d" d="M451.74,920.27c.74-.24,75.33-26.62,176.11-36.83,67.39-6.84,156.83-7.32,244.57,18.26q-9-7-17.67-13.58c-82.5-20.44-164.82-19.57-228-13.12C525,885.38,449.63,912,448.89,912.27a4.25,4.25,0,1,0,2.85,8Z" transform="translate(36.04 -208.03)"/><path class="ff4b0432-9c0b-436a-aa54-23e1535b659d" d="M519.16,956.61c.75-.27,75.15-26.62,175.89-36.81,59.51-6.09,136.2-7.17,213.74,10.23q-7.6-6-15.21-11.87c-72.71-13.92-143.58-12.55-199.44-6.84-101.75,10.38-177.16,37-177.9,37.27a4.26,4.26,0,1,0,2.87,8Z" transform="translate(36.04 -208.03)"/><path class="ff4b0432-9c0b-436a-aa54-23e1535b659d" d="M573.62,994.56c.74-.26,75.17-26.52,175.9-36.81,57.05-5.82,130-7,204.35,8.23q-7.07-5.7-14.11-11.4c-69.78-12.27-137.38-10.82-191.11-5.33-101.75,10.38-177.14,37-177.9,37.25a4.26,4.26,0,1,0,2.87,8Z" transform="translate(36.04 -208.03)"/><path class="ff4b0432-9c0b-436a-aa54-23e1535b659d" d="M625.21,1029.82c.72-.21,73.87-21.36,173.2-26.51,63.07-3.27,145.9-.36,228.78,23.43q-7.61-6.47-15.21-12.91c-78.07-19.76-154.81-22.12-214.2-19-100.3,5.23-174.21,26.62-174.93,26.83a4.26,4.26,0,0,0,2.4,8.18Z" transform="translate(36.04 -208.03)"/><path class="ff4b0432-9c0b-436a-aa54-23e1535b659d" d="M894.34,1055.35c-92.62.9-157.52,21.77-158.16,22a4.26,4.26,0,1,0,2.64,8.1h0c.63-.21,64.29-20.66,155.59-21.56,58-.55,135.75,7,217.64,38.49q-7.93-7.45-16.1-14.93A604.77,604.77,0,0,0,894.34,1055.35Z" transform="translate(36.04 -208.03)"/><path class="ff4b0432-9c0b-436a-aa54-23e1535b659d" d="M1184.71,1175.41q-9.17-10-19-20.33a522,522,0,0,0-239.12-60.84c-86.37-.57-145,20.91-145.54,21.16a4.27,4.27,0,0,0,3,8h0c.57-.21,57.74-21.22,142.49-20.63C992.19,1103.29,1085.93,1117.3,1184.71,1175.41Z" transform="translate(36.04 -208.03)"/><path class="b29ea3c2-cdfe-4454-b193-c70004f9583c" d="M1212.13,504.58S810.31,558.58,736,800.06c0,0,500.27,355,524.79,493.47.25,1.31.46,2.6.67,3.9l34.23-9.51S1543.38,814.23,1853,817.33V761.54Z" transform="translate(36.04 -208.03)"/><path class="e27bfa73-8035-4a7e-ac5e-5f8f243542f7" d="M1295.72,1253.18l-77.39,21.68c-164.1-216.77-418-89.79-418-89.79L196.13,798.13c-8.18,6-16.26,12.35-24.25,19.14l628.49,402.48s253.86-126.94,418,89.77l77.39-21.66S1543.4,814.17,1853,817.27V782.61C1543.4,779.51,1295.72,1253.18,1295.72,1253.18Z" transform="translate(36.04 -208.03)"/><path class="b5273ac9-cc5f-43c8-90cd-17ea6ae8f8e9" d="M736,643.61" transform="translate(36.04 -208.03)"/><path class="b875d353-5a51-4b0b-bf3e-02dedb39e74c" d="M738.8,791.51c-5.48,5.19-17.11.26-11,4.81a3738.64,3738.64,0,0,1,437.48,386c11.68,12,23.32,24.23,32.9,38,43.54,62.5,38.16,145.8,27.59,221.24,6.77-9.7,16.85-13,20.67-24.17a99.35,99.35,0,0,1,4.31,45.75c15-62.49,19.51-128.58,3.69-190.87.78,1-74.34-105.3-128.33-169.23C1037.82,998.52,738.8,791.51,738.8,791.51Z" transform="translate(36.04 -208.03)"/><path class="ff4b0432-9c0b-436a-aa54-23e1535b659d" d="M820.56,814.27a4.16,4.16,0,0,1-1.9-.42,4.28,4.28,0,0,1-1.9-5.7c.8-1.64,20.14-41,81.76-92.47,56.65-47.23,161.38-113.9,338.61-163.22a4.26,4.26,0,1,1,2.28,8.21C1142.63,587.6,1006,637.41,904.55,721.74c-60.58,50.37-80,89.71-80.2,90.11A4.26,4.26,0,0,1,820.56,814.27Z" transform="translate(36.04 -208.03)"/><path class="ff4b0432-9c0b-436a-aa54-23e1535b659d" d="M888.75,857.22a4.27,4.27,0,0,1-3.8-6.29c.91-1.69,23.12-42.1,87.71-94.66C1032,708,1140,640.1,1317.11,590.85a4.26,4.26,0,0,1,2.3,8.21C1144,647.87,1037.21,714.9,978.53,762.59c-63.5,51.56-85.86,92.12-86.09,92.52A4.23,4.23,0,0,1,888.75,857.22Z" transform="translate(36.04 -208.03)"/><path class="ff4b0432-9c0b-436a-aa54-23e1535b659d" d="M971.69,920.08a3.81,3.81,0,0,1-1.46-.26,4.24,4.24,0,0,1-2.54-5.44v0c.7-1.9,17.83-47.54,79.52-106,56.62-53.68,163.23-128.54,349.61-180.41a4.26,4.26,0,1,1,2.71,8.07,3.31,3.31,0,0,1-.42.12c-101.94,28.37-244.72,82.35-346.07,178.4-60.24,57-77.22,102.33-77.37,102.79A4.27,4.27,0,0,1,971.69,920.08Z" transform="translate(36.04 -208.03)"/><path class="ff4b0432-9c0b-436a-aa54-23e1535b659d" d="M1044.59,973.78h-.49a4.24,4.24,0,0,1-3.82-4.63.34.34,0,0,0,0-.1c.25-2.17,7-54,62.75-120,51.13-60.42,155.18-144.51,360.54-201.55a4.26,4.26,0,0,1,2.28,8.21c-112.19,31.23-265.08,91.08-356.32,198.92-54.15,64-60.73,115-60.84,115.47A4.25,4.25,0,0,1,1044.59,973.78Z" transform="translate(36.04 -208.03)"/><path class="ff4b0432-9c0b-436a-aa54-23e1535b659d" d="M1109.43,1026.87h-.38a4.23,4.23,0,0,1-3.8-4.6c.23-2.51,6-62.35,60.84-136.49C1257.21,762.4,1411.55,698.89,1525,667.32a4.26,4.26,0,1,1,2.71,8.08,3.31,3.31,0,0,1-.42.12c-111.92,31.15-264.17,93.7-353.92,214.86-53.58,72.26-59.44,132.08-59.5,132.69A4.26,4.26,0,0,1,1109.43,1026.87Z" transform="translate(36.04 -208.03)"/><path class="ff4b0432-9c0b-436a-aa54-23e1535b659d" d="M1178.38,1081.36a4.41,4.41,0,0,1-2.49-.74c-1.53-1-5.58-3.59,1.12-34.22,10.57-48.51,81-293.05,430.16-344.16a4.26,4.26,0,0,1,1.24,8.42c-207.58,30.42-314,130.91-366.81,209.88-49.93,74.71-60.66,142.34-59.82,153.68l.29.34a4.25,4.25,0,0,1-.92,6A4.52,4.52,0,0,1,1178.38,1081.36Z" transform="translate(36.04 -208.03)"/><path class="ff4b0432-9c0b-436a-aa54-23e1535b659d" d="M1238.08,1143.18a4.4,4.4,0,0,1-2.43-.74c-1.9-1.18-4.62-3,.7-27.46,7.27-33.23,81.48-326.3,450-380.29a4.26,4.26,0,0,1,1.52,8.38l-.29,0c-199.78,29.28-310.25,131.33-367.75,211.82-61.15,85.56-78.44,168.41-78.13,181.28h0a4.28,4.28,0,0,1-.9,6A4.67,4.67,0,0,1,1238.08,1143.18Z" transform="translate(36.04 -208.03)"/><path class="ff4b0432-9c0b-436a-aa54-23e1535b659d" d="M1280.43,1184.63a4.27,4.27,0,0,1-2.42-.72c-2.72-1.75-2.89-4.87-.8-14.47,7.61-34.78,40.39-122.51,110.29-205.76,93.17-111,218.06-178.73,371-201.07a4.26,4.26,0,0,1,1.23,8.42c-200.26,29.26-318.51,135.29-382.43,219-67.71,88.66-92.17,174.78-93,188.07a4.28,4.28,0,0,1-1.13,5.61A4.61,4.61,0,0,1,1280.43,1184.63Z" transform="translate(36.04 -208.03)"/></svg>