<svg id="aa96dca9-f449-4d40-8c05-8dfd6ebaa820" data-name="a3237a58-817f-4357-96a7-f0027335d796" xmlns="http://www.w3.org/2000/svg" xmlns:xlink="http://www.w3.org/1999/xlink" viewBox="0 0 561.21 484.25"><defs><style>.b08bcaf5-381b-4c9d-bc82-e45bfc4db64f{fill:url(#bf6a4c29-6c1f-4bb5-8eb7-9b1d5de4cdc9);}.a251b66f-2452-453a-a09c-5f80c04d1206{fill:url(#a4064e0e-bf9e-4c92-9244-ce19642beb00);}.ae7e562a-ed12-430e-98a3-f5e4d69aa41c{fill:#faf4ab;}.a7521642-df31-4de7-99ba-0ca85ec028ba{fill:#f2f2f2;}.fdb341b0-2b02-429a-bed6-3194ce0ad25c{fill:#e6e6e6;}.adcd38e0-8ffc-4415-914f-2a27223637e8{fill:url(#e126286d-2faf-4eee-901a-5e081f998153);}.fe714197-6155-4741-b4dc-778ee742b318{fill:#bf8c60;}.a68f6d77-0d27-446d-9b97-0e3a23287626{fill:url(#afb00965-72eb-4be9-a56a-a7e9f89b3c74);}.b67a8ff3-d399-49b8-9da0-f2471164f516{fill:url(#a5c173c0-def9-496f-83c3-60a3e78b3d30);}.bcc0ae40-2718-48ee-9c5b-9b52484194a7{fill:url(#e70d376d-0539-4e9a-ab3d-93c917e015ca);}.b9d11524-9c3d-4a97-8b7e-4f8fcea545b2{fill:url(#a3374eaf-f636-4fcf-8847-6d8abc6baab9);}.fcb0b128-3975-4fe1-b7c5-19de1f396d2c{fill:url(#ad4f9abe-1f23-4334-84ba-5b3deb04ef8f);}.a20bf6cb-5a29-46d1-b032-dad6c4596a93{fill:url(#a7c08c7f-08c0-499b-9e3c-057d8dc92f36);}.f4065de7-7c3f-461a-82e2-ab9af024899c{fill:url(#f70cf085-317e-4890-ae49-b421b1290aa4);}.b3d58889-0b5c-4e01-8d63-924f8b914a48{fill:url(#ef2f5d0f-95b6-4db0-a52f-acdc7edb12bf);}.f8a6abd5-c13b-4ed3-a75f-273c9605694b{fill:url(#e4faddae-50d9-4a37-86ff-c0259b86e147);}.ad969c90-3f1b-4988-89c1-774e59b3e15d{fill:url(#aa04cf09-fea0-4249-aa11-5dc88aa54717);}.b6cde0b6-84dc-4f1f-b797-1743b5be97fe{fill:url(#e2383708-e24b-48b3-9e63-e21d13735660);}.a17bb1eb-7530-45c1-bb90-a7e068929316{fill:url(#b6fc3d4b-e352-4c20-8d55-8666109f989f);}.a638e5ad-5f2e-4a23-a96f-185a12c7b06e{fill:url(#f1128a52-b9c6-4cab-8af8-543ab91bba5a);}.b61aa81e-915b-430f-be8d-2f6a960510b2{fill:#e1e0df;}</style><linearGradient id="bf6a4c29-6c1f-4bb5-8eb7-9b1d5de4cdc9" x1="-12475.64" y1="457.82" x2="-12304.29" y2="457.82" gradientTransform="matrix(-1, 0, 0, 1, -12231.4, 0)" gradientUnits="userSpaceOnUse"><stop offset="0" stop-color="#00aa01"/><stop offset="1" stop-color="#99ff94"/></linearGradient><linearGradient id="a4064e0e-bf9e-4c92-9244-ce19642beb00" x1="2614.18" y1="447.31" x2="2785.53" y2="447.31" gradientTransform="translate(-2151.43)" xlink:href="#bf6a4c29-6c1f-4bb5-8eb7-9b1d5de4cdc9"/><linearGradient id="e126286d-2faf-4eee-901a-5e081f998153" x1="884.11" y1="1109.1" x2="1028.85" y2="1109.1" gradientTransform="translate(-611.24 -894.66)" gradientUnits="userSpaceOnUse"><stop offset="0" stop-color="#f2b680"/><stop offset="1" stop-color="#fbf49a"/></linearGradient><linearGradient id="afb00965-72eb-4be9-a56a-a7e9f89b3c74" x1="877.49" y1="1081.62" x2="898.92" y2="1081.62" gradientTransform="translate(-611.24 -894.66)" gradientUnits="userSpaceOnUse"><stop offset="0"/><stop offset="1" stop-color="#1a1a1a"/></linearGradient><linearGradient id="a5c173c0-def9-496f-83c3-60a3e78b3d30" x1="-10666.61" y1="1081.23" x2="-10644.3" y2="1081.23" gradientTransform="matrix(-1, 0, 0, 1, -10241.52, -894.66)" xlink:href="#afb00965-72eb-4be9-a56a-a7e9f89b3c74"/><linearGradient id="e70d376d-0539-4e9a-ab3d-93c917e015ca" x1="874.93" y1="1039.95" x2="1036.9" y2="1039.95" gradientTransform="translate(-611.24 -894.66)" gradientUnits="userSpaceOnUse"><stop offset="0" stop-color="#e6e6e6"/><stop offset="1" stop-color="#f2f2f2"/></linearGradient><linearGradient id="a3374eaf-f636-4fcf-8847-6d8abc6baab9" x1="927.86" y1="1064.27" x2="1001.61" y2="1064.27" xlink:href="#afb00965-72eb-4be9-a56a-a7e9f89b3c74"/><linearGradient id="ad4f9abe-1f23-4334-84ba-5b3deb04ef8f" x1="908.62" y1="1254.25" x2="1010.99" y2="1254.25" gradientTransform="translate(-611.24 -894.66)" gradientUnits="userSpaceOnUse"><stop offset="0" stop-color="#999"/><stop offset="1" stop-color="#666"/></linearGradient><linearGradient id="a7c08c7f-08c0-499b-9e3c-057d8dc92f36" x1="909.98" y1="1255.18" x2="1009.68" y2="1255.18" xlink:href="#ad4f9abe-1f23-4334-84ba-5b3deb04ef8f"/><linearGradient id="f70cf085-317e-4890-ae49-b421b1290aa4" x1="911.55" y1="1257.18" x2="1008.29" y2="1257.18" xlink:href="#ad4f9abe-1f23-4334-84ba-5b3deb04ef8f"/><linearGradient id="ef2f5d0f-95b6-4db0-a52f-acdc7edb12bf" x1="959.92" y1="1302.13" x2="959.92" y2="1212.23" gradientTransform="translate(-611.24 -894.66)" gradientUnits="userSpaceOnUse"><stop offset="0" stop-color="#945b00"/><stop offset="1" stop-color="#5f4b00"/></linearGradient><linearGradient id="e4faddae-50d9-4a37-86ff-c0259b86e147" x1="968.15" y1="1257.62" x2="1000.45" y2="1257.62" xlink:href="#ad4f9abe-1f23-4334-84ba-5b3deb04ef8f"/><linearGradient id="aa04cf09-fea0-4249-aa11-5dc88aa54717" x1="919.41" y1="1257.64" x2="951.75" y2="1257.64" xlink:href="#ad4f9abe-1f23-4334-84ba-5b3deb04ef8f"/><linearGradient id="e2383708-e24b-48b3-9e63-e21d13735660" x1="957.5" y1="1260.19" x2="960.39" y2="1260.19" xlink:href="#ad4f9abe-1f23-4334-84ba-5b3deb04ef8f"/><linearGradient id="b6fc3d4b-e352-4c20-8d55-8666109f989f" x1="810.9" y1="1285.2" x2="942.4" y2="1285.2" xlink:href="#e126286d-2faf-4eee-901a-5e081f998153"/><linearGradient id="f1128a52-b9c6-4cab-8af8-543ab91bba5a" x1="976.67" y1="1287.01" x2="1108.22" y2="1287.01" xlink:href="#e126286d-2faf-4eee-901a-5e081f998153"/></defs><path class="b08bcaf5-381b-4c9d-bc82-e45bfc4db64f" d="M242.39,496.86S215,456.42,188.05,436.6s0,17.09-5.46,23.92S124.5,425.67,114.25,386s-14.35,42.37-6.83,63.56-6.15-1.37-29.39,5.81,38.27,27.67,65.6,26.3-6.83,32.81-31.43,33.49,30.07,13,60.82-12.3c0,0-6.84,34.17,37.92,37.24S242.39,496.86,242.39,496.86Z" transform="translate(-72.89 -78.69)"/><path class="a251b66f-2452-453a-a09c-5f80c04d1206" d="M464.6,486.34s27.34-40.43,54.34-60.25,0,17.08,5.46,23.92,58.09-34.85,68.34-74.49,14.35,42.37,6.83,63.55,6.15-1.36,29.39,5.81-38.27,27.68-65.6,26.31,6.83,32.8,31.43,33.49-30.07,13-60.82-12.3c0,0,6.83,34.16-37.93,37.24S464.6,486.34,464.6,486.34Z" transform="translate(-72.89 -78.69)"/><circle class="ae7e562a-ed12-430e-98a3-f5e4d69aa41c" cx="276.26" cy="238.87" r="238.87"/><path class="a7521642-df31-4de7-99ba-0ca85ec028ba" d="M450.91,304c-17.71-45.31-50.41-42.94-50.41-42.94S336,244.29,289.3,259.82h0c-11.32,3.76-21.59,9.41-29.66,17.66-6.36,6.49-28.52,37.93-32.31,61-.66,4.07,5.08,23.85,16.32,26,.45.09,16.7,5.39,24.75,8v.1l.22.78c.51,5.95,1.08,12.25,1.65,18.36.62,6.69,1.25,13.16,1.79,18.74L259.4,485.31c94.14,53.88,176.91,4.54,176.91,4.54L423,415.69l-1.76-9.84c-.11-12.61.12-24.06.39-33.28a121.79,121.79,0,0,0,18.83-2.37c4.69-1,25-3.12,29.69-10.93C474.27,352.4,453.16,309.78,450.91,304Z" transform="translate(-72.89 -78.69)"/><path class="fdb341b0-2b02-429a-bed6-3194ce0ad25c" d="M400.51,261.08c-25.41,24.76-46.44,26.79-46.44,26.79l-8.32-10.41-8.34,10.41c-36.45-13-48.08-28-48.08-28h0C336,244.31,400.51,261.08,400.51,261.08Z" transform="translate(-72.89 -78.69)"/><path class="adcd38e0-8ffc-4415-914f-2a27223637e8" d="M402.81,248.65c-10.2,4.83-24.42,29-57.3,29H345c-32.88,0-47.1-24.16-57.3-29s-18.78-14-12.88-23.08c5.27-8.14,11.4-1.75,12.65-.28l.23.28c-1.22-6.92-4-43.61-5.2-60.94-.39-5.52-.64-9.08-.64-9.08s39.94-1.16,54.55-3.64c4.78-.81,14-.81,24.26-.45,13.6.48,28.89,1.6,37.53,2.29,4.27.34,6.92.57,6.92.57s-.1,8.93-.31,20.51c-.31,17.25-.86,40.39-1.71,48.71-.09.83-.18,1.52-.27,2,0,0,7-9.12,12.88,0S413,243.81,402.81,248.65Z" transform="translate(-72.89 -78.69)"/><path class="fe714197-6155-4741-b4dc-778ee742b318" d="M403.29,221c-.31.34-.48.57-.48.57,1.36-7.72,2-53.33,2.24-67.23h0S404.56,203.89,403.29,221Z" transform="translate(-72.89 -78.69)"/><path class="a68f6d77-0d27-446d-9b97-0e3a23287626" d="M287.68,148.31s-13.31,1.52-20.29,18.7,20.29,58.59,20.29,58.59S279.09,164.91,287.68,148.31Z" transform="translate(-72.89 -78.69)"/><path class="b67a8ff3-d399-49b8-9da0-f2471164f516" d="M402.75,147.94s14.22,2.86,21.2,20-21.2,57.26-21.2,57.26S404.82,169.65,402.75,147.94Z" transform="translate(-72.89 -78.69)"/><path class="bcc0ae40-2718-48ee-9c5b-9b52484194a7" d="M425.66,176.41c0,40-29,5.15-67.2-2.62a69.54,69.54,0,0,0-13.79-1.48,76,76,0,0,0-22.59,3.74c-33.73,10.5-58.39,37.21-58.39.33a81.33,81.33,0,0,1,1.63-16.24h0A81,81,0,0,1,424.75,164,82.79,82.79,0,0,1,425.66,176.41Z" transform="translate(-72.89 -78.69)"/><path class="b9d11524-9c3d-4a97-8b7e-4f8fcea545b2" d="M316.62,177.94s49.56,19.94,73.75-6.94l-18.48,3.65s10.42-1,8.74-20.49c0,0-20.5,19.15-36,18.14S320.81,176.14,316.62,177.94Z" transform="translate(-72.89 -78.69)"/><polygon class="fe714197-6155-4741-b4dc-778ee742b318" points="261.63 198 274.39 216.49 285.85 198 261.63 198"/><path class="fe714197-6155-4741-b4dc-778ee742b318" d="M276.8,227.79s10.08-1.68,9.07,10.41C285.87,238.2,284.86,231.15,276.8,227.79Z" transform="translate(-72.89 -78.69)"/><path class="fe714197-6155-4741-b4dc-778ee742b318" d="M413,227.45s-10.08-1.68-9.07,10.42C403.89,237.87,404.89,230.81,413,227.45Z" transform="translate(-72.89 -78.69)"/><path class="fcb0b128-3975-4fe1-b7c5-19de1f396d2c" d="M399.75,317.53,399,404.66c-.62-.55-3.25,2.35-3.9,1.87-16.56-12.34-40.35-8-45.87-6.14l-1.07.38a20.91,20.91,0,0,0-2-.88c-14.27-5.46-37.88,2.27-44.74,3.83-1.1.25-4-2-4-2l.21-84.14c17.28-9.6,41.55-2.06,48.56,1.9,1.25.69,1.93,1.13,1.93,1.13l.81-.65C368.22,305,399.75,317.53,399.75,317.53Z" transform="translate(-72.89 -78.69)"/><path class="a20bf6cb-5a29-46d1-b032-dad6c4596a93" d="M398.44,320.37l-.77,83.18c-.6-.52-3.16,2.25-3.8,1.79-16.14-11.78-39.33-7.65-44.71-5.86-.68.22-1,.36-1,.36-.63-.31-1.28-.58-2-.84-13.91-5.21-36.92,2.17-43.61,3.65-1.07.24-3.86-2-3.86-2l.21-80.34c16.83-9.16,40.49-2,47.32,1.81,1.22.67,1.89,1.09,1.89,1.09l.78-.62C367.75,308.38,398.44,320.37,398.44,320.37Z" transform="translate(-72.89 -78.69)"/><path class="f4065de7-7c3f-461a-82e2-ab9af024899c" d="M397.05,320.88,396,407.47c-15.45-13.64-41.44-5.85-46.84-4-.66.22-1,.35-1,.35-.62-.3-1.25-.58-1.89-.82-15.58-6-45.83,1.67-45.83,1.67l-.12-83.77c16.26-9,39.42,2.65,46,6.37,1.17.66,1.82,1.07,1.82,1.07l.76-.61C367.07,313.65,397.05,320.88,397.05,320.88Z" transform="translate(-72.89 -78.69)"/><path class="b3d58889-0b5c-4e01-8d63-924f8b914a48" d="M397.05,320.88,396,407.47c-15.45-13.64-41.44-5.85-46.84-4-.66.22-1,.35-1,.35-.62-.3-1.25-.58-1.89-.82-15.58-6-45.83,1.67-45.83,1.67l-.12-83.77c16.26-9,39.42,2.65,46,6.37,1.17.66,1.82,1.07,1.82,1.07l.76-.61C367.07,313.65,397.05,320.88,397.05,320.88Z" transform="translate(-72.89 -78.69)"/><path class="f8a6abd5-c13b-4ed3-a75f-273c9605694b" d="M389.21,363a16.18,16.18,0,0,0-4.89-11.59.42.42,0,0,0-.19-.26,36.05,36.05,0,0,1-10.9-13.92c-.77,4.35-5.93,9.47-9.15,12.3a16.56,16.56,0,0,0-2.57,2.15h0a16.18,16.18,0,0,0,0,22.61h0a17.19,17.19,0,0,0,2.59,2.15c3.22,2.83,8.38,8,9.15,12.3a36.13,36.13,0,0,1,10.9-13.92.36.36,0,0,0,.19-.26A16.13,16.13,0,0,0,389.21,363Z" transform="translate(-72.89 -78.69)"/><path class="ad969c90-3f1b-4988-89c1-774e59b3e15d" d="M340.51,363a16.12,16.12,0,0,0-4.9-11.59c0-.08-.06-.16-.18-.26a35.91,35.91,0,0,1-10.91-13.92c-.77,4.35-5.92,9.47-9.15,12.3a17.19,17.19,0,0,0-2.59,2.15h0a16.18,16.18,0,0,0,0,22.66h0a17.19,17.19,0,0,0,2.59,2.15c3.23,2.83,8.38,8,9.15,12.3a36,36,0,0,1,10.91-13.92.35.35,0,0,0,.18-.26A16.13,16.13,0,0,0,340.51,363Z" transform="translate(-72.89 -78.69)"/><path class="b6cde0b6-84dc-4f1f-b797-1743b5be97fe" d="M349.15,329v74.45c-.66.22-1,.35-1,.35-.62-.3-1.25-.58-1.89-.82V327.37l.07-.12c1.17.66,1.82,1.07,1.82,1.07l.76-.61Z" transform="translate(-72.89 -78.69)"/><path class="fe714197-6155-4741-b4dc-778ee742b318" d="M323.38,356.37a28.83,28.83,0,0,1-21.17,16c-16,3,0,1.73,0,1.73s14.26-3.45,21.17-14.68l1.72-2.6a5.6,5.6,0,0,1,3.46,6c-.43,4.75-9.93,15.12-23.32,18.57,0,0,9.07-1.29,14.68-5.61a34.94,34.94,0,0,0,8.21-8.64s1.73-1.3,2.16,4.32-10.8,13.39-17.71,16.84,4.75,0,7.34-2.15,5.62-5.62,6.91-5.19,4.32,2.59-1.29,9.5-24.62,13-32.4,13S257.75,414.31,253,419l-7.34-25.48s11.56-3,17.55-7,7.29-17,12.9-23.88,10.58-7.4,14.15-11.48,2.43-5.77,4.94-3,2.39,5.79.07,9.69-10.9,10.29-10.9,10.29,22.24-4.84,29.41-11.46S323.38,356.37,323.38,356.37Z" transform="translate(-72.89 -78.69)"/><path class="a17bb1eb-7530-45c1-bb90-a7e068929316" d="M327.75,383.15c-1.3-.43-4.32,3-6.91,5.18s-14.26,5.62-7.35,2.16,18.09-11.18,17.66-16.84-2.16-4.32-2.16-4.32a34.9,34.9,0,0,1-8.2,8.64c-5.62,4.32-14.69,5.61-14.69,5.61,13.39-3.45,22.89-13.82,23.32-18.57a5.58,5.58,0,0,0-3.45-6l-1.73,2.6c-6.91,11.23-21.16,14.7-21.16,14.7s-16,1.3,0-1.73a28.82,28.82,0,0,0,21.16-16s-2.37-6.26-9.58.33-29.46,11.4-29.46,11.4,8.59-6.39,10.91-10.29,2.43-6.9-.08-9.69-1.38-1.09-4.94,3-8.53,4.56-14.15,11.47a30.86,30.86,0,0,0-4.14,7.5c1-3.22,1.11-5.93-1.41-6-20.61-.94-42.1-18.22-42.1-18.22s-20.67,50.07-29.1,76.3c-7.11,22.15,59.22-3.79,89.07-18a23.88,23.88,0,0,1,4.75-.69c7.77,0,26.78-6,32.39-13S329,383.58,327.75,383.15Zm-56.51-6.79c-.87,2.3-1.73,4.56-2.71,6.55l-.83.2a71,71,0,0,0,3.54-6.75Z" transform="translate(-72.89 -78.69)"/><path class="fe714197-6155-4741-b4dc-778ee742b318" d="M268.58,383.11s-19.67,2.81-45,19.67c0,0,28.79-23,47.65-27.91Z" transform="translate(-72.89 -78.69)"/><path class="fe714197-6155-4741-b4dc-778ee742b318" d="M373.27,358.25a28.86,28.86,0,0,0,21.16,16c16,3,0,1.72,0,1.72s-14.25-3.45-21.16-14.68l-1.76-2.64a5.55,5.55,0,0,0-3.45,6c.43,4.76,9.93,15.12,23.32,18.58,0,0-9.07-1.3-14.69-5.62a34.9,34.9,0,0,1-8.2-8.64s-1.73-1.29-2.16,4.32,10.8,13.39,17.71,16.85-4.75,0-7.35-2.16-5.61-5.62-6.91-5.18-4.32,2.59,1.3,9.5,24.62,13,32.39,13,35.42,10.79,40.17,15.55L451,395.36s-11.57-3-17.55-7-7.29-17-12.9-23.89S410,357.08,406.39,353s-2.44-5.78-4.94-3-2.39,5.79-.08,9.69S412.28,370,412.28,370s-22.25-4.86-29.46-11.46S373.27,358.25,373.27,358.25Z" transform="translate(-72.89 -78.69)"/><path class="a638e5ad-5f2e-4a23-a96f-185a12c7b06e" d="M496.45,426.2c-8.43-26.23-29.1-76.29-29.1-76.29s-21.49,17.27-42.1,18.21c-2.51.11-2.42,2.83-1.4,6a30.06,30.06,0,0,0-4.15-7.5c-5.61-6.91-10.58-7.39-14.14-11.47s-2.44-5.78-5-3-2.39,5.79-.07,9.69,10.91,10.29,10.91,10.29-22.25-4.82-29.46-11.46-9.58-.32-9.58-.32a28.86,28.86,0,0,0,21.16,16c16,3,0,1.72,0,1.72s-14.25-3.45-21.16-14.68l-1.73-2.59a5.57,5.57,0,0,0-3.46,6c.43,4.76,9.94,15.12,23.33,18.58,0,0-9.07-1.3-14.69-5.62a35.12,35.12,0,0,1-8.21-8.64s-1.72-1.29-2.16,4.32,10.8,13.39,17.71,16.85-4.75,0-7.34-2.16-5.61-5.62-6.91-5.18-4.32,2.59,1.3,9.5,24.62,13,32.39,13a24.4,24.4,0,0,1,4.74.68C437.23,422.41,503.57,448.31,496.45,426.2ZM429,385l-.83-.2c-1-2-1.84-4.25-2.72-6.55A74.79,74.79,0,0,0,429,385Z" transform="translate(-72.89 -78.69)"/><path class="fe714197-6155-4741-b4dc-778ee742b318" d="M428.06,385s19.68,2.81,45,19.67c0,0-28.78-23-47.65-27.91Z" transform="translate(-72.89 -78.69)"/><path class="a7521642-df31-4de7-99ba-0ca85ec028ba" d="M488.37,456C452.66,432.39,370,477.85,351.25,492.31h-7.74c-18.7-14.44-104.44-59.9-140.15-36.32-39.71,26.2,31.51,109.32,137.78,106.9h9.37C456.84,565.37,528.08,482.19,488.37,456Z" transform="translate(-72.89 -78.69)"/><path class="b61aa81e-915b-430f-be8d-2f6a960510b2" d="M259.43,472.81c3,.83,6.07,1.63,9.14,2.39,45.36,11.31,102.16,16.73,170.3,5.29-26.73,1.54-56.11,2-87.73.75A897.44,897.44,0,0,1,259.43,472.81Z" transform="translate(-72.89 -78.69)"/></svg>