<svg id="a65cbb36-ae1d-4b88-a850-380218f1e41d" data-name="a29af97c-7897-4860-a7ea-685a79851251" xmlns="http://www.w3.org/2000/svg" xmlns:xlink="http://www.w3.org/1999/xlink" viewBox="0 0 593 557.65"><defs><style>.ad92dc7b-341c-4ce8-bf6b-1d51fc5067ec{fill:url(#b6728810-3acd-4a95-ad47-5f5055b0485d);}.bd0b14e3-4f72-4b4f-bb98-35c0f525e95a{fill:url(#f0a7c2f7-5c95-462d-9f4c-805371783e4c);}.a7b74a0d-af88-4ba5-a777-426a4da55ac6{fill:#faf4ab;}.bb496ab9-ae4e-40d4-b06c-6436a1b8bb4b{fill:#42210b;}.bf346f73-4f4d-40aa-9848-0fb53d7cad70{fill:#603813;}.ad8d628c-aebd-4b08-9d13-754847bb8592{fill:#f0d7cb;}.fe77293d-95c4-4df2-88c0-4434ce181f08{fill:#e0e1e2;}.a9bed4d0-6a1f-4b31-bd53-975559ead887{fill:#fff;}.b3c549c2-cede-4613-b5e3-3a045871c432{fill:#dcddde;}.af8d6c53-01a6-4a4e-b92d-e7ad1de51070{fill:#c37f71;}.b19905fa-4a9a-449f-ac74-637ba1376c3c{fill:#c69c6d;}.e339930d-3785-41ca-93e3-9cb2f06219af{fill:#efeff0;}.b01bab70-417e-4cb4-a71b-a0951a5dd84c{fill:#4e3a4d;}</style><linearGradient id="b6728810-3acd-4a95-ad47-5f5055b0485d" x1="-12557.17" y1="431.94" x2="-12382.09" y2="431.94" gradientTransform="matrix(-1, 0, 0, 1, -12407.4, 0)" gradientUnits="userSpaceOnUse"><stop offset="0" stop-color="#00aa01"/><stop offset="1" stop-color="#99ff94"/></linearGradient><linearGradient id="f0a7c2f7-5c95-462d-9f4c-805371783e4c" x1="2544.04" y1="431.94" x2="2719.12" y2="431.94" gradientTransform="translate(-2151.43)" xlink:href="#b6728810-3acd-4a95-ad47-5f5055b0485d"/></defs><path class="ad92dc7b-341c-4ce8-bf6b-1d51fc5067ec" d="M147.88,471.83s-27.94-41.32-55.52-61.57,0,17.46-5.58,24.44S27.42,399.09,17,358.59s-14.66,43.29-7,64.94-6.29-1.4-30,5.93S19,457.74,47,456.35s-7,33.51-32.11,34.21S45.58,503.83,77,478c0,0-7,34.92,38.75,38.06S147.88,471.83,147.88,471.83Z" transform="translate(25.31)"/><path class="bd0b14e3-4f72-4b4f-bb98-35c0f525e95a" d="M394.5,471.83s27.94-41.32,55.52-61.57,0,17.46,5.59,24.44,59.35-35.61,69.82-76.11,14.66,43.29,7,64.94,6.29-1.4,30,5.93-39.1,28.28-67,26.89,7,33.51,32.12,34.21S496.8,503.83,465.38,478c0,0,7,34.92-38.75,38.06S394.5,471.83,394.5,471.83Z" transform="translate(25.31)"/><circle class="a7b74a0d-af88-4ba5-a777-426a4da55ac6" cx="290.97" cy="265.66" r="265.66"/><path class="bb496ab9-ae4e-40d4-b06c-6436a1b8bb4b" d="M308.71,317.67c8.73-6.76,21.65-10.59,36.64-11.72s40,3.87,50.26-1.27a24.66,24.66,0,0,1,18.57-2L543.47,420.94,508.77,431c-13.82-9.87-47.67-31.24-68.52-19.2-14.13,8.22-8.59,25.12-.28,39.14l-37.94,11L273.81,323.85C281.47,316.75,300,324.36,308.71,317.67Z" transform="translate(25.31)"/><path class="bb496ab9-ae4e-40d4-b06c-6436a1b8bb4b" d="M334.07,388.78l68.18-72.33a25.64,25.64,0,0,1,18.57-2c10.08,2.95,35.48-7.56,50.49-9.68s27.81-1.07,36.16,3.82,27.44-6.84,34.77-1.35L489.57,371.9Z" transform="translate(25.31)"/><path class="bf346f73-4f4d-40aa-9848-0fb53d7cad70" d="M334.07,388.78,359,415.58h0c-16,7.89-32.3,21.5-41.1,29.34l-34.35-2.56Z" transform="translate(25.31)"/><path class="ad8d628c-aebd-4b08-9d13-754847bb8592" d="M412.83,307.77l-128,21.53L337.57,385l64.65-68.59a25.93,25.93,0,0,1,16.44-2.51Z" transform="translate(25.31)"/><path class="fe77293d-95c4-4df2-88c0-4434ce181f08" d="M402.26,316.47A26.06,26.06,0,0,1,416,313.61L411.9,310,289.43,330.44l50,52.72Z" transform="translate(25.31)"/><path class="a9bed4d0-6a1f-4b31-bd53-975559ead887" d="M402.26,316.47a33.42,33.42,0,0,1,15.36-2.93l-4.05-3.62-122.5,20.47,49.17,51.91Z" transform="translate(25.31)"/><path class="b3c549c2-cede-4613-b5e3-3a045871c432" d="M320.13,396.15a27.51,27.51,0,0,0-2.28-7.78c-4.47-9.17-16.7-13.59-26.3-14.79-36-4.41-93.81-6.93-93.81-6.93l-3.4,39.16,11.23,34.13s43.81,2.84,57.88.28c10.29-1.87,20.61-3.57,30.79-5.92a105.05,105.05,0,0,0,16.88-4.77c6-2.56,8.22-10.19,8.89-16.27A64.07,64.07,0,0,0,320.13,396.15Z" transform="translate(25.31)"/><path class="af8d6c53-01a6-4a4e-b92d-e7ad1de51070" d="M145.88,536.16s-6.67,13.28-5.47,20.09,74.71-13.39,74.71-13.39l-17.24-20.35Z" transform="translate(25.31)"/><path class="b19905fa-4a9a-449f-ac74-637ba1376c3c" d="M166.76,167.3s10.68-4.44,17-23.33l13.46,5.33,27.06,37s-7.48,17.8-8.22,35Z" transform="translate(25.31)"/><path class="e339930d-3785-41ca-93e3-9cb2f06219af" d="M227.75,396C200.82,392.14,187,317.53,187,317.53l14.89-45.23,16.18-11.51,25.47-6.28,6.43,1s27.25,99.88,29.26,114.17L306.8,423.3l-45.23,16.13Z" transform="translate(25.31)"/><path class="b19905fa-4a9a-449f-ac74-637ba1376c3c" d="M296.79,135.3s-3.7,20.6-6.58,22.31-7.92.9-8.66,5.55.82,22.18-1.41,22.69-8.45-1.33-8.45-1.33-13.27,23.83-18.81,26-27.45-8.22-47.67-46.87a178.47,178.47,0,0,1,37.5-33.44c21.65-13.87,48-8.41,48-8.41l8,1.24Z" transform="translate(25.31)"/><path class="b01bab70-417e-4cb4-a71b-a0951a5dd84c" d="M268.32,190.35l3.4-5.87c-16.11-9.26-25.32-1.65-29.74,4.73s-10.55,0-13.3-4.31c-3.6-5.78-3.73-11.5-3.07-18,.13-1.17,2.22-15.82,3.29-15.9l-12.68,4.54-3.29,1.51-12.7,2.32S218.11,198,236.92,207c15.73,7.58,18.08,1.88,18.08,1.88a27.65,27.65,0,0,0,5.57-6.58s-10.88-2-6.85-11.15S268.32,190.35,268.32,190.35Z" transform="translate(25.31)"/><path class="b01bab70-417e-4cb4-a71b-a0951a5dd84c" d="M298.2,104.3c-6.72-14.9-93-29.82-108.08,5.41-8.22,19.3-11,31.41-9,40.86l14.7,11.73s30.69-5.75,40-13.39l-1.49,5.77c3.5-3.59,1.38.85,1.38.85s4.6,1.56,2.09,12l18.08.21s-.69-14.79,15.34-20.5S295,144.51,295,144.51,304.94,119.3,298.2,104.3Z" transform="translate(25.31)"/><path class="a9bed4d0-6a1f-4b31-bd53-975559ead887" d="M302.13,106.46c-2.76-7.73-10.56-24.66-27.8-35.16-34.52-20.94-84.08-3.06-90.72,42.2-.91,6.2-2.75,12.82-3.29,20.37a3.58,3.58,0,0,0,3.1,4,3.62,3.62,0,0,0,.93,0c14.79-2.63,66-12.12,115.27-26.3a4,4,0,0,0,2.56-5A.54.54,0,0,0,302.13,106.46Z" transform="translate(25.31)"/><path class="af8d6c53-01a6-4a4e-b92d-e7ad1de51070" d="M244.05,159.79s-1.9-14.8-12.1-11-6.85,29.59,2.75,26.38S244.05,159.79,244.05,159.79Z" transform="translate(25.31)"/><path class="a9bed4d0-6a1f-4b31-bd53-975559ead887" d="M389.57,446.78c-1.29-16.44-24.5-21.72-24.5-21.72l-99.32-11.85-202,52.52c-1.48.4-.79,4.51.69,9.54,1.77,16.44,8.22,49.54,31.23,62.94,31.12,18.09,70.56,16.18,104.5-1.74,4.21,9.86,6.79,11,6.79,11,14.34-2.38,156.86-50.43,168-57.2S390.82,463.3,389.57,446.78Z" transform="translate(25.31)"/><path class="e339930d-3785-41ca-93e3-9cb2f06219af" d="M238.15,425.88l-57.21,9.36L63.77,465.73c-1.48.4-.79,4.51.69,9.54.1.88.19,1.82.33,2.79,9,15.39,32.87,42.74,88,37.38C228.57,507.93,238.15,425.88,238.15,425.88Z" transform="translate(25.31)"/><path class="a9bed4d0-6a1f-4b31-bd53-975559ead887" d="M150.89,168.3s15-6.82,21.11-4.75,48.64,42,50.78,50.43a83.47,83.47,0,0,1,1.94,18.91s20.63,14.89,25.24,22.6c0,0-58.63,10.52-51,90.25,0,0,23,34.52,29.08,47.67s20.29,29.89,37.58,19.86c0,0-14.45,102.45-111.68,95.81,0,0-69.23.11-90.29-43.35,0,0,3.62-30.25,12.68-54.41s6.66-27.46-5.21-81.1S80.32,213,93.34,189.5,114.86,161.3,150.89,168.3Z" transform="translate(25.31)"/><path class="e339930d-3785-41ca-93e3-9cb2f06219af" d="M200.13,536.42l154.61-60.3S241.87,509.38,200.13,536.42Z" transform="translate(25.31)"/><path class="e339930d-3785-41ca-93e3-9cb2f06219af" d="M143.05,393.55C91.71,381.29,75,346.8,75,346.8c8.54,38,9.5,43.08,1.49,64.45-9.06,24.17-12.67,54.42-12.67,54.42s8-39.82,16.76-54.93S143.05,393.55,143.05,393.55Z" transform="translate(25.31)"/><path class="e339930d-3785-41ca-93e3-9cb2f06219af" d="M222.78,214c-2.15-8.48-44.71-48.36-50.78-50.43s-21.11,4.78-21.11,4.78,38.11,49.32,73.83,64.59A83.16,83.16,0,0,0,222.78,214Z" transform="translate(25.31)"/></svg>