<svg xmlns="http://www.w3.org/2000/svg" viewBox="0 0 190.07 62.31"><defs><style>.a{fill:#032e63;}</style></defs><path class="a" d="M166.52,291.9h0c1,0,1.45.61,1.45,1.83h0a5.28,5.28,0,0,1-1.57,3.65h0a34.71,34.71,0,0,0-5.11,7.75h0q-3.53,7-3.52,12.72h0a5.29,5.29,0,0,0,.78,3.22,2.29,2.29,0,0,0,1.8,1h0q3,0,7.05-4.92h0a42.49,42.49,0,0,0,5.49-9h0c.33-.67.67-1,1-.88s.36.47.07,1.14h0a53.31,53.31,0,0,1-5.86,10.08h0a14.62,14.62,0,0,1-4.22,3.87,9.52,9.52,0,0,1-5,1.54,4.16,4.16,0,0,1-3.75-2,8.54,8.54,0,0,1-1.26-4.69,22.1,22.1,0,0,1,.66-5.36,11.79,11.79,0,0,1,1.73-4.09h0a59.86,59.86,0,0,1-13.54,12.22h0a19.22,19.22,0,0,1-8.38,2.77h0a12.5,12.5,0,0,1-1.48.06,5.66,5.66,0,0,1-2.49-.75h0q-4.55-1.89-4.54-9.23T130.61,297h0a45.9,45.9,0,0,1,5.55-8h0a20.08,20.08,0,0,1-6.3-4.35h0a5.94,5.94,0,0,1-1.52-4.09c0-1.6.32-2.61.95-3h0c.42-.55.8-.65,1.13-.31h0a1.4,1.4,0,0,1,0,1.38,4.06,4.06,0,0,0-.34,1.58h0a6,6,0,0,0,1.83,3.78,15.83,15.83,0,0,0,5.35,3.72h0Q152.1,271.22,168,271.23h0a12.73,12.73,0,0,1,7.91,2.24,6.94,6.94,0,0,1,2.93,5.76h0q0,3.86-4.28,7.44h0a18.56,18.56,0,0,1-6.11,3.28h0a43.17,43.17,0,0,1-14.4,2.14,45.68,45.68,0,0,1-13.83-1.77h0q-6.36,9-8.76,15c-1.59,4-2.39,7-2.39,9.23h0a11.77,11.77,0,0,0,.06,1.25h0c.51,3.49,2.27,5.23,5.3,5.23h0q5.1,0,11.84-5.54h0a75.72,75.72,0,0,0,9.39-9.58,60,60,0,0,0,6.83-9.76C164,293.31,165.35,291.9,166.52,291.9Zm9.77-13.42h0a4.67,4.67,0,0,0-2.24-4.16,11.18,11.18,0,0,0-6.14-1.45,25,25,0,0,0-7.78,1.26,25.69,25.69,0,0,0-7.25,3.72,52.31,52.31,0,0,0-6,5q-2.62,2.58-5.64,6.17h0a38.35,38.35,0,0,0,11.59,1.51h0q12.92,0,18.84-4.15h0Q176.3,283.19,176.29,278.48Zm.31,29.29q-.06.25-.57,1.74c-.33,1-.62,1.93-.85,2.83a11,11,0,0,0-.34,2.71,5.18,5.18,0,0,0,.63,2.52,2.12,2.12,0,0,0,2,1.17h0q2.27,0,4.41-3.06a63.8,63.8,0,0,0,4.54-7.78h0c.33-.59.65-.82.95-.69h0a.49.49,0,0,1,.12.66c-.13.27-.39.86-.79,1.76s-.69,1.54-.88,1.89-.52,1-1,1.89a12.61,12.61,0,0,1-1.26,2c-.35.44-.84,1-1.45,1.7a7.79,7.79,0,0,1-1.73,1.54h0a7.83,7.83,0,0,1-4.16,1.39,4.72,4.72,0,0,1-3-.85,3.39,3.39,0,0,1-1.29-1.83,7.72,7.72,0,0,1-.22-1.73q0-.76.06-1.95h0a18.83,18.83,0,0,1,.79-3.91c.4-1.26.62-2,.66-2.14h0a87.4,87.4,0,0,1,4.13-11.4,85.57,85.57,0,0,1,4.53-9.3,26.8,26.8,0,0,1,2.93-4.25h0c1.43-1.51,2.83-2.27,4.22-2.27h0c1,0,1.62.69,2,2.08h0a6.22,6.22,0,0,1,.06.95h0a13.55,13.55,0,0,1-1.51,5.41h0q-5.42,12-12.92,18.9Zm.51-2a50.18,50.18,0,0,0,6.36-8.26A61,61,0,0,0,188.1,289a15.48,15.48,0,0,0,1.48-4.76c0-.83-.15-1.25-.44-1.25h0c-.42,0-1.22.83-2.39,2.48a62.21,62.21,0,0,0-4.76,8.95q-3,6.46-4.88,11.31Zm92.61-32.13h0l-2.65.57a100.62,100.62,0,0,0-7.75,20.28h0a64,64,0,0,1-3.65,9.55,51.24,51.24,0,0,1-5.86,9.67h0q-12.54,16.07-32.07,16.06h0q-9.08,0-14.43-3.91h0a12.78,12.78,0,0,1-4.85-7.05h0a15.51,15.51,0,0,1-.44-4,16.76,16.76,0,0,1,1.29-5.83,15.52,15.52,0,0,1,4.19-6c1.93-1.74,3.47-2.65,4.6-2.74h0c.42,0,.67.06.76.19h0c.13.17-.11.41-.7.7h0a12.41,12.41,0,0,0-4.34,3.71h0a15,15,0,0,0-3.72,10h0a10.45,10.45,0,0,0,2.71,7.24h0a17.75,17.75,0,0,0,9.64,5.17h0a20.74,20.74,0,0,0,4.22.63l3,0a20.62,20.62,0,0,0,4.07-.66h0a35.79,35.79,0,0,0,10-4.29,44.05,44.05,0,0,0,8.19-6.39,57.28,57.28,0,0,0,6.3-7.6h0a62.65,62.65,0,0,0,7.44-14h0a138,138,0,0,1,9.45-20.35h0a87.63,87.63,0,0,0-15.94,4.6h0a31.44,31.44,0,0,0-9.39,5.92h0a19.47,19.47,0,0,0-5.35,9.51h0a11.69,11.69,0,0,0-.38,2.78h0a6.2,6.2,0,0,0,1.45,4.28,4.19,4.19,0,0,0,3.12,1.64,9.78,9.78,0,0,0,3.59-.76,8.21,8.21,0,0,0,3.37-2.52h0a9.65,9.65,0,0,0,2-6.11h0c0-1.17-.17-1.91-.5-2.2h0q-.14-.19.12-.57h0q.63-.94,1.2,0h0a7.27,7.27,0,0,1,.82,3.43,8.63,8.63,0,0,1-1.2,4.07h0a11.35,11.35,0,0,1-6.17,5.54h0a12.12,12.12,0,0,1-4.32.76,8.17,8.17,0,0,1-4.94-2.08A7,7,0,0,1,230,297h0a13.15,13.15,0,0,1,.25-2.46h0q3.6-16.19,35.92-21.67h0a14.12,14.12,0,0,1,2-3,6.68,6.68,0,0,1,2.52-2.11,5.73,5.73,0,0,1,1.74-.35h0c1.38,0,2.09.59,2.14,1.77h0a3.27,3.27,0,0,1-1.51,2.9h0A14.59,14.59,0,0,1,269.72,273.63Zm-1.58-1h0c2.86-.59,4.23-1.38,4.1-2.39h0a.8.8,0,0,0-.85-.76Q270.65,269.47,268.14,272.62Zm-2.52,46.12h0a9.46,9.46,0,0,0,1.14.12h0q2.52,0,5-3h0a61.23,61.23,0,0,0,4.73-8.25h0a.45.45,0,0,1,.44-.32h0c.38,0,.57.11.57.44h0a2.94,2.94,0,0,1-.29.73c-.19.4-.36.8-.53,1.2s-.45,1-.82,1.73-.71,1.36-1,1.83-.62,1-1,1.7a7.42,7.42,0,0,1-1.26,1.57h0l-1.32,1.39a5.92,5.92,0,0,1-2.52,1.51h0a7.51,7.51,0,0,1-4.54.12h0a6.48,6.48,0,0,1-2.58.64h0q-4.47,0-5.42-3.53h0a8.78,8.78,0,0,1-.19-2,3.68,3.68,0,0,1,.79-2.23,2.43,2.43,0,0,1,1.67-1.14h0q3.21-6.1,5.48-11h0q2.52-5.36,5.86-5.36h0a4,4,0,0,1,1.73.41c.57.27.78.58.63.92s-.45.39-.91.18a3,3,0,0,0-1.2-.31,1.9,1.9,0,0,0-.88.19h0q-2.14,1-2.14,4.35h0a7.24,7.24,0,0,0,.5,2.89q.51,1.14,1.14,2.46h0a14.14,14.14,0,0,1,1.44,5.36h0a7.42,7.42,0,0,1-1.32,4.09A11.63,11.63,0,0,1,265.62,318.74Zm-2.14-.44h0q2.77-2.15,2.77-6.93h0a45,45,0,0,0-.44-5.36,45.09,45.09,0,0,1-.44-4.6,14.5,14.5,0,0,1,.06-1.64h0q-4.79,9.59-5.92,11.66h0q1.32,0,1.32,1.89h0Q260.83,317,263.48,318.3Zm-4.73-1.71h0a4.86,4.86,0,0,0,.07.82h0a2.2,2.2,0,0,0,2.33,1.7h0a2.8,2.8,0,0,0,1.26-.25h0a5.56,5.56,0,0,1-2.52-4.72h0A3.4,3.4,0,0,0,258.75,316.59Zm26.09-21.92h0q0,2.83-3.59,5.35h0c.83.05,2,.07,3.37.07s3.18-.11,5.32-.32h0a2.24,2.24,0,0,1,.13,1,6.35,6.35,0,0,1-.76,2.43c-.51,1.07-1,2-1.36,2.77s-.77,1.51-1.13,2.2-.76,1.54-1.2,2.55-.81,1.94-1.1,2.78h0q-1.57,4.78.51,4.79h0q2.64,0,7.81-10.53h0q.44-.82.72-.63a.58.58,0,0,1,.29.48,8.55,8.55,0,0,1-.82,1.95c-.55,1.11-1.14,2.26-1.77,3.43a23,23,0,0,1-3,4.1h0c-1.59,1.93-3.13,2.9-4.6,2.9h0c-1.63,0-2.77-1-3.4-3h0a5.54,5.54,0,0,1-.19-1.7,8.9,8.9,0,0,1,.73-3,32.85,32.85,0,0,1,2.29-4.6q1.58-2.71,1.77-3.18a2.36,2.36,0,0,0,.19-.91h0q0-2-5-2.08h0l-.76,2q-4,10.4-7.62,13.93h0c-.42.37-.63.25-.63-.38h0a1,1,0,0,1,.12-.44h0a48.77,48.77,0,0,0,6.12-11,59.84,59.84,0,0,0,3.59-12.09h0c.25-1.31.84-2,1.76-2s1.6.59,2,1.77h0A4,4,0,0,1,284.84,294.67Zm27.09,8.19a23.73,23.73,0,0,0-3.22,5.13,26.08,26.08,0,0,0-2.49,6,16.71,16.71,0,0,0-.4,3.21c0,.82.31,1.23.94,1.23h0c.8,0,1.79-.73,3-2.2h0a45.34,45.34,0,0,0,5.1-8.38h0q.26-.57.57-.63h0c.33-.13.5,0,.5.38h0a2,2,0,0,1-.18.75h0q-5.81,11.71-9.77,11.72h0a3.4,3.4,0,0,1-3-1.76h0a4.89,4.89,0,0,1-.57-2.53,14.76,14.76,0,0,1,.63-3.84h0q-5,8.13-8.69,8.13h0a2.94,2.94,0,0,1-1.83-.63h0q-1.89-1.32-1.89-4.54h0q0-6.17,5.36-12.53h0a13.86,13.86,0,0,1,7.43-4.6h0a9,9,0,0,1,2.27-.32h0a6.66,6.66,0,0,1,4.91,2h0a1.22,1.22,0,0,1,.38,1.32.87.87,0,0,1-1.07.51h0a2.9,2.9,0,0,0-3-2.27h0c-1.81,0-4,1.43-6.68,4.28h0a34.36,34.36,0,0,0-4.22,5.92h0c-1.64,2.73-2.46,4.92-2.46,6.55s.52,2.46,1.57,2.46h0q3.78,0,9.9-11.59h0a14.24,14.24,0,0,1,2-3.18,2.76,2.76,0,0,1,2.08-.85h0a9.73,9.73,0,0,1,1.29.19,3.81,3.81,0,0,0,1.55.06Z" transform="translate(-125.82 -267.45)"/></svg>