<?xml version="1.0" encoding="utf-8"?>
<!-- Generator: Adobe Illustrator 25.2.0, SVG Export Plug-In . SVG Version: 6.00 Build 0)  -->
<svg version="1.1" id="visual" xmlns="http://www.w3.org/2000/svg" xmlns:xlink="http://www.w3.org/1999/xlink" x="0px" y="0px"
	 viewBox="0 0 900 600" style="enable-background:new 0 0 900 600;" xml:space="preserve">
<style type="text/css">
	.st0{opacity:0.4;fill:#E7E4D1;}
	.st1{fill:#E7E4D1;}
	.st2{opacity:0.3;fill:#E7E4D1;}
	.st3{opacity:0.5;}
	.st4{fill:#DDE1D1;}
	.st5{fill:#D0D4C4;}
	.st6{fill:#B2A427;}
	.st7{fill:#DECC30;}
</style>
<path class="st0" d="M900,601c1.7-32.5,0.4-488.8,0-489.4c-1.8-3.1-90.3-40.8-157.8-48.9c-55.6-6.7-59.5,24.6-127.6,30.6
	c-97.7,8.7-115.3-53.4-199-48.3c-103.5,6.3-126.6,104.3-204.5,90.7c-63.3-11-82.9-81.9-144.2-78C37.7,59.7,14.8,77.2,0,91.8
	C0,261.5,0,431.3,0,601C0,601.6,898.8,601.5,900,601z"/>
<path class="st1" d="M900,106.6"/>
<path class="st2" d="M899.6,599.5c1.7-35.1,0.4-526.8,0-527.5c-1.8-3.4-90.3-44-157.8-52.7c-55.6-7.2-59.5,26.5-127.6,33
	c-97.7,9.4-115.3-57.5-199-52C311.8,7.1,288.7,112.8,210.7,98.1c-63.3-11.9-82.9-88.2-144.2-84C37.3,16.1,14.4,35-0.4,50.7
	c0,182.9,0,365.9,0,548.8C-0.4,600.2,898.3,600.1,899.6,599.5z"/>
<g class="st3">
	<path class="st4" d="M769.7,238.1c-0.1-0.1-0.1-0.2,0-0.4c0,0,0,0,0,0c0.2-0.2,0.4-0.4,0.6-0.7c0.6-1.2-1.3-3.7-3.9-3.7
		c-1.4,0.1-2.8,0.5-4,1.4c0.8-1.2,1.3-2.6,1.4-4c0-2.7-2.5-4.5-3.7-3.9c-0.3,0.1-0.5,0.3-0.7,0.6c-0.1,0.1-0.2,0.1-0.4,0
		c0,0,0,0,0,0c-0.2-0.2-0.4-0.4-0.7-0.6c-1.2-0.6-3.7,1.3-3.7,3.9c0.1,1.4,0.5,2.8,1.4,4c-1.2-0.8-2.6-1.3-4-1.4
		c-2.7,0-4.5,2.5-3.9,3.7c0.1,0.3,0.3,0.5,0.6,0.7c0.1,0.1,0.1,0.2,0,0.4c0,0,0,0,0,0c-0.2,0.2-0.4,0.4-0.6,0.7
		c-0.6,1.2,1.3,3.7,3.9,3.7c1.4-0.1,2.8-0.5,4-1.4c-0.8,1.2-1.3,2.6-1.4,4c0,2.7,2.5,4.5,3.7,3.9c0.3-0.1,0.5-0.3,0.7-0.6
		c0.1-0.1,0.2-0.1,0.4,0c0,0,0,0,0,0c0.2,0.2,0.4,0.4,0.7,0.6c1.2,0.6,3.7-1.3,3.7-3.9c-0.1-1.4-0.5-2.8-1.4-4
		c1.2,0.8,2.6,1.3,4,1.4c2.7,0,4.5-2.5,3.9-3.7C770.1,238.5,769.9,238.2,769.7,238.1z"/>
	<path class="st5" d="M761.5,237.9C761.4,237.9,761.4,237.8,761.5,237.9C761.5,237.8,761.5,237.8,761.5,237.9
		c0.1-0.1,0.1-0.2,0.1-0.2c0.1-0.3-0.3-0.8-0.9-0.8c-0.3,0-0.6,0.1-0.9,0.3c0.2-0.3,0.3-0.6,0.3-0.9c0-0.6-0.6-1-0.8-0.9
		c-0.1,0-0.1,0.1-0.1,0.1c0,0-0.1,0-0.1,0c0,0,0,0,0,0c0-0.1-0.1-0.1-0.2-0.1c-0.3-0.1-0.8,0.3-0.8,0.9c0,0.3,0.1,0.6,0.3,0.9
		c-0.3-0.2-0.6-0.3-0.9-0.3c-0.6,0-1,0.6-0.9,0.8c0,0.1,0.1,0.1,0.1,0.1c0,0,0,0.1,0,0.1c0,0,0,0,0,0c-0.1,0-0.1,0.1-0.1,0.2
		c-0.1,0.3,0.3,0.8,0.9,0.8c0.3,0,0.6-0.1,0.9-0.3c-0.2,0.3-0.3,0.6-0.3,0.9c0,0.6,0.6,1,0.8,0.9c0.1,0,0.1-0.1,0.2-0.1
		c0,0,0.1,0,0.1,0c0,0,0,0,0,0c0,0.1,0.1,0.1,0.1,0.1c0.3,0.1,0.8-0.3,0.8-0.9c0-0.3-0.1-0.6-0.3-0.9c0.3,0.2,0.6,0.3,0.9,0.3
		c0.6,0,1-0.6,0.9-0.8C761.6,238,761.5,237.9,761.5,237.9z"/>
	<circle class="st6" cx="759.1" cy="237.9" r="1.6"/>
	<path class="st7" d="M758.9,236.8c0,0.2-0.2,0.3-0.4,0.3c-0.2,0-0.3-0.1-0.3-0.3c0-0.2,0.1-0.4,0.3-0.4c0.2,0,0.4,0.1,0.4,0.3
		C758.9,236.7,758.9,236.7,758.9,236.8z"/>
	<circle class="st7" cx="759.3" cy="236.7" r="0.4"/>
	<circle class="st7" cx="759.4" cy="237.4" r="0.4"/>
	<path class="st7" d="M759.1,238.3c0,0.2-0.1,0.4-0.3,0.4c-0.2,0-0.4-0.1-0.4-0.3c0,0,0-0.1,0-0.1c0-0.2,0.2-0.3,0.4-0.3
		C759,238,759.1,238.1,759.1,238.3z"/>
	<path class="st7" d="M759.8,238.2c0,0.2-0.1,0.4-0.3,0.4c-0.2,0-0.4-0.1-0.4-0.3c0,0,0-0.1,0-0.1c0-0.2,0.2-0.3,0.4-0.3
		C759.7,237.9,759.8,238,759.8,238.2z"/>
	<circle class="st7" cx="759.1" cy="238.9" r="0.4"/>
	<circle class="st7" cx="759.8" cy="238.8" r="0.4"/>
	<circle class="st7" cx="757.9" cy="237.5" r="0.4"/>
	<circle class="st7" cx="758" cy="238.2" r="0.4"/>
	<path class="st7" d="M758.7,238.8c0,0.2-0.2,0.3-0.4,0.3c-0.2,0-0.3-0.2-0.3-0.4c0-0.2,0.2-0.3,0.3-0.3
		C758.6,238.5,758.7,238.6,758.7,238.8C758.7,238.8,758.7,238.8,758.7,238.8z"/>
	<path class="st7" d="M760.6,238c0,0.2-0.2,0.3-0.4,0.3c-0.2,0-0.3-0.1-0.3-0.3c0-0.2,0.1-0.4,0.3-0.4s0.4,0.1,0.4,0.3
		C760.6,237.9,760.6,237.9,760.6,238z"/>
	<circle class="st7" cx="758.7" cy="237.5" r="0.4"/>
	<circle class="st7" cx="760" cy="237.1" r="0.4"/>
</g>
<g class="st3">
	<path class="st4" d="M444.7,359.8c-0.1-0.1-0.1-0.2,0-0.4c0,0,0,0,0,0c0.2-0.2,0.4-0.4,0.6-0.7c0.6-1.2-1.3-3.7-3.9-3.7
		c-1.4,0.1-2.8,0.5-4,1.4c0.8-1.2,1.3-2.6,1.4-4c0-2.7-2.5-4.5-3.7-3.9c-0.3,0.1-0.5,0.3-0.7,0.6c-0.1,0.1-0.2,0.1-0.4,0
		c0,0,0,0,0,0c-0.2-0.2-0.4-0.4-0.7-0.6c-1.2-0.6-3.7,1.3-3.7,3.9c0.1,1.4,0.5,2.8,1.4,4c-1.2-0.8-2.6-1.3-4-1.4
		c-2.7,0-4.5,2.5-3.9,3.7c0.1,0.3,0.3,0.5,0.6,0.7c0.1,0.1,0.1,0.2,0,0.4c0,0,0,0,0,0c-0.2,0.2-0.4,0.4-0.6,0.7
		c-0.6,1.2,1.3,3.7,3.9,3.7c1.4-0.1,2.8-0.5,4-1.4c-0.8,1.2-1.3,2.6-1.4,4c0,2.7,2.5,4.5,3.7,3.9c0.3-0.1,0.5-0.3,0.7-0.6
		c0.1-0.1,0.2-0.1,0.4,0c0,0,0,0,0,0c0.2,0.2,0.4,0.4,0.7,0.6c1.2,0.6,3.7-1.3,3.7-3.9c-0.1-1.4-0.5-2.8-1.4-4
		c1.2,0.8,2.6,1.3,4,1.4c2.7,0,4.5-2.5,3.9-3.7C445.1,360.2,444.9,360,444.7,359.8z"/>
	<path class="st5" d="M436.4,359.6C436.4,359.6,436.4,359.6,436.4,359.6C436.4,359.5,436.4,359.5,436.4,359.6
		c0.1-0.1,0.1-0.2,0.1-0.2c0.1-0.3-0.3-0.8-0.9-0.8c-0.3,0-0.6,0.1-0.9,0.3c0.2-0.3,0.3-0.6,0.3-0.9c0-0.6-0.6-1-0.8-0.9
		c-0.1,0-0.1,0.1-0.1,0.1c0,0-0.1,0-0.1,0c0,0,0,0,0,0c0-0.1-0.1-0.1-0.2-0.1c-0.3-0.1-0.8,0.3-0.8,0.9c0,0.3,0.1,0.6,0.3,0.9
		c-0.3-0.2-0.6-0.3-0.9-0.3c-0.6,0-1,0.6-0.9,0.8c0,0.1,0.1,0.1,0.1,0.1c0,0,0,0.1,0,0.1c0,0,0,0,0,0c-0.1,0-0.1,0.1-0.1,0.2
		c-0.1,0.3,0.3,0.8,0.9,0.8c0.3,0,0.6-0.1,0.9-0.3c-0.2,0.3-0.3,0.6-0.3,0.9c0,0.6,0.6,1,0.8,0.9c0.1,0,0.1-0.1,0.2-0.1
		c0,0,0.1,0,0.1,0c0,0,0,0,0,0c0,0.1,0.1,0.1,0.1,0.1c0.3,0.1,0.8-0.3,0.8-0.9c0-0.3-0.1-0.6-0.3-0.9c0.3,0.2,0.6,0.3,0.9,0.3
		c0.6,0,1-0.6,0.9-0.8C436.5,359.7,436.5,359.7,436.4,359.6z"/>
	<circle class="st6" cx="434.1" cy="359.6" r="1.6"/>
	<path class="st7" d="M433.9,358.5c0,0.2-0.2,0.3-0.4,0.3c-0.2,0-0.3-0.1-0.3-0.3c0-0.2,0.1-0.4,0.3-0.4c0.2,0,0.4,0.1,0.4,0.3
		C433.9,358.4,433.9,358.5,433.9,358.5z"/>
	<circle class="st7" cx="434.3" cy="358.4" r="0.4"/>
	<circle class="st7" cx="434.4" cy="359.1" r="0.4"/>
	<path class="st7" d="M434.1,360c0,0.2-0.1,0.4-0.3,0.4c-0.2,0-0.4-0.1-0.4-0.3c0,0,0-0.1,0-0.1c0-0.2,0.2-0.3,0.4-0.3
		C433.9,359.7,434,359.9,434.1,360z"/>
	<path class="st7" d="M434.8,359.9c0,0.2-0.1,0.4-0.3,0.4s-0.4-0.1-0.4-0.3c0,0,0-0.1,0-0.1c0-0.2,0.2-0.3,0.4-0.3
		C434.7,359.6,434.8,359.7,434.8,359.9z"/>
	<circle class="st7" cx="434" cy="360.6" r="0.4"/>
	<circle class="st7" cx="434.8" cy="360.5" r="0.4"/>
	<circle class="st7" cx="432.9" cy="359.2" r="0.4"/>
	<circle class="st7" cx="433" cy="360" r="0.4"/>
	<path class="st7" d="M433.7,360.6c0,0.2-0.2,0.3-0.4,0.3c-0.2,0-0.3-0.2-0.3-0.4c0-0.2,0.2-0.3,0.3-0.3
		C433.5,360.2,433.7,360.4,433.7,360.6C433.7,360.6,433.7,360.6,433.7,360.6z"/>
	<path class="st7" d="M435.6,359.7c0,0.2-0.2,0.3-0.4,0.3c-0.2,0-0.3-0.1-0.3-0.3c0-0.2,0.1-0.4,0.3-0.4c0.2,0,0.4,0.1,0.4,0.3
		C435.6,359.6,435.6,359.7,435.6,359.7z"/>
	<circle class="st7" cx="433.6" cy="359.2" r="0.4"/>
	<circle class="st7" cx="435" cy="358.9" r="0.4"/>
</g>
<g class="st3">
	<path class="st4" d="M63.4,160.6c-0.1-0.1-0.1-0.2,0-0.4c0,0,0,0,0,0c0.2-0.2,0.4-0.4,0.6-0.7c0.6-1.2-1.3-3.7-3.9-3.7
		c-1.4,0.1-2.8,0.5-4,1.4c0.8-1.2,1.3-2.6,1.4-4c0-2.7-2.5-4.5-3.7-3.9c-0.3,0.1-0.5,0.3-0.7,0.6c-0.1,0.1-0.2,0.1-0.3,0
		c0,0,0,0-0.1,0c-0.2-0.2-0.4-0.4-0.7-0.6c-1.2-0.6-3.7,1.3-3.7,3.9c0.1,1.4,0.5,2.8,1.4,4c-1.2-0.8-2.6-1.3-4-1.4
		c-2.7,0-4.5,2.5-3.9,3.7c0.1,0.3,0.3,0.5,0.6,0.7c0.1,0.1,0.1,0.2,0,0.4c0,0,0,0,0,0c-0.2,0.2-0.4,0.4-0.6,0.7
		c-0.6,1.2,1.3,3.7,3.9,3.7c1.4-0.1,2.8-0.5,4-1.4c-0.8,1.2-1.3,2.6-1.4,4c0,2.7,2.5,4.5,3.7,3.9c0.3-0.1,0.5-0.3,0.7-0.6
		c0.1-0.1,0.2-0.1,0.3,0c0,0,0,0,0.1,0c0.2,0.2,0.4,0.4,0.7,0.6c1.2,0.6,3.7-1.3,3.7-3.9c-0.1-1.4-0.5-2.8-1.4-4
		c1.2,0.8,2.6,1.3,4,1.4c2.7,0,4.5-2.5,3.9-3.7C63.8,161.1,63.6,160.8,63.4,160.6z"/>
	<path class="st5" d="M55.2,160.5C55.1,160.5,55.1,160.4,55.2,160.5C55.2,160.4,55.2,160.4,55.2,160.5c0.1-0.1,0.1-0.2,0.1-0.2
		c0.1-0.3-0.3-0.8-0.9-0.8c-0.3,0-0.6,0.1-0.9,0.3c0.2-0.3,0.3-0.6,0.3-0.9c0-0.6-0.6-1-0.8-0.9c-0.1,0-0.1,0.1-0.2,0.1
		c0,0-0.1,0-0.1,0c0,0,0,0,0,0c0-0.1-0.1-0.1-0.2-0.1c-0.3-0.1-0.8,0.3-0.8,0.9c0,0.3,0.1,0.6,0.3,0.9c-0.3-0.2-0.6-0.3-0.9-0.3
		c-0.6,0-1,0.6-0.9,0.8c0,0.1,0.1,0.1,0.1,0.1c0,0,0,0.1,0,0.1c0,0,0,0,0,0c-0.1,0-0.1,0.1-0.1,0.2c-0.1,0.3,0.3,0.8,0.9,0.8
		c0.3,0,0.6-0.1,0.9-0.3c-0.2,0.3-0.3,0.6-0.3,0.9c0,0.6,0.6,1,0.8,0.9c0.1,0,0.1-0.1,0.2-0.1c0,0,0.1,0,0.1,0c0,0,0,0,0,0
		c0,0.1,0.1,0.1,0.2,0.1c0.3,0.1,0.8-0.3,0.8-0.9c0-0.3-0.1-0.6-0.3-0.9c0.3,0.2,0.6,0.3,0.9,0.3c0.6,0,1-0.6,0.9-0.8
		C55.3,160.6,55.2,160.5,55.2,160.5z"/>
	<circle class="st6" cx="52.8" cy="160.4" r="1.6"/>
	<path class="st7" d="M52.7,159.4c0,0.2-0.2,0.3-0.4,0.3c-0.2,0-0.3-0.1-0.3-0.3c0-0.2,0.1-0.4,0.3-0.4c0.2,0,0.4,0.1,0.4,0.3
		C52.7,159.3,52.7,159.3,52.7,159.4z"/>
	<circle class="st7" cx="53.1" cy="159.3" r="0.4"/>
	<circle class="st7" cx="53.1" cy="160" r="0.4"/>
	<path class="st7" d="M52.8,160.9c0,0.2-0.1,0.4-0.3,0.4c-0.2,0-0.4-0.1-0.4-0.3c0,0,0-0.1,0-0.1c0-0.2,0.2-0.3,0.4-0.3
		C52.7,160.6,52.8,160.7,52.8,160.9z"/>
	<path class="st7" d="M53.5,160.7c0,0.2-0.1,0.4-0.3,0.4c-0.2,0-0.4-0.1-0.4-0.3c0,0,0-0.1,0-0.1c0-0.2,0.2-0.3,0.4-0.3
		C53.4,160.5,53.5,160.6,53.5,160.7z"/>
	<circle class="st7" cx="52.8" cy="161.4" r="0.4"/>
	<circle class="st7" cx="53.5" cy="161.4" r="0.4"/>
	<circle class="st7" cx="51.7" cy="160.1" r="0.4"/>
	<circle class="st7" cx="51.7" cy="160.8" r="0.4"/>
	<path class="st7" d="M52.4,161.4c0,0.2-0.2,0.3-0.4,0.3c-0.2,0-0.3-0.2-0.3-0.4c0-0.2,0.2-0.3,0.3-0.3
		C52.3,161.1,52.4,161.2,52.4,161.4C52.4,161.4,52.4,161.4,52.4,161.4z"/>
	<path class="st7" d="M54.3,160.5c0,0.2-0.2,0.3-0.4,0.3c-0.2,0-0.3-0.1-0.3-0.3c0-0.2,0.1-0.4,0.3-0.4c0.2,0,0.4,0.1,0.4,0.3
		C54.3,160.5,54.3,160.5,54.3,160.5z"/>
	<circle class="st7" cx="52.4" cy="160.1" r="0.4"/>
	<circle class="st7" cx="53.8" cy="159.7" r="0.4"/>
</g>
<g class="st3">
	<path class="st4" d="M688.1,541.2c-0.1-0.1-0.1-0.2,0-0.3c0,0,0,0,0,0c0.2-0.2,0.4-0.4,0.6-0.7c0.6-1.2-1.3-3.7-3.9-3.7
		c-1.4,0.1-2.8,0.5-4,1.4c0.8-1.2,1.3-2.6,1.4-4c0-2.7-2.5-4.5-3.7-3.9c-0.3,0.1-0.5,0.3-0.7,0.6c-0.1,0.1-0.2,0.1-0.4,0
		c0,0,0,0,0,0c-0.2-0.2-0.4-0.4-0.7-0.6c-1.2-0.6-3.7,1.3-3.7,3.9c0.1,1.4,0.5,2.8,1.4,4c-1.2-0.8-2.6-1.3-4-1.4
		c-2.7,0-4.5,2.5-3.9,3.7c0.1,0.3,0.3,0.5,0.6,0.7c0.1,0.1,0.1,0.2,0,0.3c0,0,0,0,0,0c-0.2,0.2-0.4,0.4-0.6,0.7
		c-0.6,1.2,1.3,3.7,3.9,3.7c1.4-0.1,2.8-0.5,4-1.4c-0.8,1.2-1.3,2.6-1.4,4c0,2.7,2.5,4.5,3.7,3.9c0.3-0.1,0.5-0.3,0.7-0.6
		c0.1-0.1,0.2-0.1,0.3,0c0,0,0,0,0.1,0c0.2,0.2,0.4,0.4,0.7,0.6c1.2,0.6,3.7-1.3,3.7-3.9c-0.1-1.4-0.5-2.8-1.4-4
		c1.2,0.8,2.6,1.3,4,1.4c2.7,0,4.5-2.5,3.9-3.7C688.5,541.6,688.3,541.4,688.1,541.2z"/>
	<path class="st5" d="M679.8,541.1C679.8,541,679.8,541,679.8,541.1C679.8,541,679.8,541,679.8,541.1c0.1-0.1,0.1-0.2,0.1-0.2
		c0.1-0.3-0.3-0.8-0.9-0.8c-0.3,0-0.6,0.1-0.9,0.3c0.2-0.3,0.3-0.6,0.3-0.9c0-0.6-0.6-1-0.8-0.9c-0.1,0-0.1,0.1-0.2,0.1
		c0,0-0.1,0-0.1,0c0,0,0,0,0,0c0-0.1-0.1-0.1-0.2-0.1c-0.3-0.1-0.8,0.3-0.8,0.9c0,0.3,0.1,0.6,0.3,0.9c-0.3-0.2-0.6-0.3-0.9-0.3
		c-0.6,0-1,0.6-0.9,0.8c0,0.1,0.1,0.1,0.1,0.1c0,0,0,0.1,0,0.1c0,0,0,0,0,0c-0.1,0-0.1,0.1-0.1,0.2c-0.1,0.3,0.3,0.8,0.9,0.8
		c0.3,0,0.6-0.1,0.9-0.3c-0.2,0.3-0.3,0.6-0.3,0.9c0,0.6,0.6,1,0.8,0.9c0.1,0,0.1-0.1,0.2-0.1c0,0,0.1,0,0.1,0c0,0,0,0,0,0
		c0,0.1,0.1,0.1,0.2,0.1c0.3,0.1,0.8-0.3,0.8-0.9c0-0.3-0.1-0.6-0.3-0.9c0.3,0.2,0.6,0.3,0.9,0.3c0.6,0,1-0.6,0.9-0.8
		C679.9,541.2,679.9,541.1,679.8,541.1z"/>
	<circle class="st6" cx="677.5" cy="541" r="1.6"/>
	<path class="st7" d="M677.3,539.9c0,0.2-0.2,0.3-0.4,0.3c-0.2,0-0.3-0.1-0.3-0.3c0-0.2,0.1-0.4,0.3-0.4c0.2,0,0.4,0.1,0.4,0.3
		C677.3,539.9,677.3,539.9,677.3,539.9z"/>
	<circle class="st7" cx="677.7" cy="539.9" r="0.4"/>
	<circle class="st7" cx="677.8" cy="540.6" r="0.4"/>
	<path class="st7" d="M677.5,541.4c0,0.2-0.1,0.4-0.3,0.4c-0.2,0-0.4-0.1-0.4-0.3c0,0,0-0.1,0-0.1c0-0.2,0.2-0.3,0.4-0.3
		C677.3,541.2,677.5,541.3,677.5,541.4z"/>
	<path class="st7" d="M678.2,541.3c0,0.2-0.1,0.4-0.3,0.4c-0.2,0-0.4-0.1-0.4-0.3c0,0,0-0.1,0-0.1c0-0.2,0.2-0.3,0.4-0.3
		C678.1,541,678.2,541.2,678.2,541.3z"/>
	<circle class="st7" cx="677.4" cy="542" r="0.4"/>
	<circle class="st7" cx="678.2" cy="542" r="0.4"/>
	<circle class="st7" cx="676.3" cy="540.7" r="0.4"/>
	<circle class="st7" cx="676.4" cy="541.4" r="0.4"/>
	<path class="st7" d="M677.1,542c0,0.2-0.2,0.3-0.4,0.3c-0.2,0-0.3-0.2-0.3-0.4c0-0.2,0.2-0.3,0.3-0.3
		C676.9,541.6,677.1,541.8,677.1,542C677.1,542,677.1,542,677.1,542z"/>
	<path class="st7" d="M679,541.1c0,0.2-0.2,0.3-0.4,0.3c-0.2,0-0.3-0.1-0.3-0.3c0-0.2,0.1-0.4,0.3-0.4s0.4,0.1,0.4,0.3
		C679,541,679,541.1,679,541.1z"/>
	<circle class="st7" cx="677.1" cy="540.7" r="0.4"/>
	<circle class="st7" cx="678.4" cy="540.3" r="0.4"/>
</g>
</svg>
