<svg xmlns="http://www.w3.org/2000/svg" viewBox="0 0 6046.6 2603.26"><defs><style>.a0de5050-a2e6-43de-9fd5-c0c1247dd38b{fill:#f1f0e9;fill-rule:evenodd;opacity:0.45;}</style></defs><g id="b54fc914-224c-4ada-9591-dfc5a94e6ba5" data-name="Layer 1"><path class="a0de5050-a2e6-43de-9fd5-c0c1247dd38b" d="M-1794.1,1762.16c155.9,139.33,403.07,337.29,739.27,513.34,217.73,114,604.46,287.78,2269.49,495.59,1041.35,130,1268.42,109.21,1714.68,233.2,87.08,24.2,349.39,100.42,712.38,150.09a5141.72,5141.72,0,0,0,610.78,46.67V1909.94c-168,64.84-325.27,112.73-471.85,147.14-216.91,50.92-325.66,83.86-407.89,66.28-225.7-48.25-226.12-312-523.58-578.27-230.39-206.26-488.76-271.56-580.56-293.66-352.58-84.9-470.28,42.68-925.28-18.39-280.89-37.7-211.86-83.08-508.6-128.68C339.58,1028.27,145,1154.28-289,1026.18c-179.64-53-166.16-85-317.82-127.5C-1123,754.06-1636.67,964.81-1785.4,1031.06Z" transform="translate(1794.1 -849.03)"/><path class="a0de5050-a2e6-43de-9fd5-c0c1247dd38b" d="M-1794.1,2013.4c155.9,139.32,403.07,337.28,739.27,513.33,217.73,114,604.46,287.78,2269.49,495.59,1041.35,130,1268.42,109.22,1714.68,233.2,87.08,24.2,349.39,100.43,712.38,150.1a5141.31,5141.31,0,0,0,610.78,46.66V2161.18c-168,64.83-325.27,112.72-471.85,147.13-216.91,50.93-325.66,83.86-407.89,66.28-225.7-48.25-226.12-312-523.58-578.27-230.39-206.26-488.76-271.55-580.56-293.66-352.58-84.9-470.28,42.69-925.28-18.38-280.89-37.71-211.86-83.09-508.6-128.68C339.58,1279.51,145,1405.52-289,1277.42c-179.64-53-166.16-85-317.82-127.5C-1123,1005.29-1636.67,1216-1785.4,1282.29Z" transform="translate(1794.1 -849.03)"/></g></svg>