<svg xmlns="http://www.w3.org/2000/svg" viewBox="0 0 6077 2768.7"><defs><style>.b0528100-cb76-4931-b358-0f7bc76d3dc4{fill:#f1f0e9;fill-rule:evenodd;opacity:0.45;}</style></defs><g id="aabba23d-cdfd-4e05-82f5-bb724ebccdb5" data-name="Layer 1"><path class="b0528100-cb76-4931-b358-0f7bc76d3dc4" d="M-1794.1,1250c140.52,102.39,386.57,264,739.27,405.13C208.09,2160.36,1183.84,1740,2493.68,2115.55c148.81,42.67,560.88,169.85,1148,233.26,255.08,27.55,468.29,35,610.78,36.83v-1019c-168,51.17-325.27,89-471.85,116.12C3563.74,1523,3455,1549,3372.75,1535.1c-243.51-41.09-266.44-249.25-523.57-456.39C2551.42,838.83,2119,744.85,1776.84,803.57c-279,47.89-231.17,151.57-607.8,251.74-173.23,46.07-670.4,178.29-1003.77-45.38C49,931.93,63,883.41-98.22,774.91-306,635.07-507.81,590.44-606.82,568.55-1123,454.41-1636.67,620.74-1785.4,673Z" transform="translate(1794.1 -529.36)"/><path class="b0528100-cb76-4931-b358-0f7bc76d3dc4" d="M-1794.1,1502.32c140.52,102.4,386.57,264.06,739.27,405.14,1262.92,505.19,2238.67,84.83,3548.51,460.38,148.81,42.67,560.88,169.85,1148,233.26,255.08,27.55,468.29,35,610.78,36.83V1619c-168,51.17-325.27,89-471.85,116.13-216.91,40.19-325.66,66.18-407.9,52.31-243.51-41.09-266.44-249.25-523.57-456.39C2551.42,1091.12,2119,997.14,1776.84,1055.86c-279,47.89-231.17,151.57-607.8,251.73-173.23,46.07-670.4,178.29-1003.77-45.37C49,1184.22,63,1135.7-98.22,1027.2-306,887.36-507.81,842.73-606.82,820.84-1123,706.7-1636.67,873-1785.4,925.31Z" transform="translate(1794.1 -529.36)"/><path class="b0528100-cb76-4931-b358-0f7bc76d3dc4" d="M-1763.71,1823.93c140.53,102.4,386.58,264,739.28,405.13,1262.92,505.19,2238.67,84.83,3548.5,460.38,148.82,42.67,560.89,169.86,1148,233.26,255.08,27.55,468.29,35,610.78,36.83v-1019c-168,51.17-325.27,89-471.85,116.12-216.91,40.19-325.67,66.19-407.9,52.31-243.52-41.09-266.44-249.25-523.57-456.39-297.77-239.88-730.22-333.86-1072.34-275.14-279,47.89-231.18,151.57-607.8,251.74-173.23,46.07-670.4,178.29-1003.77-45.38-116.25-78-102.29-126.52-263.49-235-207.75-139.84-409.59-184.47-508.6-206.36-516.2-114.14-1029.86,52.19-1178.59,104.47Z" transform="translate(1794.1 -529.36)"/><path class="b0528100-cb76-4931-b358-0f7bc76d3dc4" d="M-1763.71,2162.45c140.53,102.4,386.58,264.06,739.28,405.14,1262.92,505.19,2238.67,84.83,3548.5,460.38,148.82,42.67,560.89,169.85,1148,233.26,255.08,27.55,468.29,35,610.78,36.83v-1019c-168,51.18-325.27,89-471.85,116.13-216.91,40.19-325.67,66.18-407.9,52.31-243.52-41.09-266.44-249.25-523.57-456.39-297.77-239.88-730.22-333.86-1072.34-275.14-279,47.89-231.18,151.57-607.8,251.73C1026.21,2013.8,529,2146,195.67,1922.35c-116.25-78-102.29-126.52-263.49-235-207.75-139.84-409.59-184.47-508.6-206.36-516.2-114.14-1029.86,52.19-1178.59,104.47Z" transform="translate(1794.1 -529.36)"/></g></svg>