<svg id="baaa2048-b451-415b-abeb-53ee04c29ebb" data-name="visual" xmlns="http://www.w3.org/2000/svg" viewBox="0 0 900 601"><defs><style>.eeef5112-9e74-4513-ae0e-1bf429f7bb92{fill:#f2f0e6;}.b3a18a0d-834e-4a07-9092-377cb0a373f2{fill:#fff;}.bed8e92f-54f9-410c-b02a-90267a8b61c9{opacity:0.5;}.a60d76d2-12f9-412c-a2bd-2e7ff69b0ecb{fill:#dde1d1;}.a2babb3c-1ea7-4afe-a54e-348f88741d45{fill:#d0d4c4;}.a741e014-992e-4aec-a05f-1e6f5e1a8c5f{fill:#b2a427;}.e1deb821-385c-46f3-9c1f-bbd7e0f84825{fill:#decc30;}.ab3a594f-d0e3-46da-9fe3-721ec1bbb5f6{opacity:0.68;}</style></defs><rect class="eeef5112-9e74-4513-ae0e-1bf429f7bb92" width="900" height="600"/><path class="b3a18a0d-834e-4a07-9092-377cb0a373f2" d="M0,383l21.5,13C43,409,86,435,128.8,440.8s85.5-8.5,128.4-7S343,452.7,385.8,462s85.5,10.7,128.4,16.3S600,494,642.8,485.7s85.5-35,128.4-33.9S857,482,878.5,496.5L900,511v90H0Z"/><g class="bed8e92f-54f9-410c-b02a-90267a8b61c9"><path class="a60d76d2-12f9-412c-a2bd-2e7ff69b0ecb" d="M105.55,114.74a.22.22,0,0,1,0-.37,1.93,1.93,0,0,0,.51-.65c.54-1.08-1.17-3.41-3.66-3.41a6.9,6.9,0,0,0-3.76,1.27,6.8,6.8,0,0,0,1.28-3.75c0-2.5-2.33-4.21-3.42-3.67a1.9,1.9,0,0,0-.64.52.25.25,0,0,1-.38,0,1.9,1.9,0,0,0-.64-.52c-1.08-.54-3.42,1.17-3.42,3.67a6.8,6.8,0,0,0,1.28,3.75,6.9,6.9,0,0,0-3.76-1.27c-2.49,0-4.2,2.33-3.66,3.41a1.93,1.93,0,0,0,.51.65.22.22,0,0,1,0,.37,1.74,1.74,0,0,0-.51.65c-.54,1.08,1.17,3.41,3.66,3.41a6.9,6.9,0,0,0,3.76-1.27,6.77,6.77,0,0,0-1.28,3.75c0,2.5,2.34,4.21,3.42,3.66a1.78,1.78,0,0,0,.64-.51.25.25,0,0,1,.38,0,1.78,1.78,0,0,0,.64.51c1.09.55,3.42-1.16,3.42-3.66a6.77,6.77,0,0,0-1.28-3.75,6.9,6.9,0,0,0,3.76,1.27c2.49,0,4.2-2.33,3.66-3.41A1.74,1.74,0,0,0,105.55,114.74Z"/><path class="a2babb3c-1ea7-4afe-a54e-348f88741d45" d="M97.89,114.6a.06.06,0,0,1,0-.09.42.42,0,0,0,.11-.14c.12-.25-.26-.77-.82-.77a1.47,1.47,0,0,0-.84.29,1.59,1.59,0,0,0,.28-.85c0-.56-.52-.94-.76-.82a.39.39,0,0,0-.15.12.06.06,0,0,1-.08,0,.39.39,0,0,0-.15-.12c-.24-.12-.76.26-.76.82a1.59,1.59,0,0,0,.28.85,1.47,1.47,0,0,0-.84-.29c-.56,0-.94.52-.82.77a.42.42,0,0,0,.11.14.06.06,0,0,1,0,.09.34.34,0,0,0-.11.14c-.12.24.26.77.82.77a1.47,1.47,0,0,0,.84-.29,1.56,1.56,0,0,0-.28.84c0,.57.52,1,.76.83a.39.39,0,0,0,.15-.12,0,0,0,0,1,.08,0,.39.39,0,0,0,.15.12c.24.12.76-.26.76-.83a1.56,1.56,0,0,0-.28-.84,1.47,1.47,0,0,0,.84.29c.56,0,.94-.53.82-.77A.34.34,0,0,0,97.89,114.6Z"/><circle class="a741e014-992e-4aec-a05f-1e6f5e1a8c5f" cx="95.67" cy="114.55" r="1.46"/><path class="e1deb821-385c-46f3-9c1f-bbd7e0f84825" d="M95.54,113.55a.33.33,0,1,1-.33-.33A.33.33,0,0,1,95.54,113.55Z"/><circle class="e1deb821-385c-46f3-9c1f-bbd7e0f84825" cx="95.92" cy="113.47" r="0.33"/><circle class="e1deb821-385c-46f3-9c1f-bbd7e0f84825" cx="95.95" cy="114.14" r="0.33"/><path class="e1deb821-385c-46f3-9c1f-bbd7e0f84825" d="M95.69,114.9a.33.33,0,0,1-.33.33.33.33,0,1,1,0-.66A.33.33,0,0,1,95.69,114.9Z"/><path class="e1deb821-385c-46f3-9c1f-bbd7e0f84825" d="M96.37,114.84a.33.33,0,0,1-.33.33.33.33,0,0,1-.33-.33.32.32,0,0,1,.33-.33A.33.33,0,0,1,96.37,114.84Z"/><circle class="e1deb821-385c-46f3-9c1f-bbd7e0f84825" cx="95.65" cy="115.5" r="0.33"/><circle class="e1deb821-385c-46f3-9c1f-bbd7e0f84825" cx="96.32" cy="115.45" r="0.33"/><circle class="e1deb821-385c-46f3-9c1f-bbd7e0f84825" cx="94.61" cy="114.22" r="0.33"/><circle class="e1deb821-385c-46f3-9c1f-bbd7e0f84825" cx="94.68" cy="114.9" r="0.33"/><path class="e1deb821-385c-46f3-9c1f-bbd7e0f84825" d="M95.34,115.47a.33.33,0,0,1-.66,0,.33.33,0,0,1,.66,0Z"/><path class="e1deb821-385c-46f3-9c1f-bbd7e0f84825" d="M97.06,114.66a.33.33,0,0,1-.33.33.33.33,0,0,1-.33-.33.32.32,0,0,1,.33-.33A.33.33,0,0,1,97.06,114.66Z"/><circle class="e1deb821-385c-46f3-9c1f-bbd7e0f84825" cx="95.28" cy="114.22" r="0.33"/><circle class="e1deb821-385c-46f3-9c1f-bbd7e0f84825" cx="96.56" cy="113.89" r="0.33"/></g><g class="ab3a594f-d0e3-46da-9fe3-721ec1bbb5f6"><path class="a60d76d2-12f9-412c-a2bd-2e7ff69b0ecb" d="M469.54,389.12a.11.11,0,0,1,0-.19.94.94,0,0,0,.26-.33c.27-.55-.6-1.74-1.87-1.74a3.46,3.46,0,0,0-1.91.65,3.46,3.46,0,0,0,.65-1.91c0-1.27-1.19-2.14-1.74-1.87a.94.94,0,0,0-.33.26.11.11,0,0,1-.19,0,.86.86,0,0,0-.33-.26c-.55-.27-1.74.6-1.74,1.87a3.54,3.54,0,0,0,.65,1.91,3.43,3.43,0,0,0-1.91-.65c-1.27,0-2.14,1.19-1.87,1.74a1,1,0,0,0,.27.33.12.12,0,0,1,0,.19.86.86,0,0,0-.27.33c-.27.55.6,1.74,1.87,1.74a3.51,3.51,0,0,0,1.91-.65,3.51,3.51,0,0,0-.65,1.91c0,1.27,1.19,2.14,1.74,1.87a.86.86,0,0,0,.33-.27.12.12,0,0,1,.19,0,1,1,0,0,0,.33.27c.55.27,1.74-.6,1.74-1.87a3.43,3.43,0,0,0-.65-1.91,3.54,3.54,0,0,0,1.91.65c1.27,0,2.14-1.19,1.87-1.74A.86.86,0,0,0,469.54,389.12Z"/><path class="a2babb3c-1ea7-4afe-a54e-348f88741d45" d="M465.64,389a0,0,0,0,1,0,0,.21.21,0,0,0,.05-.07c.07-.13-.13-.39-.41-.39a.74.74,0,0,0-.43.14.81.81,0,0,0,.14-.43c0-.28-.26-.48-.39-.41a.14.14,0,0,0-.07.05s0,0,0,0a.14.14,0,0,0-.07-.05c-.12-.07-.39.13-.39.41a.75.75,0,0,0,.15.43.78.78,0,0,0-.43-.14c-.29,0-.48.26-.42.39a.22.22,0,0,0,.06.07,0,0,0,0,1,0,0,.28.28,0,0,0-.06.08c-.06.12.13.39.42.39a.25.25,0,1,1,.28.28c0,.29.27.48.39.42a.14.14,0,0,0,.07-.06h0a.14.14,0,0,0,.07.06c.13.06.39-.13.39-.42a.88.88,0,0,0-.14-.43.75.75,0,0,0,.43.15c.28,0,.48-.27.41-.39S465.65,389.06,465.64,389Z"/><circle class="a741e014-992e-4aec-a05f-1e6f5e1a8c5f" cx="464.51" cy="389.02" r="0.74"/><path class="e1deb821-385c-46f3-9c1f-bbd7e0f84825" d="M464.44,388.51a.17.17,0,1,1-.17-.17A.18.18,0,0,1,464.44,388.51Z"/><circle class="e1deb821-385c-46f3-9c1f-bbd7e0f84825" cx="464.63" cy="388.47" r="0.17"/><circle class="e1deb821-385c-46f3-9c1f-bbd7e0f84825" cx="464.65" cy="388.81" r="0.17"/><path class="e1deb821-385c-46f3-9c1f-bbd7e0f84825" d="M464.51,389.2a.17.17,0,0,1-.16.17.17.17,0,1,1,0-.34A.17.17,0,0,1,464.51,389.2Z"/><path class="e1deb821-385c-46f3-9c1f-bbd7e0f84825" d="M464.86,389.17a.17.17,0,0,1-.17.17.18.18,0,0,1-.17-.17.17.17,0,0,1,.17-.17A.16.16,0,0,1,464.86,389.17Z"/><circle class="e1deb821-385c-46f3-9c1f-bbd7e0f84825" cx="464.5" cy="389.5" r="0.17"/><circle class="e1deb821-385c-46f3-9c1f-bbd7e0f84825" cx="464.84" cy="389.48" r="0.17"/><circle class="e1deb821-385c-46f3-9c1f-bbd7e0f84825" cx="463.97" cy="388.86" r="0.17"/><circle class="e1deb821-385c-46f3-9c1f-bbd7e0f84825" cx="464" cy="389.2" r="0.17"/><path class="e1deb821-385c-46f3-9c1f-bbd7e0f84825" d="M464.34,389.49a.17.17,0,1,1-.17-.17A.18.18,0,0,1,464.34,389.49Z"/><path class="e1deb821-385c-46f3-9c1f-bbd7e0f84825" d="M465.21,389.08a.16.16,0,0,1-.17.16.16.16,0,0,1-.16-.16.16.16,0,0,1,.16-.17A.16.16,0,0,1,465.21,389.08Z"/><circle class="e1deb821-385c-46f3-9c1f-bbd7e0f84825" cx="464.31" cy="388.86" r="0.17"/><circle class="e1deb821-385c-46f3-9c1f-bbd7e0f84825" cx="464.96" cy="388.69" r="0.17"/></g><g class="bed8e92f-54f9-410c-b02a-90267a8b61c9"><path class="a60d76d2-12f9-412c-a2bd-2e7ff69b0ecb" d="M58.08,338.78a.25.25,0,0,1,0-.4,2,2,0,0,0,.56-.69c.58-1.17-1.25-3.67-3.94-3.67a7.29,7.29,0,0,0-4,1.37,7.29,7.29,0,0,0,1.37-4c0-2.68-2.5-4.52-3.67-3.94a2,2,0,0,0-.69.56.25.25,0,0,1-.4,0,2,2,0,0,0-.69-.56c-1.17-.58-3.67,1.26-3.67,3.94a7.37,7.37,0,0,0,1.37,4,7.29,7.29,0,0,0-4-1.37c-2.68,0-4.52,2.5-3.94,3.67a2,2,0,0,0,.56.69.25.25,0,0,1,0,.4,2,2,0,0,0-.56.69c-.58,1.17,1.26,3.67,3.94,3.67a7.37,7.37,0,0,0,4-1.37,7.37,7.37,0,0,0-1.37,4c0,2.68,2.5,4.52,3.67,3.94a2,2,0,0,0,.69-.56.25.25,0,0,1,.4,0,2,2,0,0,0,.69.56c1.17.58,3.67-1.26,3.67-3.94a7.29,7.29,0,0,0-1.37-4,7.37,7.37,0,0,0,4,1.37c2.69,0,4.52-2.5,3.94-3.67A2,2,0,0,0,58.08,338.78Z"/><path class="a2babb3c-1ea7-4afe-a54e-348f88741d45" d="M49.86,338.62a.06.06,0,0,1,0-.09.33.33,0,0,0,.13-.15c.13-.26-.29-.82-.89-.82a1.67,1.67,0,0,0-.9.3,1.67,1.67,0,0,0,.3-.9c0-.6-.56-1-.82-.88a.32.32,0,0,0-.15.12.06.06,0,0,1-.09,0,.35.35,0,0,0-.16-.12c-.26-.14-.82.28-.82.88a1.67,1.67,0,0,0,.3.9,1.67,1.67,0,0,0-.9-.3c-.6,0-1,.56-.88.82a.27.27,0,0,0,.12.15.06.06,0,0,1,0,.09.35.35,0,0,0-.12.16c-.13.26.28.82.88.82a1.67,1.67,0,0,0,.9-.3,1.67,1.67,0,0,0-.3.9c0,.6.56,1,.82.88a.35.35,0,0,0,.16-.12.06.06,0,0,1,.09,0,.32.32,0,0,0,.15.12c.26.14.82-.28.82-.88a1.67,1.67,0,0,0-.3-.9,1.67,1.67,0,0,0,.9.3c.6,0,1-.56.89-.82A.45.45,0,0,0,49.86,338.62Z"/><circle class="a741e014-992e-4aec-a05f-1e6f5e1a8c5f" cx="47.48" cy="338.58" r="1.57"/><path class="e1deb821-385c-46f3-9c1f-bbd7e0f84825" d="M47.34,337.5a.36.36,0,0,1-.71,0,.36.36,0,1,1,.71,0Z"/><circle class="e1deb821-385c-46f3-9c1f-bbd7e0f84825" cx="47.74" cy="337.42" r="0.35"/><circle class="e1deb821-385c-46f3-9c1f-bbd7e0f84825" cx="47.78" cy="338.14" r="0.35"/><path class="e1deb821-385c-46f3-9c1f-bbd7e0f84825" d="M47.5,339a.36.36,0,1,1-.71,0,.36.36,0,0,1,.71,0Z"/><path class="e1deb821-385c-46f3-9c1f-bbd7e0f84825" d="M48.23,338.88a.36.36,0,1,1-.71,0,.36.36,0,0,1,.71,0Z"/><circle class="e1deb821-385c-46f3-9c1f-bbd7e0f84825" cx="47.46" cy="339.59" r="0.35"/><circle class="e1deb821-385c-46f3-9c1f-bbd7e0f84825" cx="48.18" cy="339.54" r="0.35"/><circle class="e1deb821-385c-46f3-9c1f-bbd7e0f84825" cx="46.34" cy="338.23" r="0.35"/><circle class="e1deb821-385c-46f3-9c1f-bbd7e0f84825" cx="46.42" cy="338.95" r="0.35"/><path class="e1deb821-385c-46f3-9c1f-bbd7e0f84825" d="M47.12,339.57a.35.35,0,1,1-.35-.36A.35.35,0,0,1,47.12,339.57Z"/><path class="e1deb821-385c-46f3-9c1f-bbd7e0f84825" d="M49,338.69a.36.36,0,0,1-.71,0,.36.36,0,1,1,.71,0Z"/><circle class="e1deb821-385c-46f3-9c1f-bbd7e0f84825" cx="47.07" cy="338.23" r="0.35"/><circle class="e1deb821-385c-46f3-9c1f-bbd7e0f84825" cx="48.44" cy="337.87" r="0.35"/></g><g class="bed8e92f-54f9-410c-b02a-90267a8b61c9"><path class="a60d76d2-12f9-412c-a2bd-2e7ff69b0ecb" d="M715.5,142.9a.22.22,0,0,1,0-.34A1.68,1.68,0,0,0,716,142c.5-1-1.06-3.11-3.34-3.11A6.22,6.22,0,0,0,709.2,140a6.24,6.24,0,0,0,1.17-3.43c0-2.28-2.13-3.83-3.12-3.34a1.68,1.68,0,0,0-.59.47.22.22,0,0,1-.34,0,1.59,1.59,0,0,0-.59-.47c-1-.49-3.11,1.06-3.11,3.34a6.22,6.22,0,0,0,1.16,3.43,6.22,6.22,0,0,0-3.43-1.16c-2.28,0-3.83,2.12-3.34,3.11a1.68,1.68,0,0,0,.47.59.22.22,0,0,1,0,.34,1.68,1.68,0,0,0-.47.59c-.49,1,1.06,3.12,3.34,3.12a6.24,6.24,0,0,0,3.43-1.17,6.22,6.22,0,0,0-1.16,3.43c0,2.28,2.12,3.84,3.11,3.34a1.59,1.59,0,0,0,.59-.47.22.22,0,0,1,.34,0,1.68,1.68,0,0,0,.59.47c1,.5,3.12-1.06,3.12-3.34a6.24,6.24,0,0,0-1.17-3.43,6.24,6.24,0,0,0,3.43,1.17c2.28,0,3.84-2.13,3.34-3.12A1.68,1.68,0,0,0,715.5,142.9Z"/><path class="a2babb3c-1ea7-4afe-a54e-348f88741d45" d="M708.51,142.77a.06.06,0,0,1,0-.08.25.25,0,0,0,.11-.13c.11-.22-.24-.7-.75-.7a1.37,1.37,0,0,0-.77.26,1.37,1.37,0,0,0,.26-.77c0-.51-.48-.86-.7-.75a.29.29,0,0,0-.13.11.06.06,0,0,1-.08,0,.25.25,0,0,0-.13-.11c-.22-.11-.7.24-.7.75a1.37,1.37,0,0,0,.26.77,1.37,1.37,0,0,0-.77-.26c-.51,0-.86.48-.75.7a.3.3,0,0,0,.11.13.06.06,0,0,1,0,.08.3.3,0,0,0-.11.13c-.11.22.24.7.75.7a1.37,1.37,0,0,0,.77-.26,1.37,1.37,0,0,0-.26.77c0,.51.48.86.7.75a.25.25,0,0,0,.13-.11.06.06,0,0,1,.08,0,.29.29,0,0,0,.13.11c.22.11.7-.24.7-.75a1.37,1.37,0,0,0-.26-.77,1.37,1.37,0,0,0,.77.26c.51,0,.86-.48.75-.7A.25.25,0,0,0,708.51,142.77Z"/><circle class="a741e014-992e-4aec-a05f-1e6f5e1a8c5f" cx="706.49" cy="142.73" r="1.33"/><path class="e1deb821-385c-46f3-9c1f-bbd7e0f84825" d="M706.37,141.81a.29.29,0,0,1-.3.3.3.3,0,0,1-.3-.3.31.31,0,0,1,.3-.3A.3.3,0,0,1,706.37,141.81Z"/><circle class="e1deb821-385c-46f3-9c1f-bbd7e0f84825" cx="706.72" cy="141.74" r="0.3"/><circle class="e1deb821-385c-46f3-9c1f-bbd7e0f84825" cx="706.75" cy="142.36" r="0.3"/><path class="e1deb821-385c-46f3-9c1f-bbd7e0f84825" d="M706.51,143.05a.31.31,0,0,1-.61,0,.31.31,0,0,1,.61,0Z"/><path class="e1deb821-385c-46f3-9c1f-bbd7e0f84825" d="M707.13,143a.31.31,0,0,1-.61,0,.31.31,0,0,1,.61,0Z"/><circle class="e1deb821-385c-46f3-9c1f-bbd7e0f84825" cx="706.48" cy="143.59" r="0.3"/><circle class="e1deb821-385c-46f3-9c1f-bbd7e0f84825" cx="707.09" cy="143.54" r="0.3"/><circle class="e1deb821-385c-46f3-9c1f-bbd7e0f84825" cx="705.52" cy="142.43" r="0.3"/><circle class="e1deb821-385c-46f3-9c1f-bbd7e0f84825" cx="705.59" cy="143.04" r="0.3"/><path class="e1deb821-385c-46f3-9c1f-bbd7e0f84825" d="M706.19,143.57a.3.3,0,0,1-.3.3.3.3,0,0,1,0-.6A.3.3,0,0,1,706.19,143.57Z"/><path class="e1deb821-385c-46f3-9c1f-bbd7e0f84825" d="M707.76,142.82a.31.31,0,0,1-.61,0,.31.31,0,0,1,.61,0Z"/><circle class="e1deb821-385c-46f3-9c1f-bbd7e0f84825" cx="706.14" cy="142.43" r="0.3"/><circle class="e1deb821-385c-46f3-9c1f-bbd7e0f84825" cx="707.31" cy="142.13" r="0.3"/></g><g class="bed8e92f-54f9-410c-b02a-90267a8b61c9"><path class="a60d76d2-12f9-412c-a2bd-2e7ff69b0ecb" d="M851.16,391.28a.22.22,0,0,1,0-.35,1.65,1.65,0,0,0,.48-.6c.5-1-1.09-3.18-3.41-3.18a6.4,6.4,0,0,0-3.5,1.19,6.29,6.29,0,0,0,1.19-3.49c0-2.33-2.17-3.92-3.18-3.41a1.74,1.74,0,0,0-.6.48.23.23,0,0,1-.35,0,1.65,1.65,0,0,0-.6-.48c-1-.51-3.17,1.08-3.17,3.41a6.36,6.36,0,0,0,1.18,3.49,6.37,6.37,0,0,0-3.49-1.19c-2.32,0-3.91,2.17-3.41,3.18a1.65,1.65,0,0,0,.48.6.23.23,0,0,1,0,.35,1.65,1.65,0,0,0-.48.6c-.5,1,1.09,3.18,3.41,3.18a6.37,6.37,0,0,0,3.49-1.19,6.36,6.36,0,0,0-1.18,3.49c0,2.33,2.17,3.92,3.17,3.41a1.65,1.65,0,0,0,.6-.48.23.23,0,0,1,.35,0,1.74,1.74,0,0,0,.6.48c1,.51,3.18-1.08,3.18-3.41a6.29,6.29,0,0,0-1.19-3.49,6.4,6.4,0,0,0,3.5,1.19c2.32,0,3.91-2.17,3.41-3.18A1.65,1.65,0,0,0,851.16,391.28Z"/><path class="a2babb3c-1ea7-4afe-a54e-348f88741d45" d="M844,391.14a0,0,0,0,1,0-.07.33.33,0,0,0,.11-.14c.11-.22-.24-.71-.77-.71a.46.46,0,1,1-.51-.52c0-.52-.49-.88-.72-.77a.52.52,0,0,0-.13.11,0,0,0,0,1-.08,0,.61.61,0,0,0-.14-.11c-.22-.11-.71.25-.71.77a1.41,1.41,0,0,0,.27.78,1.46,1.46,0,0,0-.79-.26c-.52,0-.88.49-.76.71a.33.33,0,0,0,.11.14,0,0,0,0,1,0,.07.33.33,0,0,0-.11.14c-.12.23.24.71.76.71a1.46,1.46,0,0,0,.79-.26,1.44,1.44,0,0,0-.27.78c0,.52.49.88.71.77a.61.61,0,0,0,.14-.11,0,0,0,0,1,.08,0,.52.52,0,0,0,.13.11c.23.11.72-.25.72-.77a.46.46,0,1,1,.51-.52c.53,0,.88-.48.77-.71A.33.33,0,0,0,844,391.14Z"/><circle class="a741e014-992e-4aec-a05f-1e6f5e1a8c5f" cx="841.97" cy="391.11" r="1.36"/><path class="e1deb821-385c-46f3-9c1f-bbd7e0f84825" d="M841.85,390.17a.31.31,0,1,1-.31-.31A.31.31,0,0,1,841.85,390.17Z"/><circle class="e1deb821-385c-46f3-9c1f-bbd7e0f84825" cx="842.2" cy="390.1" r="0.31"/><circle class="e1deb821-385c-46f3-9c1f-bbd7e0f84825" cx="842.23" cy="390.72" r="0.31"/><path class="e1deb821-385c-46f3-9c1f-bbd7e0f84825" d="M842,391.43a.3.3,0,0,1-.3.31.31.31,0,0,1,0-.62A.3.3,0,0,1,842,391.43Z"/><path class="e1deb821-385c-46f3-9c1f-bbd7e0f84825" d="M842.62,391.37a.31.31,0,0,1-.62,0,.31.31,0,1,1,.62,0Z"/><circle class="e1deb821-385c-46f3-9c1f-bbd7e0f84825" cx="841.95" cy="391.98" r="0.31"/><circle class="e1deb821-385c-46f3-9c1f-bbd7e0f84825" cx="842.58" cy="391.94" r="0.31"/><circle class="e1deb821-385c-46f3-9c1f-bbd7e0f84825" cx="840.98" cy="390.8" r="0.31"/><circle class="e1deb821-385c-46f3-9c1f-bbd7e0f84825" cx="841.05" cy="391.43" r="0.31"/><path class="e1deb821-385c-46f3-9c1f-bbd7e0f84825" d="M841.66,392a.31.31,0,0,1-.31.31.31.31,0,0,1,0-.62A.31.31,0,0,1,841.66,392Z"/><path class="e1deb821-385c-46f3-9c1f-bbd7e0f84825" d="M843.26,391.2a.31.31,0,1,1-.31-.31A.31.31,0,0,1,843.26,391.2Z"/><circle class="e1deb821-385c-46f3-9c1f-bbd7e0f84825" cx="841.61" cy="390.8" r="0.31"/><circle class="e1deb821-385c-46f3-9c1f-bbd7e0f84825" cx="842.8" cy="390.49" r="0.31"/></g></svg>